SplineFontDB: 3.2
FontName: Dragon-Warrior-II-NES-Ext
FullName: Dragon Warrior II (NES) Extended
FamilyName: Dragon Warrior II (NES)
Weight: Book
Copyright: Copyright EvilAsh25 2018
Version: 1.0
ItalicAngle: 0
UnderlinePosition: 153
UnderlineWidth: 102
Ascent: 1792
Descent: 256
InvalidEm: 0
sfntRevision: 0x00010000
LayerCount: 2
Layer: 0 1 "Hinten" 1
Layer: 1 1 "Vorne" 0
XUID: [1021 157 -452924922 29717]
StyleMap: 0x0040
FSType: 4
OS2Version: 2
OS2_WeightWidthSlopeOnly: 0
OS2_UseTypoMetrics: 0
CreationTime: 1614875170
ModificationTime: 1677072161
PfmFamily: 81
TTFWeight: 400
TTFWidth: 5
LineGap: 0
VLineGap: 0
Panose: 0 0 4 0 0 0 0 0 0 0
OS2TypoAscent: 1792
OS2TypoAOffset: 0
OS2TypoDescent: -256
OS2TypoDOffset: 0
OS2TypoLinegap: 0
OS2WinAscent: 2304
OS2WinAOffset: 0
OS2WinDescent: 256
OS2WinDOffset: 0
HheadAscent: 2304
HheadAOffset: 0
HheadDescent: -256
HheadDOffset: 0
OS2SubXSize: 1024
OS2SubYSize: 1024
OS2SubXOff: 0
OS2SubYOff: -128
OS2SupXSize: 1024
OS2SupYSize: 1024
OS2SupXOff: 0
OS2SupYOff: 1024
OS2StrikeYSize: 102
OS2StrikeYPos: 409
OS2CapHeight: 1792
OS2XHeight: 1536
OS2Vendor: 'FSTR'
OS2CodePages: 00000001.00000000
OS2UnicodeRanges: 80000001.00000000.00000000.00000000
MarkAttachClasses: 1
DEI: 91125
ShortTable: maxp 16
  1
  0
  84
  44
  9
  0
  0
  2
  0
  0
  0
  0
  0
  0
  0
  0
EndShort
LangName: 1033 "" "" "Regular" "" "" "1.0" "" "FontStruct is a trademark of FontStruct.com" "https://fontstruct.com" "EvilAsh25" "+IBwA-Dragon Warrior II (NES)+IB0A was built with FontStruct+AAoA-Designer description: <p>Font based off of the text of Dragon Warrior II&nbsp;for the NES</p>+AAoA" "https://fontstruct.com/fontstructions/show/1491731/dragon-warrior-ii-nes" "https://fontstruct.com/fontstructors/show/1174404/evilash25" "Creative Commons Attribution Non-commercial Share Alike" "http://creativecommons.org/licenses/by-nc-sa/3.0/" "" "" "" "" "Five big quacking zephyrs jolt my wax bed"
Encoding: UnicodeBmp
UnicodeInterp: none
NameList: AGL For New Fonts

StartChar: .notdef
Encoding: 65536 -1 0
Width: 1634
GlyphClass: 1
Flags: W
LayerCount: 2
Fore
SplineSet
1309 50 m 1,0,-1
 689 876 l 1,1,-1
 69 50 l 1,2,-1
 1309 50 l 1,0,-1
50 69 m 1,3,-1
 670 896 l 1,4,-1
 50 1722 l 1,5,-1
 50 69 l 1,6,-1
 50 69 l 1,3,-1
1328 69 m 1,7,-1
 1328 1722 l 1,8,-1
 708 896 l 1,9,-1
 1328 69 l 1,10,-1
 1328 69 l 1,7,-1
689 915 m 1,11,-1
 1309 1742 l 1,12,-1
 69 1742 l 1,13,-1
 689 915 l 1,14,-1
 689 915 l 1,11,-1
0 0 m 1,15,-1
 0 1792 l 1,16,-1
 1378 1792 l 1,17,-1
 1378 0 l 1,18,-1
 0 0 l 1,15,-1
EndSplineSet
Validated: 5
EndChar

StartChar: exclam
Encoding: 33 33 2
Width: 2048
GlyphClass: 1
Flags: W
LayerCount: 2
Fore
SplineSet
0 0 m 1,0,-1
 0 512 l 1,1,-1
 512 512 l 1,2,-1
 512 0 l 1,3,-1
 0 0 l 1,0,-1
512 512 m 1,4,-1
 512 1024 l 1,5,-1
 768 1024 l 1,6,-1
 768 1536 l 1,7,-1
 1024 1536 l 1,8,-1
 1024 1792 l 1,9,-1
 1536 1792 l 1,10,-1
 1536 1536 l 1,11,-1
 1792 1536 l 1,12,-1
 1792 1024 l 1,13,-1
 1536 1024 l 1,14,-1
 1536 768 l 1,15,-1
 1024 768 l 1,16,-1
 1024 512 l 1,17,-1
 512 512 l 1,4,-1
EndSplineSet
Validated: 5
EndChar

StartChar: quotedbl
Encoding: 34 34 3
Width: 2048
GlyphClass: 1
Flags: W
LayerCount: 2
Fore
SplineSet
512 768 m 1,0,-1
 512 1024 l 1,1,-1
 768 1024 l 1,2,-1
 768 768 l 1,3,-1
 512 768 l 1,0,-1
1280 768 m 1,4,-1
 1280 1024 l 1,5,-1
 1536 1024 l 1,6,-1
 1536 768 l 1,7,-1
 1280 768 l 1,4,-1
768 1024 m 1,8,-1
 768 1280 l 1,9,-1
 512 1280 l 1,10,-1
 512 1792 l 1,11,-1
 1024 1792 l 1,12,-1
 1024 1024 l 1,13,-1
 768 1024 l 1,8,-1
1536 1024 m 1,14,-1
 1536 1280 l 1,15,-1
 1280 1280 l 1,16,-1
 1280 1792 l 1,17,-1
 1792 1792 l 1,18,-1
 1792 1024 l 1,19,-1
 1536 1024 l 1,14,-1
EndSplineSet
Validated: 5
EndChar

StartChar: ampersand
Encoding: 38 38 4
Width: 2048
GlyphClass: 1
Flags: W
LayerCount: 2
Fore
SplineSet
768 1024 m 1,0,-1
 768 1536 l 1,1,-1
 512 1536 l 1,2,-1
 512 1024 l 1,3,-1
 768 1024 l 1,0,-1
256 0 m 1,4,-1
 256 256 l 1,5,-1
 0 256 l 1,6,-1
 0 768 l 1,7,-1
 256 768 l 1,8,-1
 256 1024 l 1,9,-1
 0 1024 l 1,10,-1
 0 1536 l 1,11,-1
 256 1536 l 1,12,-1
 256 1792 l 1,13,-1
 1024 1792 l 1,14,-1
 1024 1536 l 1,15,-1
 1280 1536 l 1,16,-1
 1280 1024 l 1,17,-1
 1024 1024 l 1,18,-1
 1024 768 l 1,19,-1
 1280 768 l 1,20,-1
 1280 1024 l 1,21,-1
 1536 1024 l 1,22,-1
 1536 1280 l 1,23,-1
 1792 1280 l 1,24,-1
 1792 768 l 1,25,-1
 1536 768 l 1,26,-1
 1536 256 l 1,27,-1
 1792 256 l 1,28,-1
 1792 0 l 1,29,-1
 1280 0 l 1,30,-1
 1280 256 l 1,31,-1
 1024 256 l 1,32,-1
 1024 512 l 1,33,-1
 768 512 l 1,34,-1
 768 768 l 1,35,-1
 512 768 l 1,36,-1
 512 256 l 1,37,-1
 1024 256 l 1,38,-1
 1024 0 l 1,39,-1
 256 0 l 1,4,-1
EndSplineSet
Validated: 5
EndChar

StartChar: quotesingle
Encoding: 39 39 5
Width: 2048
GlyphClass: 1
Flags: W
LayerCount: 2
Fore
SplineSet
256 768 m 1,0,-1
 256 1024 l 1,1,-1
 512 1024 l 1,2,-1
 512 768 l 1,3,-1
 256 768 l 1,0,-1
512 1024 m 1,4,-1
 512 1280 l 1,5,-1
 256 1280 l 1,6,-1
 256 1792 l 1,7,-1
 768 1792 l 1,8,-1
 768 1024 l 1,9,-1
 512 1024 l 1,4,-1
EndSplineSet
Validated: 5
EndChar

StartChar: parenleft
Encoding: 40 40 6
Width: 2048
GlyphClass: 1
Flags: W
LayerCount: 2
Fore
SplineSet
1280 0 m 1,0,-1
 1280 256 l 1,1,-1
 1792 256 l 1,2,-1
 1792 0 l 1,3,-1
 1280 0 l 1,0,-1
1024 256 m 1,4,-1
 1024 512 l 1,5,-1
 768 512 l 1,6,-1
 768 1280 l 1,7,-1
 1024 1280 l 1,8,-1
 1024 1536 l 1,9,-1
 1280 1536 l 1,10,-1
 1280 256 l 1,11,-1
 1024 256 l 1,4,-1
1280 1536 m 1,12,-1
 1280 1792 l 1,13,-1
 1792 1792 l 1,14,-1
 1792 1536 l 1,15,-1
 1280 1536 l 1,12,-1
EndSplineSet
Validated: 5
EndChar

StartChar: parenright
Encoding: 41 41 7
Width: 1280
GlyphClass: 1
Flags: W
LayerCount: 2
Fore
SplineSet
0 0 m 1,0,-1
 0 256 l 1,1,-1
 512 256 l 1,2,-1
 512 0 l 1,3,-1
 0 0 l 1,0,-1
512 256 m 1,4,-1
 512 1536 l 1,5,-1
 768 1536 l 1,6,-1
 768 1280 l 1,7,-1
 1024 1280 l 1,8,-1
 1024 512 l 1,9,-1
 768 512 l 1,10,-1
 768 256 l 1,11,-1
 512 256 l 1,4,-1
0 1536 m 1,12,-1
 0 1792 l 1,13,-1
 512 1792 l 1,14,-1
 512 1536 l 1,15,-1
 0 1536 l 1,12,-1
EndSplineSet
Validated: 5
EndChar

StartChar: asterisk
Encoding: 42 42 8
Width: 2048
GlyphClass: 1
Flags: W
LayerCount: 2
Fore
SplineSet
0 256 m 1,0,-1
 0 512 l 1,1,-1
 256 512 l 1,2,-1
 256 256 l 1,3,-1
 0 256 l 1,0,-1
1536 256 m 1,4,-1
 1536 512 l 1,5,-1
 1792 512 l 1,6,-1
 1792 256 l 1,7,-1
 1536 256 l 1,4,-1
256 512 m 1,8,-1
 256 768 l 1,9,-1
 512 768 l 1,10,-1
 512 512 l 1,11,-1
 256 512 l 1,8,-1
1280 512 m 1,12,-1
 1280 768 l 1,13,-1
 1536 768 l 1,14,-1
 1536 512 l 1,15,-1
 1280 512 l 1,12,-1
256 1024 m 1,16,-1
 256 1280 l 1,17,-1
 512 1280 l 1,18,-1
 512 1024 l 1,19,-1
 256 1024 l 1,16,-1
1280 1024 m 1,20,-1
 1280 1280 l 1,21,-1
 1536 1280 l 1,22,-1
 1536 1024 l 1,23,-1
 1280 1024 l 1,20,-1
0 1280 m 1,24,-1
 0 1536 l 1,25,-1
 256 1536 l 1,26,-1
 256 1280 l 1,27,-1
 0 1280 l 1,24,-1
1536 1280 m 1,28,-1
 1536 1536 l 1,29,-1
 1792 1536 l 1,30,-1
 1792 1280 l 1,31,-1
 1536 1280 l 1,28,-1
768 0 m 1,32,-1
 768 768 l 1,33,-1
 512 768 l 1,34,-1
 512 1024 l 1,35,-1
 768 1024 l 1,36,-1
 768 1792 l 1,37,-1
 1024 1792 l 1,38,-1
 1024 1024 l 1,39,-1
 1280 1024 l 1,40,-1
 1280 768 l 1,41,-1
 1024 768 l 1,42,-1
 1024 0 l 1,43,-1
 768 0 l 1,32,-1
EndSplineSet
Validated: 5
EndChar

StartChar: plus
Encoding: 43 43 9
Width: 2048
GlyphClass: 1
Flags: W
LayerCount: 2
Fore
SplineSet
768 256 m 1,0,-1
 768 768 l 1,1,-1
 256 768 l 1,2,-1
 256 1024 l 1,3,-1
 768 1024 l 1,4,-1
 768 1536 l 1,5,-1
 1024 1536 l 1,6,-1
 1024 1024 l 1,7,-1
 1536 1024 l 1,8,-1
 1536 768 l 1,9,-1
 1024 768 l 1,10,-1
 1024 256 l 1,11,-1
 768 256 l 1,0,-1
EndSplineSet
Validated: 1
EndChar

StartChar: comma
Encoding: 44 44 10
Width: 2048
GlyphClass: 1
Flags: W
LayerCount: 2
Fore
SplineSet
256 -256 m 1,0,-1
 256 0 l 1,1,-1
 512 0 l 1,2,-1
 512 -256 l 1,3,-1
 256 -256 l 1,0,-1
512 0 m 1,4,-1
 512 256 l 1,5,-1
 256 256 l 1,6,-1
 256 768 l 1,7,-1
 768 768 l 1,8,-1
 768 0 l 1,9,-1
 512 0 l 1,4,-1
EndSplineSet
Validated: 5
EndChar

StartChar: hyphen
Encoding: 45 45 11
Width: 2048
GlyphClass: 1
Flags: W
LayerCount: 2
Fore
SplineSet
256 768 m 1,0,-1
 256 1024 l 1,1,-1
 1536 1024 l 1,2,-1
 1536 768 l 1,3,-1
 256 768 l 1,0,-1
EndSplineSet
Validated: 1
EndChar

StartChar: period
Encoding: 46 46 12
Width: 2048
GlyphClass: 1
Flags: W
LayerCount: 2
Fore
SplineSet
256 0 m 1,0,-1
 256 512 l 1,1,-1
 768 512 l 1,2,-1
 768 0 l 1,3,-1
 256 0 l 1,0,-1
EndSplineSet
Validated: 1
EndChar

StartChar: zero
Encoding: 48 48 13
Width: 2048
GlyphClass: 1
Flags: W
LayerCount: 2
Fore
SplineSet
1280 256 m 1,0,-1
 1280 1536 l 1,1,-1
 768 1536 l 1,2,-1
 768 256 l 1,3,-1
 1280 256 l 1,0,-1
512 0 m 1,4,-1
 512 256 l 1,5,-1
 256 256 l 1,6,-1
 256 1536 l 1,7,-1
 512 1536 l 1,8,-1
 512 1792 l 1,9,-1
 1536 1792 l 1,10,-1
 1536 1536 l 1,11,-1
 1792 1536 l 1,12,-1
 1792 256 l 1,13,-1
 1536 256 l 1,14,-1
 1536 0 l 1,15,-1
 512 0 l 1,4,-1
EndSplineSet
Validated: 1
EndChar

StartChar: one
Encoding: 49 49 14
Width: 2048
GlyphClass: 1
LayerCount: 2
Fore
SplineSet
768 1536 m 1,0,-1
 768 1792 l 1,1,-1
 1024 1792 l 1,2,-1
 1024 1536 l 1,3,-1
 768 1536 l 1,0,-1
1024 1536 m 1,4,-1
 1024 1792 l 1,5,-1
 1280 1792 l 1,6,-1
 1280 1536 l 1,7,-1
 1024 1536 l 1,4,-1
512 1280 m 1,8,-1
 512 1536 l 1,9,-1
 768 1536 l 1,10,-1
 768 1280 l 1,11,-1
 512 1280 l 1,8,-1
768 1280 m 1,12,-1
 768 1536 l 1,13,-1
 1024 1536 l 1,14,-1
 1024 1280 l 1,15,-1
 768 1280 l 1,12,-1
1024 1280 m 1,16,-1
 1024 1536 l 1,17,-1
 1280 1536 l 1,18,-1
 1280 1280 l 1,19,-1
 1024 1280 l 1,16,-1
768 1024 m 1,20,-1
 768 1280 l 1,21,-1
 1024 1280 l 1,22,-1
 1024 1024 l 1,23,-1
 768 1024 l 1,20,-1
1024 1024 m 1,24,-1
 1024 1280 l 1,25,-1
 1280 1280 l 1,26,-1
 1280 1024 l 1,27,-1
 1024 1024 l 1,24,-1
768 768 m 1,28,-1
 768 1024 l 1,29,-1
 1024 1024 l 1,30,-1
 1024 768 l 1,31,-1
 768 768 l 1,28,-1
1024 768 m 1,32,-1
 1024 1024 l 1,33,-1
 1280 1024 l 1,34,-1
 1280 768 l 1,35,-1
 1024 768 l 1,32,-1
768 512 m 1,36,-1
 768 768 l 1,37,-1
 1024 768 l 1,38,-1
 1024 512 l 1,39,-1
 768 512 l 1,36,-1
1024 512 m 1,40,-1
 1024 768 l 1,41,-1
 1280 768 l 1,42,-1
 1280 512 l 1,43,-1
 1024 512 l 1,40,-1
768 256 m 1,44,-1
 768 512 l 1,45,-1
 1024 512 l 1,46,-1
 1024 256 l 1,47,-1
 768 256 l 1,44,-1
1024 256 m 1,48,-1
 1024 512 l 1,49,-1
 1280 512 l 1,50,-1
 1280 256 l 1,51,-1
 1024 256 l 1,48,-1
512 0 m 1,52,-1
 512 256 l 1,53,-1
 768 256 l 1,54,-1
 768 0 l 1,55,-1
 512 0 l 1,52,-1
768 0 m 1,56,-1
 768 256 l 1,57,-1
 1024 256 l 1,58,-1
 1024 0 l 1,59,-1
 768 0 l 1,56,-1
1024 0 m 1,60,-1
 1024 256 l 1,61,-1
 1280 256 l 1,62,-1
 1280 0 l 1,63,-1
 1024 0 l 1,60,-1
1280 0 m 1,64,-1
 1280 256 l 1,65,-1
 1536 256 l 1,66,-1
 1536 0 l 1,67,-1
 1280 0 l 1,64,-1
EndSplineSet
Validated: 3077
EndChar

StartChar: two
Encoding: 50 50 15
Width: 2048
GlyphClass: 1
Flags: W
LayerCount: 2
Fore
SplineSet
0 0 m 1,0,-1
 0 512 l 1,1,-1
 256 512 l 1,2,-1
 256 768 l 1,3,-1
 1024 768 l 1,4,-1
 1024 512 l 1,5,-1
 512 512 l 1,6,-1
 512 256 l 1,7,-1
 1792 256 l 1,8,-1
 1792 0 l 1,9,-1
 0 0 l 1,0,-1
1024 768 m 1,10,-1
 1024 1024 l 1,11,-1
 1280 1024 l 1,12,-1
 1280 1536 l 1,13,-1
 512 1536 l 1,14,-1
 512 1024 l 1,15,-1
 0 1024 l 1,16,-1
 0 1536 l 1,17,-1
 256 1536 l 1,18,-1
 256 1792 l 1,19,-1
 1536 1792 l 1,20,-1
 1536 1536 l 1,21,-1
 1792 1536 l 1,22,-1
 1792 1024 l 1,23,-1
 1536 1024 l 1,24,-1
 1536 768 l 1,25,-1
 1024 768 l 1,10,-1
EndSplineSet
Validated: 5
EndChar

StartChar: three
Encoding: 51 51 16
Width: 2048
GlyphClass: 1
Flags: W
LayerCount: 2
Fore
SplineSet
256 0 m 1,0,-1
 256 256 l 1,1,-1
 0 256 l 1,2,-1
 0 768 l 1,3,-1
 512 768 l 1,4,-1
 512 256 l 1,5,-1
 1280 256 l 1,6,-1
 1280 768 l 1,7,-1
 768 768 l 1,8,-1
 768 1024 l 1,9,-1
 1280 1024 l 1,10,-1
 1280 1536 l 1,11,-1
 512 1536 l 1,12,-1
 512 1024 l 1,13,-1
 0 1024 l 1,14,-1
 0 1536 l 1,15,-1
 256 1536 l 1,16,-1
 256 1792 l 1,17,-1
 1536 1792 l 1,18,-1
 1536 1536 l 1,19,-1
 1792 1536 l 1,20,-1
 1792 1024 l 1,21,-1
 1536 1024 l 1,22,-1
 1536 768 l 1,23,-1
 1792 768 l 1,24,-1
 1792 256 l 1,25,-1
 1536 256 l 1,26,-1
 1536 0 l 1,27,-1
 256 0 l 1,0,-1
EndSplineSet
Validated: 1
EndChar

StartChar: four
Encoding: 52 52 17
Width: 2048
GlyphClass: 1
Flags: W
LayerCount: 2
Fore
SplineSet
512 1024 m 1,0,-1
 512 1280 l 1,1,-1
 768 1280 l 1,2,-1
 768 1024 l 1,3,-1
 512 1024 l 1,0,-1
1024 0 m 1,4,-1
 1024 256 l 1,5,-1
 0 256 l 1,6,-1
 0 768 l 1,7,-1
 256 768 l 1,8,-1
 256 1024 l 1,9,-1
 512 1024 l 1,10,-1
 512 512 l 1,11,-1
 1024 512 l 1,12,-1
 1024 1280 l 1,13,-1
 768 1280 l 1,14,-1
 768 1536 l 1,15,-1
 1024 1536 l 1,16,-1
 1024 1792 l 1,17,-1
 1536 1792 l 1,18,-1
 1536 512 l 1,19,-1
 1792 512 l 1,20,-1
 1792 256 l 1,21,-1
 1536 256 l 1,22,-1
 1536 0 l 1,23,-1
 1024 0 l 1,4,-1
EndSplineSet
Validated: 5
EndChar

StartChar: five
Encoding: 53 53 18
Width: 2048
GlyphClass: 1
Flags: W
LayerCount: 2
Fore
SplineSet
0 0 m 1,0,-1
 0 256 l 1,1,-1
 1280 256 l 1,2,-1
 1280 768 l 1,3,-1
 0 768 l 1,4,-1
 0 1792 l 1,5,-1
 1536 1792 l 1,6,-1
 1536 1536 l 1,7,-1
 512 1536 l 1,8,-1
 512 1024 l 1,9,-1
 1536 1024 l 1,10,-1
 1536 768 l 1,11,-1
 1792 768 l 1,12,-1
 1792 256 l 1,13,-1
 1536 256 l 1,14,-1
 1536 0 l 1,15,-1
 0 0 l 1,0,-1
EndSplineSet
Validated: 1
EndChar

StartChar: six
Encoding: 54 54 19
Width: 2048
GlyphClass: 1
Flags: W
LayerCount: 2
Fore
SplineSet
1280 256 m 1,0,-1
 1280 768 l 1,1,-1
 512 768 l 1,2,-1
 512 256 l 1,3,-1
 1280 256 l 1,0,-1
256 0 m 1,4,-1
 256 256 l 1,5,-1
 0 256 l 1,6,-1
 0 1536 l 1,7,-1
 256 1536 l 1,8,-1
 256 1792 l 1,9,-1
 1536 1792 l 1,10,-1
 1536 1536 l 1,11,-1
 512 1536 l 1,12,-1
 512 1024 l 1,13,-1
 1536 1024 l 1,14,-1
 1536 768 l 1,15,-1
 1792 768 l 1,16,-1
 1792 256 l 1,17,-1
 1536 256 l 1,18,-1
 1536 0 l 1,19,-1
 256 0 l 1,4,-1
EndSplineSet
Validated: 1
EndChar

StartChar: seven
Encoding: 55 55 20
Width: 2048
GlyphClass: 1
Flags: W
LayerCount: 2
Fore
SplineSet
512 0 m 1,0,-1
 512 768 l 1,1,-1
 768 768 l 1,2,-1
 768 1024 l 1,3,-1
 1280 1024 l 1,4,-1
 1280 768 l 1,5,-1
 1024 768 l 1,6,-1
 1024 0 l 1,7,-1
 512 0 l 1,0,-1
1280 1024 m 1,8,-1
 1280 1536 l 1,9,-1
 512 1536 l 1,10,-1
 512 1280 l 1,11,-1
 0 1280 l 1,12,-1
 0 1792 l 1,13,-1
 1792 1792 l 1,14,-1
 1792 1024 l 1,15,-1
 1280 1024 l 1,8,-1
EndSplineSet
Validated: 5
EndChar

StartChar: eight
Encoding: 56 56 21
Width: 2048
GlyphClass: 1
Flags: W
LayerCount: 2
Fore
SplineSet
1280 256 m 1,0,-1
 1280 768 l 1,1,-1
 512 768 l 1,2,-1
 512 256 l 1,3,-1
 1280 256 l 1,0,-1
1280 1024 m 1,4,-1
 1280 1536 l 1,5,-1
 512 1536 l 1,6,-1
 512 1024 l 1,7,-1
 1280 1024 l 1,4,-1
256 0 m 1,8,-1
 256 256 l 1,9,-1
 0 256 l 1,10,-1
 0 768 l 1,11,-1
 256 768 l 1,12,-1
 256 1024 l 1,13,-1
 0 1024 l 1,14,-1
 0 1536 l 1,15,-1
 256 1536 l 1,16,-1
 256 1792 l 1,17,-1
 1536 1792 l 1,18,-1
 1536 1536 l 1,19,-1
 1792 1536 l 1,20,-1
 1792 1024 l 1,21,-1
 1536 1024 l 1,22,-1
 1536 768 l 1,23,-1
 1792 768 l 1,24,-1
 1792 256 l 1,25,-1
 1536 256 l 1,26,-1
 1536 0 l 1,27,-1
 256 0 l 1,8,-1
EndSplineSet
Validated: 1
EndChar

StartChar: nine
Encoding: 57 57 22
Width: 2048
GlyphClass: 1
Flags: W
LayerCount: 2
Fore
SplineSet
1280 1024 m 1,0,-1
 1280 1536 l 1,1,-1
 512 1536 l 1,2,-1
 512 1024 l 1,3,-1
 1280 1024 l 1,0,-1
256 0 m 1,4,-1
 256 256 l 1,5,-1
 1280 256 l 1,6,-1
 1280 768 l 1,7,-1
 256 768 l 1,8,-1
 256 1024 l 1,9,-1
 0 1024 l 1,10,-1
 0 1536 l 1,11,-1
 256 1536 l 1,12,-1
 256 1792 l 1,13,-1
 1536 1792 l 1,14,-1
 1536 1536 l 1,15,-1
 1792 1536 l 1,16,-1
 1792 256 l 1,17,-1
 1536 256 l 1,18,-1
 1536 0 l 1,19,-1
 256 0 l 1,4,-1
EndSplineSet
Validated: 1
EndChar

StartChar: colon
Encoding: 58 58 23
Width: 2048
GlyphClass: 1
Flags: W
LayerCount: 2
Fore
SplineSet
768 256 m 1,0,-1
 768 768 l 1,1,-1
 1280 768 l 1,2,-1
 1280 256 l 1,3,-1
 768 256 l 1,0,-1
768 1024 m 1,4,-1
 768 1536 l 1,5,-1
 1280 1536 l 1,6,-1
 1280 1024 l 1,7,-1
 768 1024 l 1,4,-1
EndSplineSet
Validated: 1
EndChar

StartChar: semicolon
Encoding: 59 59 24
Width: 1024
GlyphClass: 1
Flags: W
LayerCount: 2
Fore
SplineSet
256 0 m 1,0,-1
 256 256 l 1,1,-1
 512 256 l 1,2,-1
 512 0 l 1,3,-1
 256 0 l 1,0,-1
512 256 m 1,4,-1
 512 512 l 1,5,-1
 256 512 l 1,6,-1
 256 1024 l 1,7,-1
 768 1024 l 1,8,-1
 768 256 l 1,9,-1
 512 256 l 1,4,-1
256 1280 m 1,10,-1
 256 1792 l 1,11,-1
 768 1792 l 1,12,-1
 768 1280 l 1,13,-1
 256 1280 l 1,10,-1
EndSplineSet
Validated: 5
EndChar

StartChar: equal
Encoding: 61 61 25
Width: 2048
GlyphClass: 1
Flags: W
LayerCount: 2
Fore
SplineSet
256 512 m 1,0,-1
 256 768 l 1,1,-1
 1536 768 l 1,2,-1
 1536 512 l 1,3,-1
 256 512 l 1,0,-1
256 1024 m 1,4,-1
 256 1280 l 1,5,-1
 1536 1280 l 1,6,-1
 1536 1024 l 1,7,-1
 256 1024 l 1,4,-1
EndSplineSet
Validated: 1
EndChar

StartChar: question
Encoding: 63 63 26
Width: 2048
GlyphClass: 1
Flags: W
LayerCount: 2
Fore
SplineSet
512 0 m 1,0,-1
 512 256 l 1,1,-1
 1024 256 l 1,2,-1
 1024 0 l 1,3,-1
 512 0 l 1,0,-1
512 512 m 1,4,-1
 512 1024 l 1,5,-1
 1280 1024 l 1,6,-1
 1280 1536 l 1,7,-1
 512 1536 l 1,8,-1
 512 1024 l 1,9,-1
 0 1024 l 1,10,-1
 0 1536 l 1,11,-1
 256 1536 l 1,12,-1
 256 1792 l 1,13,-1
 1536 1792 l 1,14,-1
 1536 1536 l 1,15,-1
 1792 1536 l 1,16,-1
 1792 1024 l 1,17,-1
 1536 1024 l 1,18,-1
 1536 768 l 1,19,-1
 1024 768 l 1,20,-1
 1024 512 l 1,21,-1
 512 512 l 1,4,-1
EndSplineSet
Validated: 5
EndChar

StartChar: A
Encoding: 65 65 27
Width: 2048
GlyphClass: 1
Flags: W
LayerCount: 2
Fore
SplineSet
1280 768 m 1,0,-1
 1280 1280 l 1,1,-1
 1024 1280 l 1,2,-1
 1024 1536 l 1,3,-1
 768 1536 l 1,4,-1
 768 1280 l 1,5,-1
 512 1280 l 1,6,-1
 512 768 l 1,7,-1
 1280 768 l 1,0,-1
0 0 m 1,8,-1
 0 1280 l 1,9,-1
 256 1280 l 1,10,-1
 256 1536 l 1,11,-1
 512 1536 l 1,12,-1
 512 1792 l 1,13,-1
 1280 1792 l 1,14,-1
 1280 1536 l 1,15,-1
 1536 1536 l 1,16,-1
 1536 1280 l 1,17,-1
 1792 1280 l 1,18,-1
 1792 0 l 1,19,-1
 1280 0 l 1,20,-1
 1280 512 l 1,21,-1
 512 512 l 1,22,-1
 512 0 l 1,23,-1
 0 0 l 1,8,-1
EndSplineSet
Validated: 1
EndChar

StartChar: B
Encoding: 66 66 28
Width: 2048
GlyphClass: 1
Flags: W
LayerCount: 2
Fore
SplineSet
1280 256 m 1,0,-1
 1280 768 l 1,1,-1
 512 768 l 1,2,-1
 512 256 l 1,3,-1
 1280 256 l 1,0,-1
1024 1024 m 1,4,-1
 1024 1536 l 1,5,-1
 512 1536 l 1,6,-1
 512 1024 l 1,7,-1
 1024 1024 l 1,4,-1
0 0 m 1,8,-1
 0 1792 l 1,9,-1
 1280 1792 l 1,10,-1
 1280 1536 l 1,11,-1
 1536 1536 l 1,12,-1
 1536 768 l 1,13,-1
 1792 768 l 1,14,-1
 1792 256 l 1,15,-1
 1536 256 l 1,16,-1
 1536 0 l 1,17,-1
 0 0 l 1,8,-1
EndSplineSet
Validated: 1
EndChar

StartChar: C
Encoding: 67 67 29
Width: 2048
GlyphClass: 1
Flags: W
LayerCount: 2
Fore
SplineSet
256 0 m 1,0,-1
 256 256 l 1,1,-1
 0 256 l 1,2,-1
 0 1536 l 1,3,-1
 256 1536 l 1,4,-1
 256 1792 l 1,5,-1
 1536 1792 l 1,6,-1
 1536 1536 l 1,7,-1
 1792 1536 l 1,8,-1
 1792 1280 l 1,9,-1
 1280 1280 l 1,10,-1
 1280 1536 l 1,11,-1
 512 1536 l 1,12,-1
 512 256 l 1,13,-1
 1280 256 l 1,14,-1
 1280 512 l 1,15,-1
 1792 512 l 1,16,-1
 1792 256 l 1,17,-1
 1536 256 l 1,18,-1
 1536 0 l 1,19,-1
 256 0 l 1,0,-1
EndSplineSet
Validated: 1
EndChar

StartChar: D
Encoding: 68 68 30
Width: 2048
GlyphClass: 1
Flags: W
LayerCount: 2
Fore
SplineSet
1280 256 m 1,0,-1
 1280 1536 l 1,1,-1
 1536 1536 l 1,2,-1
 1536 1280 l 1,3,-1
 1792 1280 l 1,4,-1
 1792 512 l 1,5,-1
 1536 512 l 1,6,-1
 1536 256 l 1,7,-1
 1280 256 l 1,0,-1
0 0 m 1,8,-1
 0 1792 l 1,9,-1
 1280 1792 l 1,10,-1
 1280 1536 l 1,11,-1
 512 1536 l 1,12,-1
 512 256 l 1,13,-1
 1280 256 l 1,14,-1
 1280 0 l 1,15,-1
 0 0 l 1,8,-1
EndSplineSet
Validated: 5
EndChar

StartChar: E
Encoding: 69 69 31
Width: 2048
GlyphClass: 1
Flags: W
LayerCount: 2
Fore
SplineSet
0 0 m 1,0,-1
 0 1792 l 1,1,-1
 1792 1792 l 1,2,-1
 1792 1536 l 1,3,-1
 512 1536 l 1,4,-1
 512 1024 l 1,5,-1
 1536 1024 l 1,6,-1
 1536 768 l 1,7,-1
 512 768 l 1,8,-1
 512 256 l 1,9,-1
 1792 256 l 1,10,-1
 1792 0 l 1,11,-1
 0 0 l 1,0,-1
EndSplineSet
Validated: 1
EndChar

StartChar: F
Encoding: 70 70 32
Width: 2048
GlyphClass: 1
Flags: W
LayerCount: 2
Fore
SplineSet
0 0 m 1,0,-1
 0 1792 l 1,1,-1
 1792 1792 l 1,2,-1
 1792 1536 l 1,3,-1
 512 1536 l 1,4,-1
 512 1024 l 1,5,-1
 1536 1024 l 1,6,-1
 1536 768 l 1,7,-1
 512 768 l 1,8,-1
 512 0 l 1,9,-1
 0 0 l 1,0,-1
EndSplineSet
Validated: 1
EndChar

StartChar: G
Encoding: 71 71 33
Width: 2048
GlyphClass: 1
Flags: W
LayerCount: 2
Fore
SplineSet
256 0 m 1,0,-1
 256 256 l 1,1,-1
 0 256 l 1,2,-1
 0 1536 l 1,3,-1
 256 1536 l 1,4,-1
 256 1792 l 1,5,-1
 1536 1792 l 1,6,-1
 1536 1536 l 1,7,-1
 1792 1536 l 1,8,-1
 1792 1024 l 1,9,-1
 1280 1024 l 1,10,-1
 1280 1536 l 1,11,-1
 512 1536 l 1,12,-1
 512 256 l 1,13,-1
 1280 256 l 1,14,-1
 1280 512 l 1,15,-1
 768 512 l 1,16,-1
 768 768 l 1,17,-1
 1792 768 l 1,18,-1
 1792 0 l 1,19,-1
 256 0 l 1,0,-1
EndSplineSet
Validated: 1
EndChar

StartChar: H
Encoding: 72 72 34
Width: 2048
GlyphClass: 1
Flags: W
LayerCount: 2
Fore
SplineSet
0 0 m 1,0,-1
 0 1792 l 1,1,-1
 512 1792 l 1,2,-1
 512 1024 l 1,3,-1
 1280 1024 l 1,4,-1
 1280 1792 l 1,5,-1
 1792 1792 l 1,6,-1
 1792 0 l 1,7,-1
 1280 0 l 1,8,-1
 1280 768 l 1,9,-1
 512 768 l 1,10,-1
 512 0 l 1,11,-1
 0 0 l 1,0,-1
EndSplineSet
Validated: 1
EndChar

StartChar: I
Encoding: 73 73 35
Width: 2048
GlyphClass: 1
LayerCount: 2
Fore
SplineSet
256 1536 m 1,0,-1
 256 1792 l 1,1,-1
 512 1792 l 1,2,-1
 512 1536 l 1,3,-1
 256 1536 l 1,0,-1
512 1536 m 1,4,-1
 512 1792 l 1,5,-1
 768 1792 l 1,6,-1
 768 1536 l 1,7,-1
 512 1536 l 1,4,-1
768 1536 m 1,8,-1
 768 1792 l 1,9,-1
 1024 1792 l 1,10,-1
 1024 1536 l 1,11,-1
 768 1536 l 1,8,-1
1024 1536 m 1,12,-1
 1024 1792 l 1,13,-1
 1280 1792 l 1,14,-1
 1280 1536 l 1,15,-1
 1024 1536 l 1,12,-1
1280 1536 m 1,16,-1
 1280 1792 l 1,17,-1
 1536 1792 l 1,18,-1
 1536 1536 l 1,19,-1
 1280 1536 l 1,16,-1
1536 1536 m 1,20,-1
 1536 1792 l 1,21,-1
 1792 1792 l 1,22,-1
 1792 1536 l 1,23,-1
 1536 1536 l 1,20,-1
768 1280 m 1,24,-1
 768 1536 l 1,25,-1
 1024 1536 l 1,26,-1
 1024 1280 l 1,27,-1
 768 1280 l 1,24,-1
1024 1280 m 1,28,-1
 1024 1536 l 1,29,-1
 1280 1536 l 1,30,-1
 1280 1280 l 1,31,-1
 1024 1280 l 1,28,-1
768 1024 m 1,32,-1
 768 1280 l 1,33,-1
 1024 1280 l 1,34,-1
 1024 1024 l 1,35,-1
 768 1024 l 1,32,-1
1024 1024 m 1,36,-1
 1024 1280 l 1,37,-1
 1280 1280 l 1,38,-1
 1280 1024 l 1,39,-1
 1024 1024 l 1,36,-1
768 768 m 1,40,-1
 768 1024 l 1,41,-1
 1024 1024 l 1,42,-1
 1024 768 l 1,43,-1
 768 768 l 1,40,-1
1024 768 m 1,44,-1
 1024 1024 l 1,45,-1
 1280 1024 l 1,46,-1
 1280 768 l 1,47,-1
 1024 768 l 1,44,-1
768 512 m 1,48,-1
 768 768 l 1,49,-1
 1024 768 l 1,50,-1
 1024 512 l 1,51,-1
 768 512 l 1,48,-1
1024 512 m 1,52,-1
 1024 768 l 1,53,-1
 1280 768 l 1,54,-1
 1280 512 l 1,55,-1
 1024 512 l 1,52,-1
768 256 m 1,56,-1
 768 512 l 1,57,-1
 1024 512 l 1,58,-1
 1024 256 l 1,59,-1
 768 256 l 1,56,-1
1024 256 m 1,60,-1
 1024 512 l 1,61,-1
 1280 512 l 1,62,-1
 1280 256 l 1,63,-1
 1024 256 l 1,60,-1
256 0 m 1,64,-1
 256 256 l 1,65,-1
 512 256 l 1,66,-1
 512 0 l 1,67,-1
 256 0 l 1,64,-1
512 0 m 1,68,-1
 512 256 l 1,69,-1
 768 256 l 1,70,-1
 768 0 l 1,71,-1
 512 0 l 1,68,-1
768 0 m 1,72,-1
 768 256 l 1,73,-1
 1024 256 l 1,74,-1
 1024 0 l 1,75,-1
 768 0 l 1,72,-1
1024 0 m 1,76,-1
 1024 256 l 1,77,-1
 1280 256 l 1,78,-1
 1280 0 l 1,79,-1
 1024 0 l 1,76,-1
1280 0 m 1,80,-1
 1280 256 l 1,81,-1
 1536 256 l 1,82,-1
 1536 0 l 1,83,-1
 1280 0 l 1,80,-1
1536 0 m 1,84,-1
 1536 256 l 1,85,-1
 1792 256 l 1,86,-1
 1792 0 l 1,87,-1
 1536 0 l 1,84,-1
EndSplineSet
Validated: 3077
EndChar

StartChar: J
Encoding: 74 74 36
Width: 2048
GlyphClass: 1
Flags: W
LayerCount: 2
Fore
SplineSet
256 0 m 1,0,-1
 256 256 l 1,1,-1
 0 256 l 1,2,-1
 0 768 l 1,3,-1
 512 768 l 1,4,-1
 512 256 l 1,5,-1
 1024 256 l 1,6,-1
 1024 1536 l 1,7,-1
 512 1536 l 1,8,-1
 512 1792 l 1,9,-1
 1792 1792 l 1,10,-1
 1792 1536 l 1,11,-1
 1536 1536 l 1,12,-1
 1536 256 l 1,13,-1
 1280 256 l 1,14,-1
 1280 0 l 1,15,-1
 256 0 l 1,0,-1
EndSplineSet
Validated: 1
EndChar

StartChar: K
Encoding: 75 75 37
Width: 2048
GlyphClass: 1
Flags: W
LayerCount: 2
Fore
SplineSet
0 0 m 1,0,-1
 0 1792 l 1,1,-1
 512 1792 l 1,2,-1
 512 1024 l 1,3,-1
 768 1024 l 1,4,-1
 768 1280 l 1,5,-1
 1024 1280 l 1,6,-1
 1024 1536 l 1,7,-1
 1280 1536 l 1,8,-1
 1280 1792 l 1,9,-1
 1792 1792 l 1,10,-1
 1792 1536 l 1,11,-1
 1536 1536 l 1,12,-1
 1536 1280 l 1,13,-1
 1280 1280 l 1,14,-1
 1280 768 l 1,15,-1
 1536 768 l 1,16,-1
 1536 512 l 1,17,-1
 1792 512 l 1,18,-1
 1792 0 l 1,19,-1
 1280 0 l 1,20,-1
 1280 512 l 1,21,-1
 1024 512 l 1,22,-1
 1024 768 l 1,23,-1
 512 768 l 1,24,-1
 512 0 l 1,25,-1
 0 0 l 1,0,-1
EndSplineSet
Validated: 1
EndChar

StartChar: L
Encoding: 76 76 38
Width: 2048
GlyphClass: 1
LayerCount: 2
Fore
SplineSet
0 1536 m 1,0,-1
 0 1792 l 1,1,-1
 256 1792 l 1,2,-1
 256 1536 l 1,3,-1
 0 1536 l 1,0,-1
256 1536 m 1,4,-1
 256 1792 l 1,5,-1
 512 1792 l 1,6,-1
 512 1536 l 1,7,-1
 256 1536 l 1,4,-1
0 1280 m 1,8,-1
 0 1536 l 1,9,-1
 256 1536 l 1,10,-1
 256 1280 l 1,11,-1
 0 1280 l 1,8,-1
256 1280 m 1,12,-1
 256 1536 l 1,13,-1
 512 1536 l 1,14,-1
 512 1280 l 1,15,-1
 256 1280 l 1,12,-1
0 1024 m 1,16,-1
 0 1280 l 1,17,-1
 256 1280 l 1,18,-1
 256 1024 l 1,19,-1
 0 1024 l 1,16,-1
256 1024 m 1,20,-1
 256 1280 l 1,21,-1
 512 1280 l 1,22,-1
 512 1024 l 1,23,-1
 256 1024 l 1,20,-1
0 768 m 1,24,-1
 0 1024 l 1,25,-1
 256 1024 l 1,26,-1
 256 768 l 1,27,-1
 0 768 l 1,24,-1
256 768 m 1,28,-1
 256 1024 l 1,29,-1
 512 1024 l 1,30,-1
 512 768 l 1,31,-1
 256 768 l 1,28,-1
0 512 m 1,32,-1
 0 768 l 1,33,-1
 256 768 l 1,34,-1
 256 512 l 1,35,-1
 0 512 l 1,32,-1
256 512 m 1,36,-1
 256 768 l 1,37,-1
 512 768 l 1,38,-1
 512 512 l 1,39,-1
 256 512 l 1,36,-1
0 256 m 1,40,-1
 0 512 l 1,41,-1
 256 512 l 1,42,-1
 256 256 l 1,43,-1
 0 256 l 1,40,-1
256 256 m 1,44,-1
 256 512 l 1,45,-1
 512 512 l 1,46,-1
 512 256 l 1,47,-1
 256 256 l 1,44,-1
0 0 m 1,48,-1
 0 256 l 1,49,-1
 256 256 l 1,50,-1
 256 0 l 1,51,-1
 0 0 l 1,48,-1
256 0 m 1,52,-1
 256 256 l 1,53,-1
 512 256 l 1,54,-1
 512 0 l 1,55,-1
 256 0 l 1,52,-1
512 0 m 1,56,-1
 512 256 l 1,57,-1
 768 256 l 1,58,-1
 768 0 l 1,59,-1
 512 0 l 1,56,-1
768 0 m 1,60,-1
 768 256 l 1,61,-1
 1024 256 l 1,62,-1
 1024 0 l 1,63,-1
 768 0 l 1,60,-1
1024 0 m 1,64,-1
 1024 256 l 1,65,-1
 1280 256 l 1,66,-1
 1280 0 l 1,67,-1
 1024 0 l 1,64,-1
1280 0 m 1,68,-1
 1280 256 l 1,69,-1
 1536 256 l 1,70,-1
 1536 0 l 1,71,-1
 1280 0 l 1,68,-1
1536 0 m 1,72,-1
 1536 256 l 1,73,-1
 1792 256 l 1,74,-1
 1792 0 l 1,75,-1
 1536 0 l 1,72,-1
EndSplineSet
Validated: 3077
EndChar

StartChar: M
Encoding: 77 77 39
Width: 2048
GlyphClass: 1
Flags: W
LayerCount: 2
Fore
SplineSet
0 0 m 1,0,-1
 0 1792 l 1,1,-1
 512 1792 l 1,2,-1
 512 1536 l 1,3,-1
 768 1536 l 1,4,-1
 768 1024 l 1,5,-1
 1024 1024 l 1,6,-1
 1024 1536 l 1,7,-1
 1280 1536 l 1,8,-1
 1280 1792 l 1,9,-1
 1792 1792 l 1,10,-1
 1792 0 l 1,11,-1
 1280 0 l 1,12,-1
 1280 768 l 1,13,-1
 1024 768 l 1,14,-1
 1024 512 l 1,15,-1
 768 512 l 1,16,-1
 768 768 l 1,17,-1
 512 768 l 1,18,-1
 512 0 l 1,19,-1
 0 0 l 1,0,-1
EndSplineSet
Validated: 1
EndChar

StartChar: N
Encoding: 78 78 40
Width: 2048
GlyphClass: 1
Flags: W
LayerCount: 2
Fore
SplineSet
0 0 m 1,0,-1
 0 1792 l 1,1,-1
 512 1792 l 1,2,-1
 512 1536 l 1,3,-1
 768 1536 l 1,4,-1
 768 1280 l 1,5,-1
 1024 1280 l 1,6,-1
 1024 768 l 1,7,-1
 1280 768 l 1,8,-1
 1280 1792 l 1,9,-1
 1792 1792 l 1,10,-1
 1792 0 l 1,11,-1
 1280 0 l 1,12,-1
 1280 256 l 1,13,-1
 1024 256 l 1,14,-1
 1024 512 l 1,15,-1
 768 512 l 1,16,-1
 768 1024 l 1,17,-1
 512 1024 l 1,18,-1
 512 0 l 1,19,-1
 0 0 l 1,0,-1
EndSplineSet
Validated: 1
EndChar

StartChar: O
Encoding: 79 79 41
Width: 2048
GlyphClass: 1
Flags: W
LayerCount: 2
Fore
SplineSet
1280 256 m 1,0,-1
 1280 1536 l 1,1,-1
 512 1536 l 1,2,-1
 512 256 l 1,3,-1
 1280 256 l 1,0,-1
256 0 m 1,4,-1
 256 256 l 1,5,-1
 0 256 l 1,6,-1
 0 1536 l 1,7,-1
 256 1536 l 1,8,-1
 256 1792 l 1,9,-1
 1536 1792 l 1,10,-1
 1536 1536 l 1,11,-1
 1792 1536 l 1,12,-1
 1792 256 l 1,13,-1
 1536 256 l 1,14,-1
 1536 0 l 1,15,-1
 256 0 l 1,4,-1
EndSplineSet
Validated: 1
EndChar

StartChar: P
Encoding: 80 80 42
Width: 2048
GlyphClass: 1
Flags: W
LayerCount: 2
Fore
SplineSet
1280 768 m 1,0,-1
 1280 1536 l 1,1,-1
 512 1536 l 1,2,-1
 512 768 l 1,3,-1
 1280 768 l 1,0,-1
0 0 m 1,4,-1
 0 1792 l 1,5,-1
 1536 1792 l 1,6,-1
 1536 1536 l 1,7,-1
 1792 1536 l 1,8,-1
 1792 768 l 1,9,-1
 1536 768 l 1,10,-1
 1536 512 l 1,11,-1
 512 512 l 1,12,-1
 512 0 l 1,13,-1
 0 0 l 1,4,-1
EndSplineSet
Validated: 1
EndChar

StartChar: Q
Encoding: 81 81 43
Width: 2048
GlyphClass: 1
Flags: W
LayerCount: 2
Fore
SplineSet
256 0 m 1,0,-1
 256 256 l 1,1,-1
 0 256 l 1,2,-1
 0 1536 l 1,3,-1
 256 1536 l 1,4,-1
 256 1792 l 1,5,-1
 1536 1792 l 1,6,-1
 1536 1536 l 1,7,-1
 1792 1536 l 1,8,-1
 1792 512 l 1,9,-1
 1536 512 l 1,10,-1
 1536 256 l 1,11,-1
 1792 256 l 1,12,-1
 1792 0 l 1,13,-1
 1280 0 l 1,14,-1
 1280 256 l 1,15,-1
 1024 256 l 1,16,-1
 1024 512 l 1,17,-1
 768 512 l 1,18,-1
 768 768 l 1,19,-1
 1280 768 l 1,20,-1
 1280 1536 l 1,21,-1
 512 1536 l 1,22,-1
 512 256 l 1,23,-1
 1024 256 l 1,24,-1
 1024 0 l 1,25,-1
 256 0 l 1,0,-1
EndSplineSet
Validated: 5
EndChar

StartChar: R
Encoding: 82 82 44
Width: 2048
GlyphClass: 1
Flags: W
LayerCount: 2
Fore
SplineSet
1280 768 m 1,0,-1
 1280 1536 l 1,1,-1
 512 1536 l 1,2,-1
 512 768 l 1,3,-1
 1280 768 l 1,0,-1
0 0 m 1,4,-1
 0 1792 l 1,5,-1
 1536 1792 l 1,6,-1
 1536 1536 l 1,7,-1
 1792 1536 l 1,8,-1
 1792 768 l 1,9,-1
 1536 768 l 1,10,-1
 1536 512 l 1,11,-1
 1792 512 l 1,12,-1
 1792 0 l 1,13,-1
 1280 0 l 1,14,-1
 1280 512 l 1,15,-1
 512 512 l 1,16,-1
 512 0 l 1,17,-1
 0 0 l 1,4,-1
EndSplineSet
Validated: 1
EndChar

StartChar: S
Encoding: 83 83 45
Width: 2048
GlyphClass: 1
Flags: W
LayerCount: 2
Fore
SplineSet
256 0 m 1,0,-1
 256 256 l 1,1,-1
 0 256 l 1,2,-1
 0 512 l 1,3,-1
 512 512 l 1,4,-1
 512 256 l 1,5,-1
 1280 256 l 1,6,-1
 1280 768 l 1,7,-1
 256 768 l 1,8,-1
 256 1024 l 1,9,-1
 0 1024 l 1,10,-1
 0 1536 l 1,11,-1
 256 1536 l 1,12,-1
 256 1792 l 1,13,-1
 1536 1792 l 1,14,-1
 1536 1536 l 1,15,-1
 1792 1536 l 1,16,-1
 1792 1280 l 1,17,-1
 1280 1280 l 1,18,-1
 1280 1536 l 1,19,-1
 512 1536 l 1,20,-1
 512 1024 l 1,21,-1
 1536 1024 l 1,22,-1
 1536 768 l 1,23,-1
 1792 768 l 1,24,-1
 1792 256 l 1,25,-1
 1536 256 l 1,26,-1
 1536 0 l 1,27,-1
 256 0 l 1,0,-1
EndSplineSet
Validated: 1
EndChar

StartChar: T
Encoding: 84 84 46
Width: 2048
GlyphClass: 1
LayerCount: 2
Fore
SplineSet
256 1536 m 1,0,-1
 256 1792 l 1,1,-1
 512 1792 l 1,2,-1
 512 1536 l 1,3,-1
 256 1536 l 1,0,-1
512 1536 m 1,4,-1
 512 1792 l 1,5,-1
 768 1792 l 1,6,-1
 768 1536 l 1,7,-1
 512 1536 l 1,4,-1
768 1536 m 1,8,-1
 768 1792 l 1,9,-1
 1024 1792 l 1,10,-1
 1024 1536 l 1,11,-1
 768 1536 l 1,8,-1
1024 1536 m 1,12,-1
 1024 1792 l 1,13,-1
 1280 1792 l 1,14,-1
 1280 1536 l 1,15,-1
 1024 1536 l 1,12,-1
1280 1536 m 1,16,-1
 1280 1792 l 1,17,-1
 1536 1792 l 1,18,-1
 1536 1536 l 1,19,-1
 1280 1536 l 1,16,-1
1536 1536 m 1,20,-1
 1536 1792 l 1,21,-1
 1792 1792 l 1,22,-1
 1792 1536 l 1,23,-1
 1536 1536 l 1,20,-1
768 1280 m 1,24,-1
 768 1536 l 1,25,-1
 1024 1536 l 1,26,-1
 1024 1280 l 1,27,-1
 768 1280 l 1,24,-1
1024 1280 m 1,28,-1
 1024 1536 l 1,29,-1
 1280 1536 l 1,30,-1
 1280 1280 l 1,31,-1
 1024 1280 l 1,28,-1
768 1024 m 1,32,-1
 768 1280 l 1,33,-1
 1024 1280 l 1,34,-1
 1024 1024 l 1,35,-1
 768 1024 l 1,32,-1
1024 1024 m 1,36,-1
 1024 1280 l 1,37,-1
 1280 1280 l 1,38,-1
 1280 1024 l 1,39,-1
 1024 1024 l 1,36,-1
768 768 m 1,40,-1
 768 1024 l 1,41,-1
 1024 1024 l 1,42,-1
 1024 768 l 1,43,-1
 768 768 l 1,40,-1
1024 768 m 1,44,-1
 1024 1024 l 1,45,-1
 1280 1024 l 1,46,-1
 1280 768 l 1,47,-1
 1024 768 l 1,44,-1
768 512 m 1,48,-1
 768 768 l 1,49,-1
 1024 768 l 1,50,-1
 1024 512 l 1,51,-1
 768 512 l 1,48,-1
1024 512 m 1,52,-1
 1024 768 l 1,53,-1
 1280 768 l 1,54,-1
 1280 512 l 1,55,-1
 1024 512 l 1,52,-1
768 256 m 1,56,-1
 768 512 l 1,57,-1
 1024 512 l 1,58,-1
 1024 256 l 1,59,-1
 768 256 l 1,56,-1
1024 256 m 1,60,-1
 1024 512 l 1,61,-1
 1280 512 l 1,62,-1
 1280 256 l 1,63,-1
 1024 256 l 1,60,-1
768 0 m 1,64,-1
 768 256 l 1,65,-1
 1024 256 l 1,66,-1
 1024 0 l 1,67,-1
 768 0 l 1,64,-1
1024 0 m 1,68,-1
 1024 256 l 1,69,-1
 1280 256 l 1,70,-1
 1280 0 l 1,71,-1
 1024 0 l 1,68,-1
EndSplineSet
Validated: 3077
EndChar

StartChar: U
Encoding: 85 85 47
Width: 2048
GlyphClass: 1
Flags: W
LayerCount: 2
Fore
SplineSet
256 0 m 1,0,-1
 256 256 l 1,1,-1
 0 256 l 1,2,-1
 0 1792 l 1,3,-1
 512 1792 l 1,4,-1
 512 256 l 1,5,-1
 1280 256 l 1,6,-1
 1280 1792 l 1,7,-1
 1792 1792 l 1,8,-1
 1792 256 l 1,9,-1
 1536 256 l 1,10,-1
 1536 0 l 1,11,-1
 256 0 l 1,0,-1
EndSplineSet
Validated: 1
EndChar

StartChar: V
Encoding: 86 86 48
Width: 2048
GlyphClass: 1
Flags: W
LayerCount: 2
Fore
SplineSet
512 0 m 1,0,-1
 512 256 l 1,1,-1
 256 256 l 1,2,-1
 256 768 l 1,3,-1
 0 768 l 1,4,-1
 0 1792 l 1,5,-1
 512 1792 l 1,6,-1
 512 768 l 1,7,-1
 768 768 l 1,8,-1
 768 256 l 1,9,-1
 1024 256 l 1,10,-1
 1024 768 l 1,11,-1
 1280 768 l 1,12,-1
 1280 1792 l 1,13,-1
 1792 1792 l 1,14,-1
 1792 768 l 1,15,-1
 1536 768 l 1,16,-1
 1536 256 l 1,17,-1
 1280 256 l 1,18,-1
 1280 0 l 1,19,-1
 512 0 l 1,0,-1
EndSplineSet
Validated: 1
EndChar

StartChar: W
Encoding: 87 87 49
Width: 2048
GlyphClass: 1
Flags: W
LayerCount: 2
Fore
SplineSet
0 0 m 1,0,-1
 0 1792 l 1,1,-1
 512 1792 l 1,2,-1
 512 1024 l 1,3,-1
 768 1024 l 1,4,-1
 768 1280 l 1,5,-1
 1024 1280 l 1,6,-1
 1024 1024 l 1,7,-1
 1280 1024 l 1,8,-1
 1280 1792 l 1,9,-1
 1792 1792 l 1,10,-1
 1792 0 l 1,11,-1
 1280 0 l 1,12,-1
 1280 256 l 1,13,-1
 1024 256 l 1,14,-1
 1024 768 l 1,15,-1
 768 768 l 1,16,-1
 768 256 l 1,17,-1
 512 256 l 1,18,-1
 512 0 l 1,19,-1
 0 0 l 1,0,-1
EndSplineSet
Validated: 1
EndChar

StartChar: X
Encoding: 88 88 50
Width: 2048
GlyphClass: 1
Flags: W
LayerCount: 2
Fore
SplineSet
0 0 m 1,0,-1
 0 512 l 1,1,-1
 256 512 l 1,2,-1
 256 768 l 1,3,-1
 512 768 l 1,4,-1
 512 1024 l 1,5,-1
 256 1024 l 1,6,-1
 256 1280 l 1,7,-1
 0 1280 l 1,8,-1
 0 1792 l 1,9,-1
 512 1792 l 1,10,-1
 512 1536 l 1,11,-1
 768 1536 l 1,12,-1
 768 1280 l 1,13,-1
 1024 1280 l 1,14,-1
 1024 1536 l 1,15,-1
 1280 1536 l 1,16,-1
 1280 1792 l 1,17,-1
 1792 1792 l 1,18,-1
 1792 1280 l 1,19,-1
 1536 1280 l 1,20,-1
 1536 1024 l 1,21,-1
 1280 1024 l 1,22,-1
 1280 768 l 1,23,-1
 1536 768 l 1,24,-1
 1536 512 l 1,25,-1
 1792 512 l 1,26,-1
 1792 0 l 1,27,-1
 1280 0 l 1,28,-1
 1280 256 l 1,29,-1
 1024 256 l 1,30,-1
 1024 512 l 1,31,-1
 768 512 l 1,32,-1
 768 256 l 1,33,-1
 512 256 l 1,34,-1
 512 0 l 1,35,-1
 0 0 l 1,0,-1
EndSplineSet
Validated: 1
EndChar

StartChar: Y
Encoding: 89 89 51
Width: 2048
GlyphClass: 1
LayerCount: 2
Fore
SplineSet
256 1536 m 1,0,-1
 256 1792 l 1,1,-1
 512 1792 l 1,2,-1
 512 1536 l 1,3,-1
 256 1536 l 1,0,-1
512 1536 m 1,4,-1
 512 1792 l 1,5,-1
 768 1792 l 1,6,-1
 768 1536 l 1,7,-1
 512 1536 l 1,4,-1
1280 1536 m 1,8,-1
 1280 1792 l 1,9,-1
 1536 1792 l 1,10,-1
 1536 1536 l 1,11,-1
 1280 1536 l 1,8,-1
1536 1536 m 1,12,-1
 1536 1792 l 1,13,-1
 1792 1792 l 1,14,-1
 1792 1536 l 1,15,-1
 1536 1536 l 1,12,-1
256 1280 m 1,16,-1
 256 1536 l 1,17,-1
 512 1536 l 1,18,-1
 512 1280 l 1,19,-1
 256 1280 l 1,16,-1
512 1280 m 1,20,-1
 512 1536 l 1,21,-1
 768 1536 l 1,22,-1
 768 1280 l 1,23,-1
 512 1280 l 1,20,-1
1280 1280 m 1,24,-1
 1280 1536 l 1,25,-1
 1536 1536 l 1,26,-1
 1536 1280 l 1,27,-1
 1280 1280 l 1,24,-1
1536 1280 m 1,28,-1
 1536 1536 l 1,29,-1
 1792 1536 l 1,30,-1
 1792 1280 l 1,31,-1
 1536 1280 l 1,28,-1
512 1024 m 1,32,-1
 512 1280 l 1,33,-1
 768 1280 l 1,34,-1
 768 1024 l 1,35,-1
 512 1024 l 1,32,-1
768 1024 m 1,36,-1
 768 1280 l 1,37,-1
 1024 1280 l 1,38,-1
 1024 1024 l 1,39,-1
 768 1024 l 1,36,-1
1024 1024 m 1,40,-1
 1024 1280 l 1,41,-1
 1280 1280 l 1,42,-1
 1280 1024 l 1,43,-1
 1024 1024 l 1,40,-1
1280 1024 m 1,44,-1
 1280 1280 l 1,45,-1
 1536 1280 l 1,46,-1
 1536 1024 l 1,47,-1
 1280 1024 l 1,44,-1
768 768 m 1,48,-1
 768 1024 l 1,49,-1
 1024 1024 l 1,50,-1
 1024 768 l 1,51,-1
 768 768 l 1,48,-1
1024 768 m 1,52,-1
 1024 1024 l 1,53,-1
 1280 1024 l 1,54,-1
 1280 768 l 1,55,-1
 1024 768 l 1,52,-1
768 512 m 1,56,-1
 768 768 l 1,57,-1
 1024 768 l 1,58,-1
 1024 512 l 1,59,-1
 768 512 l 1,56,-1
1024 512 m 1,60,-1
 1024 768 l 1,61,-1
 1280 768 l 1,62,-1
 1280 512 l 1,63,-1
 1024 512 l 1,60,-1
768 256 m 1,64,-1
 768 512 l 1,65,-1
 1024 512 l 1,66,-1
 1024 256 l 1,67,-1
 768 256 l 1,64,-1
1024 256 m 1,68,-1
 1024 512 l 1,69,-1
 1280 512 l 1,70,-1
 1280 256 l 1,71,-1
 1024 256 l 1,68,-1
768 0 m 1,72,-1
 768 256 l 1,73,-1
 1024 256 l 1,74,-1
 1024 0 l 1,75,-1
 768 0 l 1,72,-1
1024 0 m 1,76,-1
 1024 256 l 1,77,-1
 1280 256 l 1,78,-1
 1280 0 l 1,79,-1
 1024 0 l 1,76,-1
EndSplineSet
Validated: 3077
EndChar

StartChar: Z
Encoding: 90 90 52
Width: 2048
GlyphClass: 1
Flags: W
LayerCount: 2
Fore
SplineSet
0 0 m 1,0,-1
 0 512 l 1,1,-1
 256 512 l 1,2,-1
 256 768 l 1,3,-1
 512 768 l 1,4,-1
 512 1024 l 1,5,-1
 768 1024 l 1,6,-1
 768 1280 l 1,7,-1
 1024 1280 l 1,8,-1
 1024 1536 l 1,9,-1
 512 1536 l 1,10,-1
 512 1280 l 1,11,-1
 0 1280 l 1,12,-1
 0 1792 l 1,13,-1
 1792 1792 l 1,14,-1
 1792 1280 l 1,15,-1
 1536 1280 l 1,16,-1
 1536 1024 l 1,17,-1
 1280 1024 l 1,18,-1
 1280 768 l 1,19,-1
 1024 768 l 1,20,-1
 1024 512 l 1,21,-1
 768 512 l 1,22,-1
 768 256 l 1,23,-1
 1280 256 l 1,24,-1
 1280 512 l 1,25,-1
 1792 512 l 1,26,-1
 1792 0 l 1,27,-1
 0 0 l 1,0,-1
EndSplineSet
Validated: 1
EndChar

StartChar: a
Encoding: 97 97 53
Width: 2048
GlyphClass: 1
Flags: W
LayerCount: 2
Fore
SplineSet
1024 256 m 1,0,-1
 1024 768 l 1,1,-1
 512 768 l 1,2,-1
 512 256 l 1,3,-1
 1024 256 l 1,0,-1
256 0 m 1,4,-1
 256 256 l 1,5,-1
 0 256 l 1,6,-1
 0 768 l 1,7,-1
 256 768 l 1,8,-1
 256 1024 l 1,9,-1
 1024 1024 l 1,10,-1
 1024 1280 l 1,11,-1
 256 1280 l 1,12,-1
 256 1536 l 1,13,-1
 1280 1536 l 1,14,-1
 1280 1280 l 1,15,-1
 1536 1280 l 1,16,-1
 1536 256 l 1,17,-1
 1792 256 l 1,18,-1
 1792 0 l 1,19,-1
 256 0 l 1,4,-1
EndSplineSet
Validated: 1
EndChar

StartChar: b
Encoding: 98 98 54
Width: 2048
GlyphClass: 1
Flags: W
LayerCount: 2
Fore
SplineSet
1280 256 m 1,0,-1
 1280 1024 l 1,1,-1
 768 1024 l 1,2,-1
 768 256 l 1,3,-1
 1280 256 l 1,0,-1
0 0 m 1,4,-1
 0 256 l 1,5,-1
 256 256 l 1,6,-1
 256 1792 l 1,7,-1
 768 1792 l 1,8,-1
 768 1280 l 1,9,-1
 1536 1280 l 1,10,-1
 1536 1024 l 1,11,-1
 1792 1024 l 1,12,-1
 1792 256 l 1,13,-1
 1536 256 l 1,14,-1
 1536 0 l 1,15,-1
 0 0 l 1,4,-1
EndSplineSet
Validated: 1
EndChar

StartChar: c
Encoding: 99 99 55
Width: 2048
GlyphClass: 1
Flags: W
LayerCount: 2
Fore
SplineSet
256 0 m 1,0,-1
 256 256 l 1,1,-1
 0 256 l 1,2,-1
 0 1280 l 1,3,-1
 256 1280 l 1,4,-1
 256 1536 l 1,5,-1
 1536 1536 l 1,6,-1
 1536 1280 l 1,7,-1
 1792 1280 l 1,8,-1
 1792 1024 l 1,9,-1
 1280 1024 l 1,10,-1
 1280 1280 l 1,11,-1
 512 1280 l 1,12,-1
 512 256 l 1,13,-1
 1280 256 l 1,14,-1
 1280 512 l 1,15,-1
 1792 512 l 1,16,-1
 1792 256 l 1,17,-1
 1536 256 l 1,18,-1
 1536 0 l 1,19,-1
 256 0 l 1,0,-1
EndSplineSet
Validated: 1
EndChar

StartChar: d
Encoding: 100 100 56
Width: 2048
GlyphClass: 1
Flags: W
LayerCount: 2
Fore
SplineSet
1024 256 m 1,0,-1
 1024 1024 l 1,1,-1
 512 1024 l 1,2,-1
 512 256 l 1,3,-1
 1024 256 l 1,0,-1
256 0 m 1,4,-1
 256 256 l 1,5,-1
 0 256 l 1,6,-1
 0 1024 l 1,7,-1
 256 1024 l 1,8,-1
 256 1280 l 1,9,-1
 1024 1280 l 1,10,-1
 1024 1792 l 1,11,-1
 1536 1792 l 1,12,-1
 1536 256 l 1,13,-1
 1792 256 l 1,14,-1
 1792 0 l 1,15,-1
 256 0 l 1,4,-1
EndSplineSet
Validated: 1
EndChar

StartChar: e
Encoding: 101 101 57
Width: 2048
GlyphClass: 1
Flags: W
LayerCount: 2
Fore
SplineSet
1280 768 m 1,0,-1
 1280 1280 l 1,1,-1
 512 1280 l 1,2,-1
 512 768 l 1,3,-1
 1280 768 l 1,0,-1
256 0 m 1,4,-1
 256 256 l 1,5,-1
 0 256 l 1,6,-1
 0 1280 l 1,7,-1
 256 1280 l 1,8,-1
 256 1536 l 1,9,-1
 1536 1536 l 1,10,-1
 1536 1280 l 1,11,-1
 1792 1280 l 1,12,-1
 1792 768 l 1,13,-1
 1536 768 l 1,14,-1
 1536 512 l 1,15,-1
 512 512 l 1,16,-1
 512 256 l 1,17,-1
 1792 256 l 1,18,-1
 1792 0 l 1,19,-1
 256 0 l 1,4,-1
EndSplineSet
Validated: 1
EndChar

StartChar: f
Encoding: 102 102 58
Width: 2048
GlyphClass: 1
Flags: W
LayerCount: 2
Fore
SplineSet
512 0 m 1,0,-1
 512 512 l 1,1,-1
 0 512 l 1,2,-1
 0 768 l 1,3,-1
 512 768 l 1,4,-1
 512 1536 l 1,5,-1
 768 1536 l 1,6,-1
 768 1792 l 1,7,-1
 1536 1792 l 1,8,-1
 1536 1536 l 1,9,-1
 1792 1536 l 1,10,-1
 1792 1024 l 1,11,-1
 1280 1024 l 1,12,-1
 1280 1536 l 1,13,-1
 1024 1536 l 1,14,-1
 1024 768 l 1,15,-1
 1536 768 l 1,16,-1
 1536 512 l 1,17,-1
 1024 512 l 1,18,-1
 1024 0 l 1,19,-1
 512 0 l 1,0,-1
EndSplineSet
Validated: 1
EndChar

StartChar: g
Encoding: 103 103 59
Width: 2048
GlyphClass: 1
Flags: W
LayerCount: 2
Fore
SplineSet
1280 512 m 1,0,-1
 1280 1280 l 1,1,-1
 512 1280 l 1,2,-1
 512 512 l 1,3,-1
 1280 512 l 1,0,-1
256 -256 m 1,4,-1
 256 0 l 1,5,-1
 1280 0 l 1,6,-1
 1280 256 l 1,7,-1
 256 256 l 1,8,-1
 256 512 l 1,9,-1
 0 512 l 1,10,-1
 0 1280 l 1,11,-1
 256 1280 l 1,12,-1
 256 1536 l 1,13,-1
 1536 1536 l 1,14,-1
 1536 1280 l 1,15,-1
 1792 1280 l 1,16,-1
 1792 0 l 1,17,-1
 1536 0 l 1,18,-1
 1536 -256 l 1,19,-1
 256 -256 l 1,4,-1
EndSplineSet
Validated: 1
EndChar

StartChar: h
Encoding: 104 104 60
Width: 2048
GlyphClass: 1
Flags: W
LayerCount: 2
Fore
SplineSet
1280 0 m 1,0,-1
 1280 1024 l 1,1,-1
 768 1024 l 1,2,-1
 768 1280 l 1,3,-1
 1536 1280 l 1,4,-1
 1536 1024 l 1,5,-1
 1792 1024 l 1,6,-1
 1792 0 l 1,7,-1
 1280 0 l 1,0,-1
0 0 m 1,8,-1
 0 1792 l 1,9,-1
 512 1792 l 1,10,-1
 512 1024 l 1,11,-1
 768 1024 l 1,12,-1
 768 768 l 1,13,-1
 512 768 l 1,14,-1
 512 0 l 1,15,-1
 0 0 l 1,8,-1
EndSplineSet
Validated: 5
EndChar

StartChar: i
Encoding: 105 105 61
Width: 2048
GlyphClass: 1
LayerCount: 2
Fore
SplineSet
768 1536 m 1,0,-1
 768 1792 l 1,1,-1
 1024 1792 l 1,2,-1
 1024 1536 l 1,3,-1
 768 1536 l 1,0,-1
1024 1536 m 1,4,-1
 1024 1792 l 1,5,-1
 1280 1792 l 1,6,-1
 1280 1536 l 1,7,-1
 1024 1536 l 1,4,-1
768 1280 m 1,8,-1
 768 1536 l 1,9,-1
 1024 1536 l 1,10,-1
 1024 1280 l 1,11,-1
 768 1280 l 1,8,-1
1024 1280 m 1,12,-1
 1024 1536 l 1,13,-1
 1280 1536 l 1,14,-1
 1280 1280 l 1,15,-1
 1024 1280 l 1,12,-1
512 768 m 1,16,-1
 512 1024 l 1,17,-1
 768 1024 l 1,18,-1
 768 768 l 1,19,-1
 512 768 l 1,16,-1
768 768 m 1,20,-1
 768 1024 l 1,21,-1
 1024 1024 l 1,22,-1
 1024 768 l 1,23,-1
 768 768 l 1,20,-1
1024 768 m 1,24,-1
 1024 1024 l 1,25,-1
 1280 1024 l 1,26,-1
 1280 768 l 1,27,-1
 1024 768 l 1,24,-1
768 512 m 1,28,-1
 768 768 l 1,29,-1
 1024 768 l 1,30,-1
 1024 512 l 1,31,-1
 768 512 l 1,28,-1
1024 512 m 1,32,-1
 1024 768 l 1,33,-1
 1280 768 l 1,34,-1
 1280 512 l 1,35,-1
 1024 512 l 1,32,-1
768 256 m 1,36,-1
 768 512 l 1,37,-1
 1024 512 l 1,38,-1
 1024 256 l 1,39,-1
 768 256 l 1,36,-1
1024 256 m 1,40,-1
 1024 512 l 1,41,-1
 1280 512 l 1,42,-1
 1280 256 l 1,43,-1
 1024 256 l 1,40,-1
512 0 m 1,44,-1
 512 256 l 1,45,-1
 768 256 l 1,46,-1
 768 0 l 1,47,-1
 512 0 l 1,44,-1
768 0 m 1,48,-1
 768 256 l 1,49,-1
 1024 256 l 1,50,-1
 1024 0 l 1,51,-1
 768 0 l 1,48,-1
1024 0 m 1,52,-1
 1024 256 l 1,53,-1
 1280 256 l 1,54,-1
 1280 0 l 1,55,-1
 1024 0 l 1,52,-1
1280 0 m 1,56,-1
 1280 256 l 1,57,-1
 1536 256 l 1,58,-1
 1536 0 l 1,59,-1
 1280 0 l 1,56,-1
EndSplineSet
Validated: 3077
EndChar

StartChar: j
Encoding: 106 106 62
Width: 2048
GlyphClass: 1
LayerCount: 2
Fore
SplineSet
1280 1536 m 1,0,-1
 1280 1792 l 1,1,-1
 1536 1792 l 1,2,-1
 1536 1536 l 1,3,-1
 1280 1536 l 1,0,-1
1536 1536 m 1,4,-1
 1536 1792 l 1,5,-1
 1792 1792 l 1,6,-1
 1792 1536 l 1,7,-1
 1536 1536 l 1,4,-1
1280 1280 m 1,8,-1
 1280 1536 l 1,9,-1
 1536 1536 l 1,10,-1
 1536 1280 l 1,11,-1
 1280 1280 l 1,8,-1
1536 1280 m 1,12,-1
 1536 1536 l 1,13,-1
 1792 1536 l 1,14,-1
 1792 1280 l 1,15,-1
 1536 1280 l 1,12,-1
1280 768 m 1,16,-1
 1280 1024 l 1,17,-1
 1536 1024 l 1,18,-1
 1536 768 l 1,19,-1
 1280 768 l 1,16,-1
1536 768 m 1,20,-1
 1536 1024 l 1,21,-1
 1792 1024 l 1,22,-1
 1792 768 l 1,23,-1
 1536 768 l 1,20,-1
256 512 m 1,24,-1
 256 768 l 1,25,-1
 512 768 l 1,26,-1
 512 512 l 1,27,-1
 256 512 l 1,24,-1
512 512 m 1,28,-1
 512 768 l 1,29,-1
 768 768 l 1,30,-1
 768 512 l 1,31,-1
 512 512 l 1,28,-1
1280 512 m 1,32,-1
 1280 768 l 1,33,-1
 1536 768 l 1,34,-1
 1536 512 l 1,35,-1
 1280 512 l 1,32,-1
1536 512 m 1,36,-1
 1536 768 l 1,37,-1
 1792 768 l 1,38,-1
 1792 512 l 1,39,-1
 1536 512 l 1,36,-1
256 256 m 1,40,-1
 256 512 l 1,41,-1
 512 512 l 1,42,-1
 512 256 l 1,43,-1
 256 256 l 1,40,-1
512 256 m 1,44,-1
 512 512 l 1,45,-1
 768 512 l 1,46,-1
 768 256 l 1,47,-1
 512 256 l 1,44,-1
1280 256 m 1,48,-1
 1280 512 l 1,49,-1
 1536 512 l 1,50,-1
 1536 256 l 1,51,-1
 1280 256 l 1,48,-1
1536 256 m 1,52,-1
 1536 512 l 1,53,-1
 1792 512 l 1,54,-1
 1792 256 l 1,55,-1
 1536 256 l 1,52,-1
512 0 m 1,56,-1
 512 256 l 1,57,-1
 768 256 l 1,58,-1
 768 0 l 1,59,-1
 512 0 l 1,56,-1
768 0 m 1,60,-1
 768 256 l 1,61,-1
 1024 256 l 1,62,-1
 1024 0 l 1,63,-1
 768 0 l 1,60,-1
1024 0 m 1,64,-1
 1024 256 l 1,65,-1
 1280 256 l 1,66,-1
 1280 0 l 1,67,-1
 1024 0 l 1,64,-1
1280 0 m 1,68,-1
 1280 256 l 1,69,-1
 1536 256 l 1,70,-1
 1536 0 l 1,71,-1
 1280 0 l 1,68,-1
EndSplineSet
Validated: 3077
EndChar

StartChar: k
Encoding: 107 107 63
Width: 2048
GlyphClass: 1
Flags: W
LayerCount: 2
Fore
SplineSet
256 0 m 1,0,-1
 256 1792 l 1,1,-1
 768 1792 l 1,2,-1
 768 1024 l 1,3,-1
 1024 1024 l 1,4,-1
 1024 1280 l 1,5,-1
 1280 1280 l 1,6,-1
 1280 1536 l 1,7,-1
 1792 1536 l 1,8,-1
 1792 1280 l 1,9,-1
 1536 1280 l 1,10,-1
 1536 1024 l 1,11,-1
 1280 1024 l 1,12,-1
 1280 768 l 1,13,-1
 1536 768 l 1,14,-1
 1536 512 l 1,15,-1
 1792 512 l 1,16,-1
 1792 0 l 1,17,-1
 1280 0 l 1,18,-1
 1280 512 l 1,19,-1
 768 512 l 1,20,-1
 768 0 l 1,21,-1
 256 0 l 1,0,-1
EndSplineSet
Validated: 1
EndChar

StartChar: l
Encoding: 108 108 64
Width: 2048
GlyphClass: 1
LayerCount: 2
Fore
SplineSet
768 1536 m 1,0,-1
 768 1792 l 1,1,-1
 1024 1792 l 1,2,-1
 1024 1536 l 1,3,-1
 768 1536 l 1,0,-1
1024 1536 m 1,4,-1
 1024 1792 l 1,5,-1
 1280 1792 l 1,6,-1
 1280 1536 l 1,7,-1
 1024 1536 l 1,4,-1
768 1280 m 1,8,-1
 768 1536 l 1,9,-1
 1024 1536 l 1,10,-1
 1024 1280 l 1,11,-1
 768 1280 l 1,8,-1
1024 1280 m 1,12,-1
 1024 1536 l 1,13,-1
 1280 1536 l 1,14,-1
 1280 1280 l 1,15,-1
 1024 1280 l 1,12,-1
768 1024 m 1,16,-1
 768 1280 l 1,17,-1
 1024 1280 l 1,18,-1
 1024 1024 l 1,19,-1
 768 1024 l 1,16,-1
1024 1024 m 1,20,-1
 1024 1280 l 1,21,-1
 1280 1280 l 1,22,-1
 1280 1024 l 1,23,-1
 1024 1024 l 1,20,-1
768 768 m 1,24,-1
 768 1024 l 1,25,-1
 1024 1024 l 1,26,-1
 1024 768 l 1,27,-1
 768 768 l 1,24,-1
1024 768 m 1,28,-1
 1024 1024 l 1,29,-1
 1280 1024 l 1,30,-1
 1280 768 l 1,31,-1
 1024 768 l 1,28,-1
768 512 m 1,32,-1
 768 768 l 1,33,-1
 1024 768 l 1,34,-1
 1024 512 l 1,35,-1
 768 512 l 1,32,-1
1024 512 m 1,36,-1
 1024 768 l 1,37,-1
 1280 768 l 1,38,-1
 1280 512 l 1,39,-1
 1024 512 l 1,36,-1
768 256 m 1,40,-1
 768 512 l 1,41,-1
 1024 512 l 1,42,-1
 1024 256 l 1,43,-1
 768 256 l 1,40,-1
1024 256 m 1,44,-1
 1024 512 l 1,45,-1
 1280 512 l 1,46,-1
 1280 256 l 1,47,-1
 1024 256 l 1,44,-1
768 0 m 1,48,-1
 768 256 l 1,49,-1
 1024 256 l 1,50,-1
 1024 0 l 1,51,-1
 768 0 l 1,48,-1
1024 0 m 1,52,-1
 1024 256 l 1,53,-1
 1280 256 l 1,54,-1
 1280 0 l 1,55,-1
 1024 0 l 1,52,-1
EndSplineSet
Validated: 3077
EndChar

StartChar: m
Encoding: 109 109 65
Width: 2048
GlyphClass: 1
Flags: W
LayerCount: 2
Fore
SplineSet
0 0 m 1,0,-1
 0 1536 l 1,1,-1
 1536 1536 l 1,2,-1
 1536 1280 l 1,3,-1
 1792 1280 l 1,4,-1
 1792 0 l 1,5,-1
 1280 0 l 1,6,-1
 1280 1280 l 1,7,-1
 1024 1280 l 1,8,-1
 1024 0 l 1,9,-1
 768 0 l 1,10,-1
 768 1280 l 1,11,-1
 512 1280 l 1,12,-1
 512 0 l 1,13,-1
 0 0 l 1,0,-1
EndSplineSet
Validated: 1
EndChar

StartChar: n
Encoding: 110 110 66
Width: 2048
GlyphClass: 1
Flags: W
LayerCount: 2
Fore
SplineSet
256 0 m 1,0,-1
 256 1536 l 1,1,-1
 1536 1536 l 1,2,-1
 1536 1280 l 1,3,-1
 1792 1280 l 1,4,-1
 1792 0 l 1,5,-1
 1280 0 l 1,6,-1
 1280 1280 l 1,7,-1
 768 1280 l 1,8,-1
 768 0 l 1,9,-1
 256 0 l 1,0,-1
EndSplineSet
Validated: 1
EndChar

StartChar: o
Encoding: 111 111 67
Width: 2048
GlyphClass: 1
Flags: W
LayerCount: 2
Fore
SplineSet
1280 256 m 1,0,-1
 1280 1280 l 1,1,-1
 512 1280 l 1,2,-1
 512 256 l 1,3,-1
 1280 256 l 1,0,-1
256 0 m 1,4,-1
 256 256 l 1,5,-1
 0 256 l 1,6,-1
 0 1280 l 1,7,-1
 256 1280 l 1,8,-1
 256 1536 l 1,9,-1
 1536 1536 l 1,10,-1
 1536 1280 l 1,11,-1
 1792 1280 l 1,12,-1
 1792 256 l 1,13,-1
 1536 256 l 1,14,-1
 1536 0 l 1,15,-1
 256 0 l 1,4,-1
EndSplineSet
Validated: 1
EndChar

StartChar: p
Encoding: 112 112 68
Width: 2048
GlyphClass: 1
Flags: W
LayerCount: 2
Fore
SplineSet
1280 512 m 1,0,-1
 1280 1280 l 1,1,-1
 512 1280 l 1,2,-1
 512 512 l 1,3,-1
 1280 512 l 1,0,-1
0 -256 m 1,4,-1
 0 1536 l 1,5,-1
 1536 1536 l 1,6,-1
 1536 1280 l 1,7,-1
 1792 1280 l 1,8,-1
 1792 512 l 1,9,-1
 1536 512 l 1,10,-1
 1536 256 l 1,11,-1
 512 256 l 1,12,-1
 512 -256 l 1,13,-1
 0 -256 l 1,4,-1
EndSplineSet
Validated: 1
EndChar

StartChar: q
Encoding: 113 113 69
Width: 2048
GlyphClass: 1
Flags: W
LayerCount: 2
Fore
SplineSet
1280 512 m 1,0,-1
 1280 1280 l 1,1,-1
 512 1280 l 1,2,-1
 512 512 l 1,3,-1
 1280 512 l 1,0,-1
1280 -256 m 1,4,-1
 1280 256 l 1,5,-1
 256 256 l 1,6,-1
 256 512 l 1,7,-1
 0 512 l 1,8,-1
 0 1280 l 1,9,-1
 256 1280 l 1,10,-1
 256 1536 l 1,11,-1
 1792 1536 l 1,12,-1
 1792 -256 l 1,13,-1
 1280 -256 l 1,4,-1
EndSplineSet
Validated: 1
EndChar

StartChar: r
Encoding: 114 114 70
Width: 2048
GlyphClass: 1
Flags: W
LayerCount: 2
Fore
SplineSet
256 0 m 1,0,-1
 256 1280 l 1,1,-1
 0 1280 l 1,2,-1
 0 1536 l 1,3,-1
 768 1536 l 1,4,-1
 768 1280 l 1,5,-1
 1024 1280 l 1,6,-1
 1024 1536 l 1,7,-1
 1536 1536 l 1,8,-1
 1536 1280 l 1,9,-1
 1792 1280 l 1,10,-1
 1792 768 l 1,11,-1
 1280 768 l 1,12,-1
 1280 1024 l 1,13,-1
 768 1024 l 1,14,-1
 768 0 l 1,15,-1
 256 0 l 1,0,-1
EndSplineSet
Validated: 1
EndChar

StartChar: s
Encoding: 115 115 71
Width: 2048
GlyphClass: 1
Flags: W
LayerCount: 2
Fore
SplineSet
256 0 m 1,0,-1
 256 256 l 1,1,-1
 0 256 l 1,2,-1
 0 512 l 1,3,-1
 512 512 l 1,4,-1
 512 256 l 1,5,-1
 1280 256 l 1,6,-1
 1280 512 l 1,7,-1
 768 512 l 1,8,-1
 768 768 l 1,9,-1
 0 768 l 1,10,-1
 0 1280 l 1,11,-1
 256 1280 l 1,12,-1
 256 1536 l 1,13,-1
 1536 1536 l 1,14,-1
 1536 1280 l 1,15,-1
 1792 1280 l 1,16,-1
 1792 1024 l 1,17,-1
 1280 1024 l 1,18,-1
 1280 1280 l 1,19,-1
 512 1280 l 1,20,-1
 512 1024 l 1,21,-1
 1024 1024 l 1,22,-1
 1024 768 l 1,23,-1
 1792 768 l 1,24,-1
 1792 256 l 1,25,-1
 1536 256 l 1,26,-1
 1536 0 l 1,27,-1
 256 0 l 1,0,-1
EndSplineSet
Validated: 1
EndChar

StartChar: t
Encoding: 116 116 72
Width: 2048
GlyphClass: 1
Flags: W
LayerCount: 2
Fore
SplineSet
512 0 m 1,0,-1
 512 256 l 1,1,-1
 256 256 l 1,2,-1
 256 1024 l 1,3,-1
 0 1024 l 1,4,-1
 0 1280 l 1,5,-1
 256 1280 l 1,6,-1
 256 1792 l 1,7,-1
 768 1792 l 1,8,-1
 768 1280 l 1,9,-1
 1536 1280 l 1,10,-1
 1536 1024 l 1,11,-1
 768 1024 l 1,12,-1
 768 256 l 1,13,-1
 1280 256 l 1,14,-1
 1280 768 l 1,15,-1
 1792 768 l 1,16,-1
 1792 256 l 1,17,-1
 1536 256 l 1,18,-1
 1536 0 l 1,19,-1
 512 0 l 1,0,-1
EndSplineSet
Validated: 1
EndChar

StartChar: u
Encoding: 117 117 73
Width: 2048
GlyphClass: 1
Flags: W
LayerCount: 2
Fore
SplineSet
512 0 m 1,0,-1
 512 256 l 1,1,-1
 256 256 l 1,2,-1
 256 1536 l 1,3,-1
 768 1536 l 1,4,-1
 768 256 l 1,5,-1
 1280 256 l 1,6,-1
 1280 1536 l 1,7,-1
 1792 1536 l 1,8,-1
 1792 256 l 1,9,-1
 1536 256 l 1,10,-1
 1536 0 l 1,11,-1
 512 0 l 1,0,-1
EndSplineSet
Validated: 1
EndChar

StartChar: v
Encoding: 118 118 74
Width: 2048
GlyphClass: 1
Flags: W
LayerCount: 2
Fore
SplineSet
768 0 m 1,0,-1
 768 256 l 1,1,-1
 1280 256 l 1,2,-1
 1280 0 l 1,3,-1
 768 0 l 1,0,-1
512 256 m 1,4,-1
 512 512 l 1,5,-1
 256 512 l 1,6,-1
 256 1536 l 1,7,-1
 768 1536 l 1,8,-1
 768 256 l 1,9,-1
 512 256 l 1,4,-1
1280 256 m 1,10,-1
 1280 1536 l 1,11,-1
 1792 1536 l 1,12,-1
 1792 512 l 1,13,-1
 1536 512 l 1,14,-1
 1536 256 l 1,15,-1
 1280 256 l 1,10,-1
EndSplineSet
Validated: 5
EndChar

StartChar: w
Encoding: 119 119 75
Width: 2048
GlyphClass: 1
Flags: W
LayerCount: 2
Fore
SplineSet
256 0 m 1,0,-1
 256 256 l 1,1,-1
 0 256 l 1,2,-1
 0 1536 l 1,3,-1
 512 1536 l 1,4,-1
 512 256 l 1,5,-1
 768 256 l 1,6,-1
 768 1536 l 1,7,-1
 1024 1536 l 1,8,-1
 1024 256 l 1,9,-1
 1280 256 l 1,10,-1
 1280 1536 l 1,11,-1
 1792 1536 l 1,12,-1
 1792 256 l 1,13,-1
 1536 256 l 1,14,-1
 1536 0 l 1,15,-1
 256 0 l 1,0,-1
EndSplineSet
Validated: 1
EndChar

StartChar: x
Encoding: 120 120 76
Width: 2048
GlyphClass: 1
Flags: W
LayerCount: 2
Fore
SplineSet
256 0 m 1,0,-1
 256 256 l 1,1,-1
 512 256 l 1,2,-1
 512 512 l 1,3,-1
 768 512 l 1,4,-1
 768 768 l 1,5,-1
 512 768 l 1,6,-1
 512 1024 l 1,7,-1
 256 1024 l 1,8,-1
 256 1536 l 1,9,-1
 512 1536 l 1,10,-1
 512 1280 l 1,11,-1
 768 1280 l 1,12,-1
 768 1024 l 1,13,-1
 1280 1024 l 1,14,-1
 1280 1280 l 1,15,-1
 1536 1280 l 1,16,-1
 1536 1536 l 1,17,-1
 1792 1536 l 1,18,-1
 1792 1024 l 1,19,-1
 1536 1024 l 1,20,-1
 1536 768 l 1,21,-1
 1280 768 l 1,22,-1
 1280 512 l 1,23,-1
 1536 512 l 1,24,-1
 1536 256 l 1,25,-1
 1792 256 l 1,26,-1
 1792 0 l 1,27,-1
 1280 0 l 1,28,-1
 1280 256 l 1,29,-1
 768 256 l 1,30,-1
 768 0 l 1,31,-1
 256 0 l 1,0,-1
EndSplineSet
Validated: 1
EndChar

StartChar: y
Encoding: 121 121 77
Width: 2048
GlyphClass: 1
Flags: W
LayerCount: 2
Fore
SplineSet
256 0 m 1,0,-1
 256 256 l 1,1,-1
 1280 256 l 1,2,-1
 1280 512 l 1,3,-1
 512 512 l 1,4,-1
 512 768 l 1,5,-1
 256 768 l 1,6,-1
 256 1536 l 1,7,-1
 768 1536 l 1,8,-1
 768 768 l 1,9,-1
 1280 768 l 1,10,-1
 1280 1536 l 1,11,-1
 1792 1536 l 1,12,-1
 1792 256 l 1,13,-1
 1536 256 l 1,14,-1
 1536 0 l 1,15,-1
 256 0 l 1,0,-1
EndSplineSet
Validated: 1
EndChar

StartChar: z
Encoding: 122 122 78
Width: 2048
GlyphClass: 1
Flags: W
LayerCount: 2
Fore
SplineSet
256 0 m 1,0,-1
 256 256 l 1,1,-1
 512 256 l 1,2,-1
 512 512 l 1,3,-1
 768 512 l 1,4,-1
 768 768 l 1,5,-1
 1024 768 l 1,6,-1
 1024 1024 l 1,7,-1
 1280 1024 l 1,8,-1
 1280 1280 l 1,9,-1
 512 1280 l 1,10,-1
 512 1024 l 1,11,-1
 256 1024 l 1,12,-1
 256 1536 l 1,13,-1
 1792 1536 l 1,14,-1
 1792 1024 l 1,15,-1
 1536 1024 l 1,16,-1
 1536 768 l 1,17,-1
 1280 768 l 1,18,-1
 1280 512 l 1,19,-1
 1024 512 l 1,20,-1
 1024 256 l 1,21,-1
 1536 256 l 1,22,-1
 1536 512 l 1,23,-1
 1792 512 l 1,24,-1
 1792 0 l 1,25,-1
 256 0 l 1,0,-1
EndSplineSet
Validated: 1
EndChar

StartChar: bar
Encoding: 124 124 79
Width: 2048
GlyphClass: 1
Flags: W
LayerCount: 2
Fore
SplineSet
512 -256 m 1,0,-1
 512 2304 l 1,1,-1
 768 2304 l 1,2,-1
 768 -256 l 1,3,-1
 512 -256 l 1,0,-1
EndSplineSet
Validated: 1
EndChar

StartChar: quoteleft
Encoding: 8216 8216 80
Width: 2048
GlyphClass: 1
Flags: W
LayerCount: 2
Fore
SplineSet
1280 768 m 1,0,-1
 1280 1536 l 1,1,-1
 1536 1536 l 1,2,-1
 1536 1280 l 1,3,-1
 1792 1280 l 1,4,-1
 1792 768 l 1,5,-1
 1280 768 l 1,0,-1
1536 1536 m 1,6,-1
 1536 1792 l 1,7,-1
 1792 1792 l 1,8,-1
 1792 1536 l 1,9,-1
 1536 1536 l 1,6,-1
EndSplineSet
Validated: 5
EndChar

StartChar: quoteright
Encoding: 8217 8217 81
Width: 2048
GlyphClass: 1
Flags: W
LayerCount: 2
Fore
SplineSet
0 768 m 1,0,-1
 0 1024 l 1,1,-1
 256 1024 l 1,2,-1
 256 768 l 1,3,-1
 0 768 l 1,0,-1
256 1024 m 1,4,-1
 256 1280 l 1,5,-1
 0 1280 l 1,6,-1
 0 1792 l 1,7,-1
 512 1792 l 1,8,-1
 512 1024 l 1,9,-1
 256 1024 l 1,4,-1
EndSplineSet
Validated: 5
EndChar

StartChar: quotedblleft
Encoding: 8220 8220 82
Width: 2048
GlyphClass: 1
Flags: W
LayerCount: 2
Fore
SplineSet
512 768 m 1,0,-1
 512 1536 l 1,1,-1
 768 1536 l 1,2,-1
 768 1280 l 1,3,-1
 1024 1280 l 1,4,-1
 1024 768 l 1,5,-1
 512 768 l 1,0,-1
1280 768 m 1,6,-1
 1280 1536 l 1,7,-1
 1536 1536 l 1,8,-1
 1536 1280 l 1,9,-1
 1792 1280 l 1,10,-1
 1792 768 l 1,11,-1
 1280 768 l 1,6,-1
768 1536 m 1,12,-1
 768 1792 l 1,13,-1
 1024 1792 l 1,14,-1
 1024 1536 l 1,15,-1
 768 1536 l 1,12,-1
1536 1536 m 1,16,-1
 1536 1792 l 1,17,-1
 1792 1792 l 1,18,-1
 1792 1536 l 1,19,-1
 1536 1536 l 1,16,-1
EndSplineSet
Validated: 5
EndChar

StartChar: quotedblright
Encoding: 8221 8221 83
Width: 2048
GlyphClass: 1
Flags: W
LayerCount: 2
Fore
SplineSet
0 768 m 1,0,-1
 0 1024 l 1,1,-1
 256 1024 l 1,2,-1
 256 768 l 1,3,-1
 0 768 l 1,0,-1
768 768 m 1,4,-1
 768 1024 l 1,5,-1
 1024 1024 l 1,6,-1
 1024 768 l 1,7,-1
 768 768 l 1,4,-1
256 1024 m 1,8,-1
 256 1280 l 1,9,-1
 0 1280 l 1,10,-1
 0 1792 l 1,11,-1
 512 1792 l 1,12,-1
 512 1024 l 1,13,-1
 256 1024 l 1,8,-1
1024 1024 m 1,14,-1
 1024 1280 l 1,15,-1
 768 1280 l 1,16,-1
 768 1792 l 1,17,-1
 1280 1792 l 1,18,-1
 1280 1024 l 1,19,-1
 1024 1024 l 1,14,-1
EndSplineSet
Validated: 5
EndChar

StartChar: brokenbar
Encoding: 166 166 84
Width: 2048
Flags: W
LayerCount: 2
Fore
SplineSet
512 2050 m 5,0,-1
 512 2306 l 5,1,-1
 768 2306 l 5,2,-1
 768 2050 l 5,3,-1
 512 2050 l 5,0,-1
512 1794 m 5,4,-1
 512 2050 l 5,5,-1
 768 2050 l 5,6,-1
 768 1794 l 5,7,-1
 512 1794 l 5,4,-1
512 1538 m 5,8,-1
 512 1794 l 5,9,-1
 768 1794 l 5,10,-1
 768 1538 l 5,11,-1
 512 1538 l 5,8,-1
512 1282 m 5,12,-1
 512 1538 l 5,13,-1
 768 1538 l 5,14,-1
 768 1282 l 5,15,-1
 512 1282 l 5,12,-1
512 1026 m 5,16,-1
 512 1282 l 5,17,-1
 768 1282 l 5,18,-1
 768 1026 l 5,19,-1
 512 1026 l 5,16,-1
512 514 m 5,20,-1
 512 770 l 5,21,-1
 768 770 l 5,22,-1
 768 514 l 5,23,-1
 512 514 l 5,20,-1
512 258 m 5,24,-1
 512 514 l 5,25,-1
 768 514 l 5,26,-1
 768 258 l 5,27,-1
 512 258 l 5,24,-1
512 2 m 5,28,-1
 512 258 l 5,29,-1
 768 258 l 5,30,-1
 768 2 l 5,31,-1
 512 2 l 5,28,-1
512 -254 m 5,32,-1
 512 2 l 5,33,-1
 768 2 l 5,34,-1
 768 -254 l 5,35,-1
 512 -254 l 5,32,-1
512 -510 m 5,36,-1
 512 -254 l 5,37,-1
 768 -254 l 5,38,-1
 768 -510 l 5,39,-1
 512 -510 l 5,36,-1
EndSplineSet
Validated: 2053
EndChar

StartChar: numbersign
Encoding: 35 35 85
Width: 2048
LayerCount: 2
Fore
SplineSet
256 1280 m 1,0,-1
 256 1536 l 1,1,-1
 512 1536 l 1,2,-1
 512 1280 l 1,3,-1
 256 1280 l 1,0,-1
512 1280 m 1,4,-1
 512 1536 l 1,5,-1
 768 1536 l 1,6,-1
 768 1280 l 1,7,-1
 512 1280 l 1,4,-1
1024 1280 m 1,8,-1
 1024 1536 l 1,9,-1
 1280 1536 l 1,10,-1
 1280 1280 l 1,11,-1
 1024 1280 l 1,8,-1
1280 1280 m 1,12,-1
 1280 1536 l 1,13,-1
 1536 1536 l 1,14,-1
 1536 1280 l 1,15,-1
 1280 1280 l 1,12,-1
0 1024 m 1,16,-1
 0 1280 l 1,17,-1
 256 1280 l 1,18,-1
 256 1024 l 1,19,-1
 0 1024 l 1,16,-1
256 1024 m 1,20,-1
 256 1280 l 1,21,-1
 512 1280 l 1,22,-1
 512 1024 l 1,23,-1
 256 1024 l 1,20,-1
512 1024 m 1,24,-1
 512 1280 l 1,25,-1
 768 1280 l 1,26,-1
 768 1024 l 1,27,-1
 512 1024 l 1,24,-1
768 1024 m 1,28,-1
 768 1280 l 1,29,-1
 1024 1280 l 1,30,-1
 1024 1024 l 1,31,-1
 768 1024 l 1,28,-1
1024 1024 m 1,32,-1
 1024 1280 l 1,33,-1
 1280 1280 l 1,34,-1
 1280 1024 l 1,35,-1
 1024 1024 l 1,32,-1
1280 1024 m 1,36,-1
 1280 1280 l 1,37,-1
 1536 1280 l 1,38,-1
 1536 1024 l 1,39,-1
 1280 1024 l 1,36,-1
1536 1024 m 1,40,-1
 1536 1280 l 1,41,-1
 1792 1280 l 1,42,-1
 1792 1024 l 1,43,-1
 1536 1024 l 1,40,-1
0 768 m 1,44,-1
 0 1024 l 1,45,-1
 256 1024 l 1,46,-1
 256 768 l 1,47,-1
 0 768 l 1,44,-1
256 768 m 1,48,-1
 256 1024 l 1,49,-1
 512 1024 l 1,50,-1
 512 768 l 1,51,-1
 256 768 l 1,48,-1
512 768 m 1,52,-1
 512 1024 l 1,53,-1
 768 1024 l 1,54,-1
 768 768 l 1,55,-1
 512 768 l 1,52,-1
768 768 m 1,56,-1
 768 1024 l 1,57,-1
 1024 1024 l 1,58,-1
 1024 768 l 1,59,-1
 768 768 l 1,56,-1
1024 768 m 1,60,-1
 1024 1024 l 1,61,-1
 1280 1024 l 1,62,-1
 1280 768 l 1,63,-1
 1024 768 l 1,60,-1
1280 768 m 1,64,-1
 1280 1024 l 1,65,-1
 1536 1024 l 1,66,-1
 1536 768 l 1,67,-1
 1280 768 l 1,64,-1
1536 768 m 1,68,-1
 1536 1024 l 1,69,-1
 1792 1024 l 1,70,-1
 1792 768 l 1,71,-1
 1536 768 l 1,68,-1
256 512 m 1,72,-1
 256 768 l 1,73,-1
 512 768 l 1,74,-1
 512 512 l 1,75,-1
 256 512 l 1,72,-1
512 512 m 1,76,-1
 512 768 l 1,77,-1
 768 768 l 1,78,-1
 768 512 l 1,79,-1
 512 512 l 1,76,-1
1024 512 m 1,80,-1
 1024 768 l 1,81,-1
 1280 768 l 1,82,-1
 1280 512 l 1,83,-1
 1024 512 l 1,80,-1
1280 512 m 1,84,-1
 1280 768 l 1,85,-1
 1536 768 l 1,86,-1
 1536 512 l 1,87,-1
 1280 512 l 1,84,-1
0 256 m 1,88,-1
 0 512 l 1,89,-1
 256 512 l 1,90,-1
 256 256 l 1,91,-1
 0 256 l 1,88,-1
256 256 m 1,92,-1
 256 512 l 1,93,-1
 512 512 l 1,94,-1
 512 256 l 1,95,-1
 256 256 l 1,92,-1
512 256 m 1,96,-1
 512 512 l 1,97,-1
 768 512 l 1,98,-1
 768 256 l 1,99,-1
 512 256 l 1,96,-1
768 256 m 1,100,-1
 768 512 l 1,101,-1
 1024 512 l 1,102,-1
 1024 256 l 1,103,-1
 768 256 l 1,100,-1
1024 256 m 1,104,-1
 1024 512 l 1,105,-1
 1280 512 l 1,106,-1
 1280 256 l 1,107,-1
 1024 256 l 1,104,-1
1280 256 m 1,108,-1
 1280 512 l 1,109,-1
 1536 512 l 1,110,-1
 1536 256 l 1,111,-1
 1280 256 l 1,108,-1
1536 256 m 1,112,-1
 1536 512 l 1,113,-1
 1792 512 l 1,114,-1
 1792 256 l 1,115,-1
 1536 256 l 1,112,-1
0 0 m 1,116,-1
 0 256 l 1,117,-1
 256 256 l 1,118,-1
 256 0 l 1,119,-1
 0 0 l 1,116,-1
256 0 m 1,120,-1
 256 256 l 1,121,-1
 512 256 l 1,122,-1
 512 0 l 1,123,-1
 256 0 l 1,120,-1
512 0 m 1,124,-1
 512 256 l 1,125,-1
 768 256 l 1,126,-1
 768 0 l 1,127,-1
 512 0 l 1,124,-1
768 0 m 1,128,-1
 768 256 l 1,129,-1
 1024 256 l 1,130,-1
 1024 0 l 1,131,-1
 768 0 l 1,128,-1
1024 0 m 1,132,-1
 1024 256 l 1,133,-1
 1280 256 l 1,134,-1
 1280 0 l 1,135,-1
 1024 0 l 1,132,-1
1280 0 m 1,136,-1
 1280 256 l 1,137,-1
 1536 256 l 1,138,-1
 1536 0 l 1,139,-1
 1280 0 l 1,136,-1
1536 0 m 1,140,-1
 1536 256 l 1,141,-1
 1792 256 l 1,142,-1
 1792 0 l 1,143,-1
 1536 0 l 1,140,-1
256 -256 m 1,144,-1
 256 0 l 1,145,-1
 512 0 l 1,146,-1
 512 -256 l 1,147,-1
 256 -256 l 1,144,-1
512 -256 m 1,148,-1
 512 0 l 1,149,-1
 768 0 l 1,150,-1
 768 -256 l 1,151,-1
 512 -256 l 1,148,-1
1024 -256 m 1,152,-1
 1024 0 l 1,153,-1
 1280 0 l 1,154,-1
 1280 -256 l 1,155,-1
 1024 -256 l 1,152,-1
1280 -256 m 1,156,-1
 1280 0 l 1,157,-1
 1536 0 l 1,158,-1
 1536 -256 l 1,159,-1
 1280 -256 l 1,156,-1
EndSplineSet
Validated: 3077
EndChar

StartChar: dollar
Encoding: 36 36 86
Width: 2048
LayerCount: 2
Fore
SplineSet
768 1536 m 1,0,-1
 768 1792 l 1,1,-1
 1024 1792 l 1,2,-1
 1024 1536 l 1,3,-1
 768 1536 l 1,0,-1
256 1280 m 1,4,-1
 256 1536 l 1,5,-1
 512 1536 l 1,6,-1
 512 1280 l 1,7,-1
 256 1280 l 1,4,-1
512 1280 m 1,8,-1
 512 1536 l 1,9,-1
 768 1536 l 1,10,-1
 768 1280 l 1,11,-1
 512 1280 l 1,8,-1
768 1280 m 1,12,-1
 768 1536 l 1,13,-1
 1024 1536 l 1,14,-1
 1024 1280 l 1,15,-1
 768 1280 l 1,12,-1
1024 1280 m 1,16,-1
 1024 1536 l 1,17,-1
 1280 1536 l 1,18,-1
 1280 1280 l 1,19,-1
 1024 1280 l 1,16,-1
1280 1280 m 1,20,-1
 1280 1536 l 1,21,-1
 1536 1536 l 1,22,-1
 1536 1280 l 1,23,-1
 1280 1280 l 1,20,-1
0 1024 m 1,24,-1
 0 1280 l 1,25,-1
 256 1280 l 1,26,-1
 256 1024 l 1,27,-1
 0 1024 l 1,24,-1
256 1024 m 1,28,-1
 256 1280 l 1,29,-1
 512 1280 l 1,30,-1
 512 1024 l 1,31,-1
 256 1024 l 1,28,-1
1280 1024 m 1,32,-1
 1280 1280 l 1,33,-1
 1536 1280 l 1,34,-1
 1536 1024 l 1,35,-1
 1280 1024 l 1,32,-1
1536 1024 m 1,36,-1
 1536 1280 l 1,37,-1
 1792 1280 l 1,38,-1
 1792 1024 l 1,39,-1
 1536 1024 l 1,36,-1
0 768 m 1,40,-1
 0 1024 l 1,41,-1
 256 1024 l 1,42,-1
 256 768 l 1,43,-1
 0 768 l 1,40,-1
256 768 m 1,44,-1
 256 1024 l 1,45,-1
 512 1024 l 1,46,-1
 512 768 l 1,47,-1
 256 768 l 1,44,-1
512 768 m 1,48,-1
 512 1024 l 1,49,-1
 768 1024 l 1,50,-1
 768 768 l 1,51,-1
 512 768 l 1,48,-1
768 768 m 1,52,-1
 768 1024 l 1,53,-1
 1024 1024 l 1,54,-1
 1024 768 l 1,55,-1
 768 768 l 1,52,-1
768 512 m 1,56,-1
 768 768 l 1,57,-1
 1024 768 l 1,58,-1
 1024 512 l 1,59,-1
 768 512 l 1,56,-1
1024 512 m 1,60,-1
 1024 768 l 1,61,-1
 1280 768 l 1,62,-1
 1280 512 l 1,63,-1
 1024 512 l 1,60,-1
1280 512 m 1,64,-1
 1280 768 l 1,65,-1
 1536 768 l 1,66,-1
 1536 512 l 1,67,-1
 1280 512 l 1,64,-1
1536 512 m 1,68,-1
 1536 768 l 1,69,-1
 1792 768 l 1,70,-1
 1792 512 l 1,71,-1
 1536 512 l 1,68,-1
0 256 m 1,72,-1
 0 512 l 1,73,-1
 256 512 l 1,74,-1
 256 256 l 1,75,-1
 0 256 l 1,72,-1
256 256 m 1,76,-1
 256 512 l 1,77,-1
 512 512 l 1,78,-1
 512 256 l 1,79,-1
 256 256 l 1,76,-1
1280 256 m 1,80,-1
 1280 512 l 1,81,-1
 1536 512 l 1,82,-1
 1536 256 l 1,83,-1
 1280 256 l 1,80,-1
1536 256 m 1,84,-1
 1536 512 l 1,85,-1
 1792 512 l 1,86,-1
 1792 256 l 1,87,-1
 1536 256 l 1,84,-1
256 0 m 1,88,-1
 256 256 l 1,89,-1
 512 256 l 1,90,-1
 512 0 l 1,91,-1
 256 0 l 1,88,-1
512 0 m 1,92,-1
 512 256 l 1,93,-1
 768 256 l 1,94,-1
 768 0 l 1,95,-1
 512 0 l 1,92,-1
768 0 m 1,96,-1
 768 256 l 1,97,-1
 1024 256 l 1,98,-1
 1024 0 l 1,99,-1
 768 0 l 1,96,-1
1024 0 m 1,100,-1
 1024 256 l 1,101,-1
 1280 256 l 1,102,-1
 1280 0 l 1,103,-1
 1024 0 l 1,100,-1
1280 0 m 1,104,-1
 1280 256 l 1,105,-1
 1536 256 l 1,106,-1
 1536 0 l 1,107,-1
 1280 0 l 1,104,-1
768 -256 m 1,108,-1
 768 0 l 1,109,-1
 1024 0 l 1,110,-1
 1024 -256 l 1,111,-1
 768 -256 l 1,108,-1
EndSplineSet
Validated: 3077
EndChar

StartChar: percent
Encoding: 37 37 87
Width: 2048
LayerCount: 2
Fore
SplineSet
0 1536 m 1,0,-1
 0 1792 l 1,1,-1
 256 1792 l 1,2,-1
 256 1536 l 1,3,-1
 0 1536 l 1,0,-1
256 1536 m 1,4,-1
 256 1792 l 1,5,-1
 512 1792 l 1,6,-1
 512 1536 l 1,7,-1
 256 1536 l 1,4,-1
512 1536 m 1,8,-1
 512 1792 l 1,9,-1
 768 1792 l 1,10,-1
 768 1536 l 1,11,-1
 512 1536 l 1,8,-1
1280 1536 m 1,12,-1
 1280 1792 l 1,13,-1
 1536 1792 l 1,14,-1
 1536 1536 l 1,15,-1
 1280 1536 l 1,12,-1
1536 1536 m 1,16,-1
 1536 1792 l 1,17,-1
 1792 1792 l 1,18,-1
 1792 1536 l 1,19,-1
 1536 1536 l 1,16,-1
0 1280 m 1,20,-1
 0 1536 l 1,21,-1
 256 1536 l 1,22,-1
 256 1280 l 1,23,-1
 0 1280 l 1,20,-1
512 1280 m 1,24,-1
 512 1536 l 1,25,-1
 768 1536 l 1,26,-1
 768 1280 l 1,27,-1
 512 1280 l 1,24,-1
1024 1280 m 1,28,-1
 1024 1536 l 1,29,-1
 1280 1536 l 1,30,-1
 1280 1280 l 1,31,-1
 1024 1280 l 1,28,-1
1280 1280 m 1,32,-1
 1280 1536 l 1,33,-1
 1536 1536 l 1,34,-1
 1536 1280 l 1,35,-1
 1280 1280 l 1,32,-1
0 1024 m 1,36,-1
 0 1280 l 1,37,-1
 256 1280 l 1,38,-1
 256 1024 l 1,39,-1
 0 1024 l 1,36,-1
256 1024 m 1,40,-1
 256 1280 l 1,41,-1
 512 1280 l 1,42,-1
 512 1024 l 1,43,-1
 256 1024 l 1,40,-1
512 1024 m 1,44,-1
 512 1280 l 1,45,-1
 768 1280 l 1,46,-1
 768 1024 l 1,47,-1
 512 1024 l 1,44,-1
1024 1024 m 1,48,-1
 1024 1280 l 1,49,-1
 1280 1280 l 1,50,-1
 1280 1024 l 1,51,-1
 1024 1024 l 1,48,-1
1280 1024 m 1,52,-1
 1280 1280 l 1,53,-1
 1536 1280 l 1,54,-1
 1536 1024 l 1,55,-1
 1280 1024 l 1,52,-1
768 768 m 1,56,-1
 768 1024 l 1,57,-1
 1024 1024 l 1,58,-1
 1024 768 l 1,59,-1
 768 768 l 1,56,-1
1024 768 m 1,60,-1
 1024 1024 l 1,61,-1
 1280 1024 l 1,62,-1
 1280 768 l 1,63,-1
 1024 768 l 1,60,-1
768 512 m 1,64,-1
 768 768 l 1,65,-1
 1024 768 l 1,66,-1
 1024 512 l 1,67,-1
 768 512 l 1,64,-1
1024 512 m 1,68,-1
 1024 768 l 1,69,-1
 1280 768 l 1,70,-1
 1280 512 l 1,71,-1
 1024 512 l 1,68,-1
512 256 m 1,72,-1
 512 512 l 1,73,-1
 768 512 l 1,74,-1
 768 256 l 1,75,-1
 512 256 l 1,72,-1
768 256 m 1,76,-1
 768 512 l 1,77,-1
 1024 512 l 1,78,-1
 1024 256 l 1,79,-1
 768 256 l 1,76,-1
1280 256 m 1,80,-1
 1280 512 l 1,81,-1
 1536 512 l 1,82,-1
 1536 256 l 1,83,-1
 1280 256 l 1,80,-1
1536 256 m 1,84,-1
 1536 512 l 1,85,-1
 1792 512 l 1,86,-1
 1792 256 l 1,87,-1
 1536 256 l 1,84,-1
1792 256 m 1,88,-1
 1792 512 l 1,89,-1
 2048 512 l 1,90,-1
 2048 256 l 1,91,-1
 1792 256 l 1,88,-1
512 0 m 1,92,-1
 512 256 l 1,93,-1
 768 256 l 1,94,-1
 768 0 l 1,95,-1
 512 0 l 1,92,-1
768 0 m 1,96,-1
 768 256 l 1,97,-1
 1024 256 l 1,98,-1
 1024 0 l 1,99,-1
 768 0 l 1,96,-1
1280 0 m 1,100,-1
 1280 256 l 1,101,-1
 1536 256 l 1,102,-1
 1536 0 l 1,103,-1
 1280 0 l 1,100,-1
1792 0 m 1,104,-1
 1792 256 l 1,105,-1
 2048 256 l 1,106,-1
 2048 0 l 1,107,-1
 1792 0 l 1,104,-1
256 -256 m 1,108,-1
 256 0 l 1,109,-1
 512 0 l 1,110,-1
 512 -256 l 1,111,-1
 256 -256 l 1,108,-1
512 -256 m 1,112,-1
 512 0 l 1,113,-1
 768 0 l 1,114,-1
 768 -256 l 1,115,-1
 512 -256 l 1,112,-1
1280 -256 m 1,116,-1
 1280 0 l 1,117,-1
 1536 0 l 1,118,-1
 1536 -256 l 1,119,-1
 1280 -256 l 1,116,-1
1536 -256 m 1,120,-1
 1536 0 l 1,121,-1
 1792 0 l 1,122,-1
 1792 -256 l 1,123,-1
 1536 -256 l 1,120,-1
1792 -256 m 1,124,-1
 1792 0 l 1,125,-1
 2048 0 l 1,126,-1
 2048 -256 l 1,127,-1
 1792 -256 l 1,124,-1
EndSplineSet
Validated: 3077
EndChar

StartChar: slash
Encoding: 47 47 88
Width: 2048
LayerCount: 2
Fore
SplineSet
1280 1536 m 1,0,-1
 1280 1792 l 1,1,-1
 1536 1792 l 1,2,-1
 1536 1536 l 1,3,-1
 1280 1536 l 1,0,-1
1536 1536 m 1,4,-1
 1536 1792 l 1,5,-1
 1792 1792 l 1,6,-1
 1792 1536 l 1,7,-1
 1536 1536 l 1,4,-1
1024 1280 m 1,8,-1
 1024 1536 l 1,9,-1
 1280 1536 l 1,10,-1
 1280 1280 l 1,11,-1
 1024 1280 l 1,8,-1
1280 1280 m 1,12,-1
 1280 1536 l 1,13,-1
 1536 1536 l 1,14,-1
 1536 1280 l 1,15,-1
 1280 1280 l 1,12,-1
1024 1024 m 1,16,-1
 1024 1280 l 1,17,-1
 1280 1280 l 1,18,-1
 1280 1024 l 1,19,-1
 1024 1024 l 1,16,-1
1280 1024 m 1,20,-1
 1280 1280 l 1,21,-1
 1536 1280 l 1,22,-1
 1536 1024 l 1,23,-1
 1280 1024 l 1,20,-1
768 768 m 1,24,-1
 768 1024 l 1,25,-1
 1024 1024 l 1,26,-1
 1024 768 l 1,27,-1
 768 768 l 1,24,-1
1024 768 m 1,28,-1
 1024 1024 l 1,29,-1
 1280 1024 l 1,30,-1
 1280 768 l 1,31,-1
 1024 768 l 1,28,-1
768 512 m 1,32,-1
 768 768 l 1,33,-1
 1024 768 l 1,34,-1
 1024 512 l 1,35,-1
 768 512 l 1,32,-1
1024 512 m 1,36,-1
 1024 768 l 1,37,-1
 1280 768 l 1,38,-1
 1280 512 l 1,39,-1
 1024 512 l 1,36,-1
512 256 m 1,40,-1
 512 512 l 1,41,-1
 768 512 l 1,42,-1
 768 256 l 1,43,-1
 512 256 l 1,40,-1
768 256 m 1,44,-1
 768 512 l 1,45,-1
 1024 512 l 1,46,-1
 1024 256 l 1,47,-1
 768 256 l 1,44,-1
512 0 m 1,48,-1
 512 256 l 1,49,-1
 768 256 l 1,50,-1
 768 0 l 1,51,-1
 512 0 l 1,48,-1
768 0 m 1,52,-1
 768 256 l 1,53,-1
 1024 256 l 1,54,-1
 1024 0 l 1,55,-1
 768 0 l 1,52,-1
256 -256 m 1,56,-1
 256 0 l 1,57,-1
 512 0 l 1,58,-1
 512 -256 l 1,59,-1
 256 -256 l 1,56,-1
512 -256 m 1,60,-1
 512 0 l 1,61,-1
 768 0 l 1,62,-1
 768 -256 l 1,63,-1
 512 -256 l 1,60,-1
EndSplineSet
Validated: 3077
EndChar

StartChar: less
Encoding: 60 60 89
Width: 2048
LayerCount: 2
Fore
SplineSet
1280 1280 m 1,0,-1
 1280 1536 l 1,1,-1
 1536 1536 l 1,2,-1
 1536 1280 l 1,3,-1
 1280 1280 l 1,0,-1
1024 1024 m 1,4,-1
 1024 1280 l 1,5,-1
 1280 1280 l 1,6,-1
 1280 1024 l 1,7,-1
 1024 1024 l 1,4,-1
1280 1024 m 1,8,-1
 1280 1280 l 1,9,-1
 1536 1280 l 1,10,-1
 1536 1024 l 1,11,-1
 1280 1024 l 1,8,-1
768 768 m 1,12,-1
 768 1024 l 1,13,-1
 1024 1024 l 1,14,-1
 1024 768 l 1,15,-1
 768 768 l 1,12,-1
1024 768 m 1,16,-1
 1024 1024 l 1,17,-1
 1280 1024 l 1,18,-1
 1280 768 l 1,19,-1
 1024 768 l 1,16,-1
1280 768 m 1,20,-1
 1280 1024 l 1,21,-1
 1536 1024 l 1,22,-1
 1536 768 l 1,23,-1
 1280 768 l 1,20,-1
512 512 m 1,24,-1
 512 768 l 1,25,-1
 768 768 l 1,26,-1
 768 512 l 1,27,-1
 512 512 l 1,24,-1
768 512 m 1,28,-1
 768 768 l 1,29,-1
 1024 768 l 1,30,-1
 1024 512 l 1,31,-1
 768 512 l 1,28,-1
1024 512 m 1,32,-1
 1024 768 l 1,33,-1
 1280 768 l 1,34,-1
 1280 512 l 1,35,-1
 1024 512 l 1,32,-1
1280 512 m 1,36,-1
 1280 768 l 1,37,-1
 1536 768 l 1,38,-1
 1536 512 l 1,39,-1
 1280 512 l 1,36,-1
768 256 m 1,40,-1
 768 512 l 1,41,-1
 1024 512 l 1,42,-1
 1024 256 l 1,43,-1
 768 256 l 1,40,-1
1024 256 m 1,44,-1
 1024 512 l 1,45,-1
 1280 512 l 1,46,-1
 1280 256 l 1,47,-1
 1024 256 l 1,44,-1
1280 256 m 1,48,-1
 1280 512 l 1,49,-1
 1536 512 l 1,50,-1
 1536 256 l 1,51,-1
 1280 256 l 1,48,-1
1024 0 m 1,52,-1
 1024 256 l 1,53,-1
 1280 256 l 1,54,-1
 1280 0 l 1,55,-1
 1024 0 l 1,52,-1
1280 0 m 1,56,-1
 1280 256 l 1,57,-1
 1536 256 l 1,58,-1
 1536 0 l 1,59,-1
 1280 0 l 1,56,-1
1280 -256 m 1,60,-1
 1280 0 l 1,61,-1
 1536 0 l 1,62,-1
 1536 -256 l 1,63,-1
 1280 -256 l 1,60,-1
EndSplineSet
Validated: 3077
EndChar

StartChar: greater
Encoding: 62 62 90
Width: 2048
LayerCount: 2
Fore
SplineSet
512 1280 m 1,0,-1
 512 1536 l 1,1,-1
 768 1536 l 1,2,-1
 768 1280 l 1,3,-1
 512 1280 l 1,0,-1
512 1024 m 1,4,-1
 512 1280 l 1,5,-1
 768 1280 l 1,6,-1
 768 1024 l 1,7,-1
 512 1024 l 1,4,-1
768 1024 m 1,8,-1
 768 1280 l 1,9,-1
 1024 1280 l 1,10,-1
 1024 1024 l 1,11,-1
 768 1024 l 1,8,-1
512 768 m 1,12,-1
 512 1024 l 1,13,-1
 768 1024 l 1,14,-1
 768 768 l 1,15,-1
 512 768 l 1,12,-1
768 768 m 1,16,-1
 768 1024 l 1,17,-1
 1024 1024 l 1,18,-1
 1024 768 l 1,19,-1
 768 768 l 1,16,-1
1024 768 m 1,20,-1
 1024 1024 l 1,21,-1
 1280 1024 l 1,22,-1
 1280 768 l 1,23,-1
 1024 768 l 1,20,-1
512 512 m 1,24,-1
 512 768 l 1,25,-1
 768 768 l 1,26,-1
 768 512 l 1,27,-1
 512 512 l 1,24,-1
768 512 m 1,28,-1
 768 768 l 1,29,-1
 1024 768 l 1,30,-1
 1024 512 l 1,31,-1
 768 512 l 1,28,-1
1024 512 m 1,32,-1
 1024 768 l 1,33,-1
 1280 768 l 1,34,-1
 1280 512 l 1,35,-1
 1024 512 l 1,32,-1
1280 512 m 1,36,-1
 1280 768 l 1,37,-1
 1536 768 l 1,38,-1
 1536 512 l 1,39,-1
 1280 512 l 1,36,-1
512 256 m 1,40,-1
 512 512 l 1,41,-1
 768 512 l 1,42,-1
 768 256 l 1,43,-1
 512 256 l 1,40,-1
768 256 m 1,44,-1
 768 512 l 1,45,-1
 1024 512 l 1,46,-1
 1024 256 l 1,47,-1
 768 256 l 1,44,-1
1024 256 m 1,48,-1
 1024 512 l 1,49,-1
 1280 512 l 1,50,-1
 1280 256 l 1,51,-1
 1024 256 l 1,48,-1
512 0 m 1,52,-1
 512 256 l 1,53,-1
 768 256 l 1,54,-1
 768 0 l 1,55,-1
 512 0 l 1,52,-1
768 0 m 1,56,-1
 768 256 l 1,57,-1
 1024 256 l 1,58,-1
 1024 0 l 1,59,-1
 768 0 l 1,56,-1
512 -256 m 1,60,-1
 512 0 l 1,61,-1
 768 0 l 1,62,-1
 768 -256 l 1,63,-1
 512 -256 l 1,60,-1
EndSplineSet
Validated: 3077
EndChar

StartChar: at
Encoding: 64 64 91
Width: 2048
LayerCount: 2
Fore
SplineSet
256 1280 m 1,0,-1
 256 1536 l 1,1,-1
 512 1536 l 1,2,-1
 512 1280 l 1,3,-1
 256 1280 l 1,0,-1
512 1280 m 1,4,-1
 512 1536 l 1,5,-1
 768 1536 l 1,6,-1
 768 1280 l 1,7,-1
 512 1280 l 1,4,-1
768 1280 m 1,8,-1
 768 1536 l 1,9,-1
 1024 1536 l 1,10,-1
 1024 1280 l 1,11,-1
 768 1280 l 1,8,-1
1024 1280 m 1,12,-1
 1024 1536 l 1,13,-1
 1280 1536 l 1,14,-1
 1280 1280 l 1,15,-1
 1024 1280 l 1,12,-1
1280 1280 m 1,16,-1
 1280 1536 l 1,17,-1
 1536 1536 l 1,18,-1
 1536 1280 l 1,19,-1
 1280 1280 l 1,16,-1
0 1024 m 1,20,-1
 0 1280 l 1,21,-1
 256 1280 l 1,22,-1
 256 1024 l 1,23,-1
 0 1024 l 1,20,-1
1536 1024 m 1,24,-1
 1536 1280 l 1,25,-1
 1792 1280 l 1,26,-1
 1792 1024 l 1,27,-1
 1536 1024 l 1,24,-1
0 768 m 1,28,-1
 0 1024 l 1,29,-1
 256 1024 l 1,30,-1
 256 768 l 1,31,-1
 0 768 l 1,28,-1
768 768 m 1,32,-1
 768 1024 l 1,33,-1
 1024 1024 l 1,34,-1
 1024 768 l 1,35,-1
 768 768 l 1,32,-1
1024 768 m 1,36,-1
 1024 1024 l 1,37,-1
 1280 1024 l 1,38,-1
 1280 768 l 1,39,-1
 1024 768 l 1,36,-1
1536 768 m 1,40,-1
 1536 1024 l 1,41,-1
 1792 1024 l 1,42,-1
 1792 768 l 1,43,-1
 1536 768 l 1,40,-1
0 512 m 1,44,-1
 0 768 l 1,45,-1
 256 768 l 1,46,-1
 256 512 l 1,47,-1
 0 512 l 1,44,-1
512 512 m 1,48,-1
 512 768 l 1,49,-1
 768 768 l 1,50,-1
 768 512 l 1,51,-1
 512 512 l 1,48,-1
1024 512 m 1,52,-1
 1024 768 l 1,53,-1
 1280 768 l 1,54,-1
 1280 512 l 1,55,-1
 1024 512 l 1,52,-1
1536 512 m 1,56,-1
 1536 768 l 1,57,-1
 1792 768 l 1,58,-1
 1792 512 l 1,59,-1
 1536 512 l 1,56,-1
0 256 m 1,60,-1
 0 512 l 1,61,-1
 256 512 l 1,62,-1
 256 256 l 1,63,-1
 0 256 l 1,60,-1
512 256 m 1,64,-1
 512 512 l 1,65,-1
 768 512 l 1,66,-1
 768 256 l 1,67,-1
 512 256 l 1,64,-1
768 256 m 1,68,-1
 768 512 l 1,69,-1
 1024 512 l 1,70,-1
 1024 256 l 1,71,-1
 768 256 l 1,68,-1
1024 256 m 1,72,-1
 1024 512 l 1,73,-1
 1280 512 l 1,74,-1
 1280 256 l 1,75,-1
 1024 256 l 1,72,-1
1536 256 m 1,76,-1
 1536 512 l 1,77,-1
 1792 512 l 1,78,-1
 1792 256 l 1,79,-1
 1536 256 l 1,76,-1
0 0 m 1,80,-1
 0 256 l 1,81,-1
 256 256 l 1,82,-1
 256 0 l 1,83,-1
 0 0 l 1,80,-1
1024 0 m 1,84,-1
 1024 256 l 1,85,-1
 1280 256 l 1,86,-1
 1280 0 l 1,87,-1
 1024 0 l 1,84,-1
1280 0 m 1,88,-1
 1280 256 l 1,89,-1
 1536 256 l 1,90,-1
 1536 0 l 1,91,-1
 1280 0 l 1,88,-1
256 -256 m 1,92,-1
 256 0 l 1,93,-1
 512 0 l 1,94,-1
 512 -256 l 1,95,-1
 256 -256 l 1,92,-1
512 -256 m 1,96,-1
 512 0 l 1,97,-1
 768 0 l 1,98,-1
 768 -256 l 1,99,-1
 512 -256 l 1,96,-1
EndSplineSet
Validated: 3077
EndChar

StartChar: ydieresis
Encoding: 255 255 92
Width: 2048
LayerCount: 2
Fore
SplineSet
256 1536 m 1,0,-1
 256 1792 l 1,1,-1
 512 1792 l 1,2,-1
 512 1536 l 1,3,-1
 256 1536 l 1,0,-1
512 1536 m 1,4,-1
 512 1792 l 1,5,-1
 768 1792 l 1,6,-1
 768 1536 l 1,7,-1
 512 1536 l 1,4,-1
1280 1536 m 1,8,-1
 1280 1792 l 1,9,-1
 1536 1792 l 1,10,-1
 1536 1536 l 1,11,-1
 1280 1536 l 1,8,-1
1536 1536 m 1,12,-1
 1536 1792 l 1,13,-1
 1792 1792 l 1,14,-1
 1792 1536 l 1,15,-1
 1536 1536 l 1,12,-1
256 1024 m 1,16,-1
 256 1280 l 1,17,-1
 512 1280 l 1,18,-1
 512 1024 l 1,19,-1
 256 1024 l 1,16,-1
512 1024 m 1,20,-1
 512 1280 l 1,21,-1
 768 1280 l 1,22,-1
 768 1024 l 1,23,-1
 512 1024 l 1,20,-1
1280 1024 m 1,24,-1
 1280 1280 l 1,25,-1
 1536 1280 l 1,26,-1
 1536 1024 l 1,27,-1
 1280 1024 l 1,24,-1
1536 1024 m 1,28,-1
 1536 1280 l 1,29,-1
 1792 1280 l 1,30,-1
 1792 1024 l 1,31,-1
 1536 1024 l 1,28,-1
256 768 m 1,32,-1
 256 1024 l 1,33,-1
 512 1024 l 1,34,-1
 512 768 l 1,35,-1
 256 768 l 1,32,-1
512 768 m 1,36,-1
 512 1024 l 1,37,-1
 768 1024 l 1,38,-1
 768 768 l 1,39,-1
 512 768 l 1,36,-1
1280 768 m 1,40,-1
 1280 1024 l 1,41,-1
 1536 1024 l 1,42,-1
 1536 768 l 1,43,-1
 1280 768 l 1,40,-1
1536 768 m 1,44,-1
 1536 1024 l 1,45,-1
 1792 1024 l 1,46,-1
 1792 768 l 1,47,-1
 1536 768 l 1,44,-1
512 512 m 1,48,-1
 512 768 l 1,49,-1
 768 768 l 1,50,-1
 768 512 l 1,51,-1
 512 512 l 1,48,-1
768 512 m 1,52,-1
 768 768 l 1,53,-1
 1024 768 l 1,54,-1
 1024 512 l 1,55,-1
 768 512 l 1,52,-1
1024 512 m 1,56,-1
 1024 768 l 1,57,-1
 1280 768 l 1,58,-1
 1280 512 l 1,59,-1
 1024 512 l 1,56,-1
1280 512 m 1,60,-1
 1280 768 l 1,61,-1
 1536 768 l 1,62,-1
 1536 512 l 1,63,-1
 1280 512 l 1,60,-1
1536 512 m 1,64,-1
 1536 768 l 1,65,-1
 1792 768 l 1,66,-1
 1792 512 l 1,67,-1
 1536 512 l 1,64,-1
1280 256 m 1,68,-1
 1280 512 l 1,69,-1
 1536 512 l 1,70,-1
 1536 256 l 1,71,-1
 1280 256 l 1,68,-1
1536 256 m 1,72,-1
 1536 512 l 1,73,-1
 1792 512 l 1,74,-1
 1792 256 l 1,75,-1
 1536 256 l 1,72,-1
256 0 m 1,76,-1
 256 256 l 1,77,-1
 512 256 l 1,78,-1
 512 0 l 1,79,-1
 256 0 l 1,76,-1
512 0 m 1,80,-1
 512 256 l 1,81,-1
 768 256 l 1,82,-1
 768 0 l 1,83,-1
 512 0 l 1,80,-1
768 0 m 1,84,-1
 768 256 l 1,85,-1
 1024 256 l 1,86,-1
 1024 0 l 1,87,-1
 768 0 l 1,84,-1
1024 0 m 1,88,-1
 1024 256 l 1,89,-1
 1280 256 l 1,90,-1
 1280 0 l 1,91,-1
 1024 0 l 1,88,-1
1280 0 m 1,92,-1
 1280 256 l 1,93,-1
 1536 256 l 1,94,-1
 1536 0 l 1,95,-1
 1280 0 l 1,92,-1
EndSplineSet
Validated: 3077
EndChar

StartChar: bracketleft
Encoding: 91 91 93
Width: 2048
LayerCount: 2
Fore
SplineSet
512 1536 m 1,0,-1
 512 1792 l 1,1,-1
 768 1792 l 1,2,-1
 768 1536 l 1,3,-1
 512 1536 l 1,0,-1
768 1536 m 1,4,-1
 768 1792 l 1,5,-1
 1024 1792 l 1,6,-1
 1024 1536 l 1,7,-1
 768 1536 l 1,4,-1
1024 1536 m 1,8,-1
 1024 1792 l 1,9,-1
 1280 1792 l 1,10,-1
 1280 1536 l 1,11,-1
 1024 1536 l 1,8,-1
1280 1536 m 1,12,-1
 1280 1792 l 1,13,-1
 1536 1792 l 1,14,-1
 1536 1536 l 1,15,-1
 1280 1536 l 1,12,-1
512 1280 m 1,16,-1
 512 1536 l 1,17,-1
 768 1536 l 1,18,-1
 768 1280 l 1,19,-1
 512 1280 l 1,16,-1
768 1280 m 1,20,-1
 768 1536 l 1,21,-1
 1024 1536 l 1,22,-1
 1024 1280 l 1,23,-1
 768 1280 l 1,20,-1
512 1024 m 1,24,-1
 512 1280 l 1,25,-1
 768 1280 l 1,26,-1
 768 1024 l 1,27,-1
 512 1024 l 1,24,-1
768 1024 m 1,28,-1
 768 1280 l 1,29,-1
 1024 1280 l 1,30,-1
 1024 1024 l 1,31,-1
 768 1024 l 1,28,-1
512 768 m 1,32,-1
 512 1024 l 1,33,-1
 768 1024 l 1,34,-1
 768 768 l 1,35,-1
 512 768 l 1,32,-1
768 768 m 1,36,-1
 768 1024 l 1,37,-1
 1024 1024 l 1,38,-1
 1024 768 l 1,39,-1
 768 768 l 1,36,-1
512 512 m 1,40,-1
 512 768 l 1,41,-1
 768 768 l 1,42,-1
 768 512 l 1,43,-1
 512 512 l 1,40,-1
768 512 m 1,44,-1
 768 768 l 1,45,-1
 1024 768 l 1,46,-1
 1024 512 l 1,47,-1
 768 512 l 1,44,-1
512 256 m 1,48,-1
 512 512 l 1,49,-1
 768 512 l 1,50,-1
 768 256 l 1,51,-1
 512 256 l 1,48,-1
768 256 m 1,52,-1
 768 512 l 1,53,-1
 1024 512 l 1,54,-1
 1024 256 l 1,55,-1
 768 256 l 1,52,-1
512 0 m 1,56,-1
 512 256 l 1,57,-1
 768 256 l 1,58,-1
 768 0 l 1,59,-1
 512 0 l 1,56,-1
768 0 m 1,60,-1
 768 256 l 1,61,-1
 1024 256 l 1,62,-1
 1024 0 l 1,63,-1
 768 0 l 1,60,-1
1024 0 m 1,64,-1
 1024 256 l 1,65,-1
 1280 256 l 1,66,-1
 1280 0 l 1,67,-1
 1024 0 l 1,64,-1
1280 0 m 1,68,-1
 1280 256 l 1,69,-1
 1536 256 l 1,70,-1
 1536 0 l 1,71,-1
 1280 0 l 1,68,-1
EndSplineSet
Validated: 3077
EndChar

StartChar: backslash
Encoding: 92 92 94
Width: 2048
LayerCount: 2
Fore
SplineSet
256 1536 m 1,0,-1
 256 1792 l 1,1,-1
 512 1792 l 1,2,-1
 512 1536 l 1,3,-1
 256 1536 l 1,0,-1
512 1536 m 1,4,-1
 512 1792 l 1,5,-1
 768 1792 l 1,6,-1
 768 1536 l 1,7,-1
 512 1536 l 1,4,-1
512 1280 m 1,8,-1
 512 1536 l 1,9,-1
 768 1536 l 1,10,-1
 768 1280 l 1,11,-1
 512 1280 l 1,8,-1
768 1280 m 1,12,-1
 768 1536 l 1,13,-1
 1024 1536 l 1,14,-1
 1024 1280 l 1,15,-1
 768 1280 l 1,12,-1
512 1024 m 1,16,-1
 512 1280 l 1,17,-1
 768 1280 l 1,18,-1
 768 1024 l 1,19,-1
 512 1024 l 1,16,-1
768 1024 m 1,20,-1
 768 1280 l 1,21,-1
 1024 1280 l 1,22,-1
 1024 1024 l 1,23,-1
 768 1024 l 1,20,-1
768 768 m 1,24,-1
 768 1024 l 1,25,-1
 1024 1024 l 1,26,-1
 1024 768 l 1,27,-1
 768 768 l 1,24,-1
1024 768 m 1,28,-1
 1024 1024 l 1,29,-1
 1280 1024 l 1,30,-1
 1280 768 l 1,31,-1
 1024 768 l 1,28,-1
768 512 m 1,32,-1
 768 768 l 1,33,-1
 1024 768 l 1,34,-1
 1024 512 l 1,35,-1
 768 512 l 1,32,-1
1024 512 m 1,36,-1
 1024 768 l 1,37,-1
 1280 768 l 1,38,-1
 1280 512 l 1,39,-1
 1024 512 l 1,36,-1
1024 256 m 1,40,-1
 1024 512 l 1,41,-1
 1280 512 l 1,42,-1
 1280 256 l 1,43,-1
 1024 256 l 1,40,-1
1280 256 m 1,44,-1
 1280 512 l 1,45,-1
 1536 512 l 1,46,-1
 1536 256 l 1,47,-1
 1280 256 l 1,44,-1
1024 0 m 1,48,-1
 1024 256 l 1,49,-1
 1280 256 l 1,50,-1
 1280 0 l 1,51,-1
 1024 0 l 1,48,-1
1280 0 m 1,52,-1
 1280 256 l 1,53,-1
 1536 256 l 1,54,-1
 1536 0 l 1,55,-1
 1280 0 l 1,52,-1
1280 -256 m 1,56,-1
 1280 0 l 1,57,-1
 1536 0 l 1,58,-1
 1536 -256 l 1,59,-1
 1280 -256 l 1,56,-1
1536 -256 m 1,60,-1
 1536 0 l 1,61,-1
 1792 0 l 1,62,-1
 1792 -256 l 1,63,-1
 1536 -256 l 1,60,-1
EndSplineSet
Validated: 3077
EndChar

StartChar: bracketright
Encoding: 93 93 95
Width: 2048
LayerCount: 2
Fore
SplineSet
512 1536 m 1,0,-1
 512 1792 l 1,1,-1
 768 1792 l 1,2,-1
 768 1536 l 1,3,-1
 512 1536 l 1,0,-1
768 1536 m 1,4,-1
 768 1792 l 1,5,-1
 1024 1792 l 1,6,-1
 1024 1536 l 1,7,-1
 768 1536 l 1,4,-1
1024 1536 m 1,8,-1
 1024 1792 l 1,9,-1
 1280 1792 l 1,10,-1
 1280 1536 l 1,11,-1
 1024 1536 l 1,8,-1
1280 1536 m 1,12,-1
 1280 1792 l 1,13,-1
 1536 1792 l 1,14,-1
 1536 1536 l 1,15,-1
 1280 1536 l 1,12,-1
1024 1280 m 1,16,-1
 1024 1536 l 1,17,-1
 1280 1536 l 1,18,-1
 1280 1280 l 1,19,-1
 1024 1280 l 1,16,-1
1280 1280 m 1,20,-1
 1280 1536 l 1,21,-1
 1536 1536 l 1,22,-1
 1536 1280 l 1,23,-1
 1280 1280 l 1,20,-1
1024 1024 m 1,24,-1
 1024 1280 l 1,25,-1
 1280 1280 l 1,26,-1
 1280 1024 l 1,27,-1
 1024 1024 l 1,24,-1
1280 1024 m 1,28,-1
 1280 1280 l 1,29,-1
 1536 1280 l 1,30,-1
 1536 1024 l 1,31,-1
 1280 1024 l 1,28,-1
1024 768 m 1,32,-1
 1024 1024 l 1,33,-1
 1280 1024 l 1,34,-1
 1280 768 l 1,35,-1
 1024 768 l 1,32,-1
1280 768 m 1,36,-1
 1280 1024 l 1,37,-1
 1536 1024 l 1,38,-1
 1536 768 l 1,39,-1
 1280 768 l 1,36,-1
1024 512 m 1,40,-1
 1024 768 l 1,41,-1
 1280 768 l 1,42,-1
 1280 512 l 1,43,-1
 1024 512 l 1,40,-1
1280 512 m 1,44,-1
 1280 768 l 1,45,-1
 1536 768 l 1,46,-1
 1536 512 l 1,47,-1
 1280 512 l 1,44,-1
1024 256 m 1,48,-1
 1024 512 l 1,49,-1
 1280 512 l 1,50,-1
 1280 256 l 1,51,-1
 1024 256 l 1,48,-1
1280 256 m 1,52,-1
 1280 512 l 1,53,-1
 1536 512 l 1,54,-1
 1536 256 l 1,55,-1
 1280 256 l 1,52,-1
512 0 m 1,56,-1
 512 256 l 1,57,-1
 768 256 l 1,58,-1
 768 0 l 1,59,-1
 512 0 l 1,56,-1
768 0 m 1,60,-1
 768 256 l 1,61,-1
 1024 256 l 1,62,-1
 1024 0 l 1,63,-1
 768 0 l 1,60,-1
1024 0 m 1,64,-1
 1024 256 l 1,65,-1
 1280 256 l 1,66,-1
 1280 0 l 1,67,-1
 1024 0 l 1,64,-1
1280 0 m 1,68,-1
 1280 256 l 1,69,-1
 1536 256 l 1,70,-1
 1536 0 l 1,71,-1
 1280 0 l 1,68,-1
EndSplineSet
Validated: 3077
EndChar

StartChar: yen
Encoding: 165 165 96
Width: 2048
LayerCount: 2
Fore
SplineSet
256 1536 m 1,0,-1
 256 1792 l 1,1,-1
 512 1792 l 1,2,-1
 512 1536 l 1,3,-1
 256 1536 l 1,0,-1
512 1536 m 1,4,-1
 512 1792 l 1,5,-1
 768 1792 l 1,6,-1
 768 1536 l 1,7,-1
 512 1536 l 1,4,-1
1280 1536 m 1,8,-1
 1280 1792 l 1,9,-1
 1536 1792 l 1,10,-1
 1536 1536 l 1,11,-1
 1280 1536 l 1,8,-1
1536 1536 m 1,12,-1
 1536 1792 l 1,13,-1
 1792 1792 l 1,14,-1
 1792 1536 l 1,15,-1
 1536 1536 l 1,12,-1
256 1280 m 1,16,-1
 256 1536 l 1,17,-1
 512 1536 l 1,18,-1
 512 1280 l 1,19,-1
 256 1280 l 1,16,-1
512 1280 m 1,20,-1
 512 1536 l 1,21,-1
 768 1536 l 1,22,-1
 768 1280 l 1,23,-1
 512 1280 l 1,20,-1
1280 1280 m 1,24,-1
 1280 1536 l 1,25,-1
 1536 1536 l 1,26,-1
 1536 1280 l 1,27,-1
 1280 1280 l 1,24,-1
1536 1280 m 1,28,-1
 1536 1536 l 1,29,-1
 1792 1536 l 1,30,-1
 1792 1280 l 1,31,-1
 1536 1280 l 1,28,-1
512 1024 m 1,32,-1
 512 1280 l 1,33,-1
 768 1280 l 1,34,-1
 768 1024 l 1,35,-1
 512 1024 l 1,32,-1
768 1024 m 1,36,-1
 768 1280 l 1,37,-1
 1024 1280 l 1,38,-1
 1024 1024 l 1,39,-1
 768 1024 l 1,36,-1
1024 1024 m 1,40,-1
 1024 1280 l 1,41,-1
 1280 1280 l 1,42,-1
 1280 1024 l 1,43,-1
 1024 1024 l 1,40,-1
1280 1024 m 1,44,-1
 1280 1280 l 1,45,-1
 1536 1280 l 1,46,-1
 1536 1024 l 1,47,-1
 1280 1024 l 1,44,-1
256 768 m 1,48,-1
 256 1024 l 1,49,-1
 512 1024 l 1,50,-1
 512 768 l 1,51,-1
 256 768 l 1,48,-1
512 768 m 1,52,-1
 512 1024 l 1,53,-1
 768 1024 l 1,54,-1
 768 768 l 1,55,-1
 512 768 l 1,52,-1
768 768 m 1,56,-1
 768 1024 l 1,57,-1
 1024 1024 l 1,58,-1
 1024 768 l 1,59,-1
 768 768 l 1,56,-1
1024 768 m 1,60,-1
 1024 1024 l 1,61,-1
 1280 1024 l 1,62,-1
 1280 768 l 1,63,-1
 1024 768 l 1,60,-1
1280 768 m 1,64,-1
 1280 1024 l 1,65,-1
 1536 1024 l 1,66,-1
 1536 768 l 1,67,-1
 1280 768 l 1,64,-1
1536 768 m 1,68,-1
 1536 1024 l 1,69,-1
 1792 1024 l 1,70,-1
 1792 768 l 1,71,-1
 1536 768 l 1,68,-1
768 512 m 1,72,-1
 768 768 l 1,73,-1
 1024 768 l 1,74,-1
 1024 512 l 1,75,-1
 768 512 l 1,72,-1
1024 512 m 1,76,-1
 1024 768 l 1,77,-1
 1280 768 l 1,78,-1
 1280 512 l 1,79,-1
 1024 512 l 1,76,-1
256 256 m 1,80,-1
 256 512 l 1,81,-1
 512 512 l 1,82,-1
 512 256 l 1,83,-1
 256 256 l 1,80,-1
512 256 m 1,84,-1
 512 512 l 1,85,-1
 768 512 l 1,86,-1
 768 256 l 1,87,-1
 512 256 l 1,84,-1
768 256 m 1,88,-1
 768 512 l 1,89,-1
 1024 512 l 1,90,-1
 1024 256 l 1,91,-1
 768 256 l 1,88,-1
1024 256 m 1,92,-1
 1024 512 l 1,93,-1
 1280 512 l 1,94,-1
 1280 256 l 1,95,-1
 1024 256 l 1,92,-1
1280 256 m 1,96,-1
 1280 512 l 1,97,-1
 1536 512 l 1,98,-1
 1536 256 l 1,99,-1
 1280 256 l 1,96,-1
1536 256 m 1,100,-1
 1536 512 l 1,101,-1
 1792 512 l 1,102,-1
 1792 256 l 1,103,-1
 1536 256 l 1,100,-1
768 0 m 1,104,-1
 768 256 l 1,105,-1
 1024 256 l 1,106,-1
 1024 0 l 1,107,-1
 768 0 l 1,104,-1
1024 0 m 1,108,-1
 1024 256 l 1,109,-1
 1280 256 l 1,110,-1
 1280 0 l 1,111,-1
 1024 0 l 1,108,-1
EndSplineSet
Validated: 3077
EndChar

StartChar: asciicircum
Encoding: 94 94 97
Width: 2048
LayerCount: 2
Fore
SplineSet
768 1024 m 1,0,-1
 768 1280 l 1,1,-1
 1024 1280 l 1,2,-1
 1024 1024 l 1,3,-1
 768 1024 l 1,0,-1
512 768 m 1,4,-1
 512 1024 l 1,5,-1
 768 1024 l 1,6,-1
 768 768 l 1,7,-1
 512 768 l 1,4,-1
768 768 m 1,8,-1
 768 1024 l 1,9,-1
 1024 1024 l 1,10,-1
 1024 768 l 1,11,-1
 768 768 l 1,8,-1
1024 768 m 1,12,-1
 1024 1024 l 1,13,-1
 1280 1024 l 1,14,-1
 1280 768 l 1,15,-1
 1024 768 l 1,12,-1
256 512 m 1,16,-1
 256 768 l 1,17,-1
 512 768 l 1,18,-1
 512 512 l 1,19,-1
 256 512 l 1,16,-1
512 512 m 1,20,-1
 512 768 l 1,21,-1
 768 768 l 1,22,-1
 768 512 l 1,23,-1
 512 512 l 1,20,-1
768 512 m 1,24,-1
 768 768 l 1,25,-1
 1024 768 l 1,26,-1
 1024 512 l 1,27,-1
 768 512 l 1,24,-1
1024 512 m 1,28,-1
 1024 768 l 1,29,-1
 1280 768 l 1,30,-1
 1280 512 l 1,31,-1
 1024 512 l 1,28,-1
1280 512 m 1,32,-1
 1280 768 l 1,33,-1
 1536 768 l 1,34,-1
 1536 512 l 1,35,-1
 1280 512 l 1,32,-1
0 256 m 1,36,-1
 0 512 l 1,37,-1
 256 512 l 1,38,-1
 256 256 l 1,39,-1
 0 256 l 1,36,-1
256 256 m 1,40,-1
 256 512 l 1,41,-1
 512 512 l 1,42,-1
 512 256 l 1,43,-1
 256 256 l 1,40,-1
512 256 m 1,44,-1
 512 512 l 1,45,-1
 768 512 l 1,46,-1
 768 256 l 1,47,-1
 512 256 l 1,44,-1
768 256 m 1,48,-1
 768 512 l 1,49,-1
 1024 512 l 1,50,-1
 1024 256 l 1,51,-1
 768 256 l 1,48,-1
1024 256 m 1,52,-1
 1024 512 l 1,53,-1
 1280 512 l 1,54,-1
 1280 256 l 1,55,-1
 1024 256 l 1,52,-1
1280 256 m 1,56,-1
 1280 512 l 1,57,-1
 1536 512 l 1,58,-1
 1536 256 l 1,59,-1
 1280 256 l 1,56,-1
1536 256 m 1,60,-1
 1536 512 l 1,61,-1
 1792 512 l 1,62,-1
 1792 256 l 1,63,-1
 1536 256 l 1,60,-1
EndSplineSet
Validated: 3077
EndChar

StartChar: underscore
Encoding: 95 95 98
Width: 2048
LayerCount: 2
Fore
SplineSet
0 -256 m 1,0,-1
 0 0 l 1,1,-1
 256 0 l 1,2,-1
 256 -256 l 1,3,-1
 0 -256 l 1,0,-1
256 -256 m 1,4,-1
 256 0 l 1,5,-1
 512 0 l 1,6,-1
 512 -256 l 1,7,-1
 256 -256 l 1,4,-1
512 -256 m 1,8,-1
 512 0 l 1,9,-1
 768 0 l 1,10,-1
 768 -256 l 1,11,-1
 512 -256 l 1,8,-1
768 -256 m 1,12,-1
 768 0 l 1,13,-1
 1024 0 l 1,14,-1
 1024 -256 l 1,15,-1
 768 -256 l 1,12,-1
1024 -256 m 1,16,-1
 1024 0 l 1,17,-1
 1280 0 l 1,18,-1
 1280 -256 l 1,19,-1
 1024 -256 l 1,16,-1
1280 -256 m 1,20,-1
 1280 0 l 1,21,-1
 1536 0 l 1,22,-1
 1536 -256 l 1,23,-1
 1280 -256 l 1,20,-1
1536 -256 m 1,24,-1
 1536 0 l 1,25,-1
 1792 0 l 1,26,-1
 1792 -256 l 1,27,-1
 1536 -256 l 1,24,-1
EndSplineSet
Validated: 5
EndChar

StartChar: grave
Encoding: 96 96 99
Width: 2048
LayerCount: 2
Fore
SplineSet
256 1536 m 1,0,-1
 256 1792 l 1,1,-1
 512 1792 l 1,2,-1
 512 1536 l 1,3,-1
 256 1536 l 1,0,-1
512 1280 m 1,4,-1
 512 1536 l 1,5,-1
 768 1536 l 1,6,-1
 768 1280 l 1,7,-1
 512 1280 l 1,4,-1
512 1024 m 1,8,-1
 512 1280 l 1,9,-1
 768 1280 l 1,10,-1
 768 1024 l 1,11,-1
 512 1024 l 1,8,-1
768 1024 m 1,12,-1
 768 1280 l 1,13,-1
 1024 1280 l 1,14,-1
 1024 1024 l 1,15,-1
 768 1024 l 1,12,-1
512 768 m 1,16,-1
 512 1024 l 1,17,-1
 768 1024 l 1,18,-1
 768 768 l 1,19,-1
 512 768 l 1,16,-1
768 768 m 1,20,-1
 768 1024 l 1,21,-1
 1024 1024 l 1,22,-1
 1024 768 l 1,23,-1
 768 768 l 1,20,-1
EndSplineSet
Validated: 5
EndChar

StartChar: asciitilde
Encoding: 126 126 100
Width: 2048
LayerCount: 2
Fore
SplineSet
512 1024 m 1,0,-1
 512 1280 l 1,1,-1
 768 1280 l 1,2,-1
 768 1024 l 1,3,-1
 512 1024 l 1,0,-1
768 1024 m 1,4,-1
 768 1280 l 1,5,-1
 1024 1280 l 1,6,-1
 1024 1024 l 1,7,-1
 768 1024 l 1,4,-1
1536 1024 m 1,8,-1
 1536 1280 l 1,9,-1
 1792 1280 l 1,10,-1
 1792 1024 l 1,11,-1
 1536 1024 l 1,8,-1
256 768 m 1,12,-1
 256 1024 l 1,13,-1
 512 1024 l 1,14,-1
 512 768 l 1,15,-1
 256 768 l 1,12,-1
512 768 m 1,16,-1
 512 1024 l 1,17,-1
 768 1024 l 1,18,-1
 768 768 l 1,19,-1
 512 768 l 1,16,-1
768 768 m 1,20,-1
 768 1024 l 1,21,-1
 1024 1024 l 1,22,-1
 1024 768 l 1,23,-1
 768 768 l 1,20,-1
1024 768 m 1,24,-1
 1024 1024 l 1,25,-1
 1280 1024 l 1,26,-1
 1280 768 l 1,27,-1
 1024 768 l 1,24,-1
1280 768 m 1,28,-1
 1280 1024 l 1,29,-1
 1536 1024 l 1,30,-1
 1536 768 l 1,31,-1
 1280 768 l 1,28,-1
1536 768 m 1,32,-1
 1536 1024 l 1,33,-1
 1792 1024 l 1,34,-1
 1792 768 l 1,35,-1
 1536 768 l 1,32,-1
256 512 m 1,36,-1
 256 768 l 1,37,-1
 512 768 l 1,38,-1
 512 512 l 1,39,-1
 256 512 l 1,36,-1
1024 512 m 1,40,-1
 1024 768 l 1,41,-1
 1280 768 l 1,42,-1
 1280 512 l 1,43,-1
 1024 512 l 1,40,-1
1280 512 m 1,44,-1
 1280 768 l 1,45,-1
 1536 768 l 1,46,-1
 1536 512 l 1,47,-1
 1280 512 l 1,44,-1
EndSplineSet
Validated: 3077
EndChar

StartChar: braceright
Encoding: 125 125 101
Width: 2048
LayerCount: 2
Fore
SplineSet
512 1536 m 1,0,-1
 512 1792 l 1,1,-1
 768 1792 l 1,2,-1
 768 1536 l 1,3,-1
 512 1536 l 1,0,-1
768 1536 m 1,4,-1
 768 1792 l 1,5,-1
 1024 1792 l 1,6,-1
 1024 1536 l 1,7,-1
 768 1536 l 1,4,-1
1024 1280 m 1,8,-1
 1024 1536 l 1,9,-1
 1280 1536 l 1,10,-1
 1280 1280 l 1,11,-1
 1024 1280 l 1,8,-1
1280 1280 m 1,12,-1
 1280 1536 l 1,13,-1
 1536 1536 l 1,14,-1
 1536 1280 l 1,15,-1
 1280 1280 l 1,12,-1
1024 1024 m 1,16,-1
 1024 1280 l 1,17,-1
 1280 1280 l 1,18,-1
 1280 1024 l 1,19,-1
 1024 1024 l 1,16,-1
1280 1024 m 1,20,-1
 1280 1280 l 1,21,-1
 1536 1280 l 1,22,-1
 1536 1024 l 1,23,-1
 1280 1024 l 1,20,-1
1280 768 m 1,24,-1
 1280 1024 l 1,25,-1
 1536 1024 l 1,26,-1
 1536 768 l 1,27,-1
 1280 768 l 1,24,-1
1536 768 m 1,28,-1
 1536 1024 l 1,29,-1
 1792 1024 l 1,30,-1
 1792 768 l 1,31,-1
 1536 768 l 1,28,-1
1024 512 m 1,32,-1
 1024 768 l 1,33,-1
 1280 768 l 1,34,-1
 1280 512 l 1,35,-1
 1024 512 l 1,32,-1
1280 512 m 1,36,-1
 1280 768 l 1,37,-1
 1536 768 l 1,38,-1
 1536 512 l 1,39,-1
 1280 512 l 1,36,-1
1024 256 m 1,40,-1
 1024 512 l 1,41,-1
 1280 512 l 1,42,-1
 1280 256 l 1,43,-1
 1024 256 l 1,40,-1
1280 256 m 1,44,-1
 1280 512 l 1,45,-1
 1536 512 l 1,46,-1
 1536 256 l 1,47,-1
 1280 256 l 1,44,-1
512 0 m 1,48,-1
 512 256 l 1,49,-1
 768 256 l 1,50,-1
 768 0 l 1,51,-1
 512 0 l 1,48,-1
768 0 m 1,52,-1
 768 256 l 1,53,-1
 1024 256 l 1,54,-1
 1024 0 l 1,55,-1
 768 0 l 1,52,-1
EndSplineSet
Validated: 3077
EndChar

StartChar: braceleft
Encoding: 123 123 102
Width: 2048
LayerCount: 2
Fore
SplineSet
1024 1536 m 1,0,-1
 1024 1792 l 1,1,-1
 1280 1792 l 1,2,-1
 1280 1536 l 1,3,-1
 1024 1536 l 1,0,-1
1280 1536 m 1,4,-1
 1280 1792 l 1,5,-1
 1536 1792 l 1,6,-1
 1536 1536 l 1,7,-1
 1280 1536 l 1,4,-1
512 1280 m 1,8,-1
 512 1536 l 1,9,-1
 768 1536 l 1,10,-1
 768 1280 l 1,11,-1
 512 1280 l 1,8,-1
768 1280 m 1,12,-1
 768 1536 l 1,13,-1
 1024 1536 l 1,14,-1
 1024 1280 l 1,15,-1
 768 1280 l 1,12,-1
512 1024 m 1,16,-1
 512 1280 l 1,17,-1
 768 1280 l 1,18,-1
 768 1024 l 1,19,-1
 512 1024 l 1,16,-1
768 1024 m 1,20,-1
 768 1280 l 1,21,-1
 1024 1280 l 1,22,-1
 1024 1024 l 1,23,-1
 768 1024 l 1,20,-1
256 768 m 1,24,-1
 256 1024 l 1,25,-1
 512 1024 l 1,26,-1
 512 768 l 1,27,-1
 256 768 l 1,24,-1
512 768 m 1,28,-1
 512 1024 l 1,29,-1
 768 1024 l 1,30,-1
 768 768 l 1,31,-1
 512 768 l 1,28,-1
512 512 m 1,32,-1
 512 768 l 1,33,-1
 768 768 l 1,34,-1
 768 512 l 1,35,-1
 512 512 l 1,32,-1
768 512 m 1,36,-1
 768 768 l 1,37,-1
 1024 768 l 1,38,-1
 1024 512 l 1,39,-1
 768 512 l 1,36,-1
512 256 m 1,40,-1
 512 512 l 1,41,-1
 768 512 l 1,42,-1
 768 256 l 1,43,-1
 512 256 l 1,40,-1
768 256 m 1,44,-1
 768 512 l 1,45,-1
 1024 512 l 1,46,-1
 1024 256 l 1,47,-1
 768 256 l 1,44,-1
1024 0 m 1,48,-1
 1024 256 l 1,49,-1
 1280 256 l 1,50,-1
 1280 0 l 1,51,-1
 1024 0 l 1,48,-1
1280 0 m 1,52,-1
 1280 256 l 1,53,-1
 1536 256 l 1,54,-1
 1536 0 l 1,55,-1
 1280 0 l 1,52,-1
EndSplineSet
Validated: 3077
EndChar

StartChar: exclamdown
Encoding: 161 161 103
Width: 2048
LayerCount: 2
Fore
SplineSet
1280 1280 m 1,0,-1
 1280 1536 l 1,1,-1
 1536 1536 l 1,2,-1
 1536 1280 l 1,3,-1
 1280 1280 l 1,0,-1
1536 1280 m 1,4,-1
 1536 1536 l 1,5,-1
 1792 1536 l 1,6,-1
 1792 1280 l 1,7,-1
 1536 1280 l 1,4,-1
1280 1024 m 1,8,-1
 1280 1280 l 1,9,-1
 1536 1280 l 1,10,-1
 1536 1024 l 1,11,-1
 1280 1024 l 1,8,-1
1536 1024 m 1,12,-1
 1536 1280 l 1,13,-1
 1792 1280 l 1,14,-1
 1792 1024 l 1,15,-1
 1536 1024 l 1,12,-1
768 768 m 1,16,-1
 768 1024 l 1,17,-1
 1024 1024 l 1,18,-1
 1024 768 l 1,19,-1
 768 768 l 1,16,-1
1024 768 m 1,20,-1
 1024 1024 l 1,21,-1
 1280 1024 l 1,22,-1
 1280 768 l 1,23,-1
 1024 768 l 1,20,-1
256 512 m 1,24,-1
 256 768 l 1,25,-1
 512 768 l 1,26,-1
 512 512 l 1,27,-1
 256 512 l 1,24,-1
512 512 m 1,28,-1
 512 768 l 1,29,-1
 768 768 l 1,30,-1
 768 512 l 1,31,-1
 512 512 l 1,28,-1
768 512 m 1,32,-1
 768 768 l 1,33,-1
 1024 768 l 1,34,-1
 1024 512 l 1,35,-1
 768 512 l 1,32,-1
1024 512 m 1,36,-1
 1024 768 l 1,37,-1
 1280 768 l 1,38,-1
 1280 512 l 1,39,-1
 1024 512 l 1,36,-1
0 256 m 1,40,-1
 0 512 l 1,41,-1
 256 512 l 1,42,-1
 256 256 l 1,43,-1
 0 256 l 1,40,-1
256 256 m 1,44,-1
 256 512 l 1,45,-1
 512 512 l 1,46,-1
 512 256 l 1,47,-1
 256 256 l 1,44,-1
512 256 m 1,48,-1
 512 512 l 1,49,-1
 768 512 l 1,50,-1
 768 256 l 1,51,-1
 512 256 l 1,48,-1
768 256 m 1,52,-1
 768 512 l 1,53,-1
 1024 512 l 1,54,-1
 1024 256 l 1,55,-1
 768 256 l 1,52,-1
0 0 m 1,56,-1
 0 256 l 1,57,-1
 256 256 l 1,58,-1
 256 0 l 1,59,-1
 0 0 l 1,56,-1
256 0 m 1,60,-1
 256 256 l 1,61,-1
 512 256 l 1,62,-1
 512 0 l 1,63,-1
 256 0 l 1,60,-1
512 0 m 1,64,-1
 512 256 l 1,65,-1
 768 256 l 1,66,-1
 768 0 l 1,67,-1
 512 0 l 1,64,-1
768 0 m 1,68,-1
 768 256 l 1,69,-1
 1024 256 l 1,70,-1
 1024 0 l 1,71,-1
 768 0 l 1,68,-1
256 -256 m 1,72,-1
 256 0 l 1,73,-1
 512 0 l 1,74,-1
 512 -256 l 1,75,-1
 256 -256 l 1,72,-1
512 -256 m 1,76,-1
 512 0 l 1,77,-1
 768 0 l 1,78,-1
 768 -256 l 1,79,-1
 512 -256 l 1,76,-1
EndSplineSet
Validated: 3077
EndChar

StartChar: cent
Encoding: 162 162 104
Width: 2048
LayerCount: 2
Fore
SplineSet
768 1280 m 1,0,-1
 768 1536 l 1,1,-1
 1024 1536 l 1,2,-1
 1024 1280 l 1,3,-1
 768 1280 l 1,0,-1
256 1024 m 1,4,-1
 256 1280 l 1,5,-1
 512 1280 l 1,6,-1
 512 1024 l 1,7,-1
 256 1024 l 1,4,-1
512 1024 m 1,8,-1
 512 1280 l 1,9,-1
 768 1280 l 1,10,-1
 768 1024 l 1,11,-1
 512 1024 l 1,8,-1
768 1024 m 1,12,-1
 768 1280 l 1,13,-1
 1024 1280 l 1,14,-1
 1024 1024 l 1,15,-1
 768 1024 l 1,12,-1
1024 1024 m 1,16,-1
 1024 1280 l 1,17,-1
 1280 1280 l 1,18,-1
 1280 1024 l 1,19,-1
 1024 1024 l 1,16,-1
1280 1024 m 1,20,-1
 1280 1280 l 1,21,-1
 1536 1280 l 1,22,-1
 1536 1024 l 1,23,-1
 1280 1024 l 1,20,-1
0 768 m 1,24,-1
 0 1024 l 1,25,-1
 256 1024 l 1,26,-1
 256 768 l 1,27,-1
 0 768 l 1,24,-1
256 768 m 1,28,-1
 256 1024 l 1,29,-1
 512 1024 l 1,30,-1
 512 768 l 1,31,-1
 256 768 l 1,28,-1
768 768 m 1,32,-1
 768 1024 l 1,33,-1
 1024 1024 l 1,34,-1
 1024 768 l 1,35,-1
 768 768 l 1,32,-1
1280 768 m 1,36,-1
 1280 1024 l 1,37,-1
 1536 1024 l 1,38,-1
 1536 768 l 1,39,-1
 1280 768 l 1,36,-1
1536 768 m 1,40,-1
 1536 1024 l 1,41,-1
 1792 1024 l 1,42,-1
 1792 768 l 1,43,-1
 1536 768 l 1,40,-1
0 512 m 1,44,-1
 0 768 l 1,45,-1
 256 768 l 1,46,-1
 256 512 l 1,47,-1
 0 512 l 1,44,-1
256 512 m 1,48,-1
 256 768 l 1,49,-1
 512 768 l 1,50,-1
 512 512 l 1,51,-1
 256 512 l 1,48,-1
768 512 m 1,52,-1
 768 768 l 1,53,-1
 1024 768 l 1,54,-1
 1024 512 l 1,55,-1
 768 512 l 1,52,-1
0 256 m 1,56,-1
 0 512 l 1,57,-1
 256 512 l 1,58,-1
 256 256 l 1,59,-1
 0 256 l 1,56,-1
256 256 m 1,60,-1
 256 512 l 1,61,-1
 512 512 l 1,62,-1
 512 256 l 1,63,-1
 256 256 l 1,60,-1
768 256 m 1,64,-1
 768 512 l 1,65,-1
 1024 512 l 1,66,-1
 1024 256 l 1,67,-1
 768 256 l 1,64,-1
1280 256 m 1,68,-1
 1280 512 l 1,69,-1
 1536 512 l 1,70,-1
 1536 256 l 1,71,-1
 1280 256 l 1,68,-1
1536 256 m 1,72,-1
 1536 512 l 1,73,-1
 1792 512 l 1,74,-1
 1792 256 l 1,75,-1
 1536 256 l 1,72,-1
256 0 m 1,76,-1
 256 256 l 1,77,-1
 512 256 l 1,78,-1
 512 0 l 1,79,-1
 256 0 l 1,76,-1
512 0 m 1,80,-1
 512 256 l 1,81,-1
 768 256 l 1,82,-1
 768 0 l 1,83,-1
 512 0 l 1,80,-1
768 0 m 1,84,-1
 768 256 l 1,85,-1
 1024 256 l 1,86,-1
 1024 0 l 1,87,-1
 768 0 l 1,84,-1
1024 0 m 1,88,-1
 1024 256 l 1,89,-1
 1280 256 l 1,90,-1
 1280 0 l 1,91,-1
 1024 0 l 1,88,-1
1280 0 m 1,92,-1
 1280 256 l 1,93,-1
 1536 256 l 1,94,-1
 1536 0 l 1,95,-1
 1280 0 l 1,92,-1
768 -256 m 1,96,-1
 768 0 l 1,97,-1
 1024 0 l 1,98,-1
 1024 -256 l 1,99,-1
 768 -256 l 1,96,-1
EndSplineSet
Validated: 3077
EndChar

StartChar: sterling
Encoding: 163 163 105
Width: 2048
LayerCount: 2
Fore
SplineSet
512 1536 m 1,0,-1
 512 1792 l 1,1,-1
 768 1792 l 1,2,-1
 768 1536 l 1,3,-1
 512 1536 l 1,0,-1
768 1536 m 1,4,-1
 768 1792 l 1,5,-1
 1024 1792 l 1,6,-1
 1024 1536 l 1,7,-1
 768 1536 l 1,4,-1
1024 1536 m 1,8,-1
 1024 1792 l 1,9,-1
 1280 1792 l 1,10,-1
 1280 1536 l 1,11,-1
 1024 1536 l 1,8,-1
1280 1536 m 1,12,-1
 1280 1792 l 1,13,-1
 1536 1792 l 1,14,-1
 1536 1536 l 1,15,-1
 1280 1536 l 1,12,-1
256 1280 m 1,16,-1
 256 1536 l 1,17,-1
 512 1536 l 1,18,-1
 512 1280 l 1,19,-1
 256 1280 l 1,16,-1
512 1280 m 1,20,-1
 512 1536 l 1,21,-1
 768 1536 l 1,22,-1
 768 1280 l 1,23,-1
 512 1280 l 1,20,-1
1280 1280 m 1,24,-1
 1280 1536 l 1,25,-1
 1536 1536 l 1,26,-1
 1536 1280 l 1,27,-1
 1280 1280 l 1,24,-1
1536 1280 m 1,28,-1
 1536 1536 l 1,29,-1
 1792 1536 l 1,30,-1
 1792 1280 l 1,31,-1
 1536 1280 l 1,28,-1
256 1024 m 1,32,-1
 256 1280 l 1,33,-1
 512 1280 l 1,34,-1
 512 1024 l 1,35,-1
 256 1024 l 1,32,-1
512 1024 m 1,36,-1
 512 1280 l 1,37,-1
 768 1280 l 1,38,-1
 768 1024 l 1,39,-1
 512 1024 l 1,36,-1
1280 1024 m 1,40,-1
 1280 1280 l 1,41,-1
 1536 1280 l 1,42,-1
 1536 1024 l 1,43,-1
 1280 1024 l 1,40,-1
1536 1024 m 1,44,-1
 1536 1280 l 1,45,-1
 1792 1280 l 1,46,-1
 1792 1024 l 1,47,-1
 1536 1024 l 1,44,-1
256 768 m 1,48,-1
 256 1024 l 1,49,-1
 512 1024 l 1,50,-1
 512 768 l 1,51,-1
 256 768 l 1,48,-1
512 768 m 1,52,-1
 512 1024 l 1,53,-1
 768 1024 l 1,54,-1
 768 768 l 1,55,-1
 512 768 l 1,52,-1
0 512 m 1,56,-1
 0 768 l 1,57,-1
 256 768 l 1,58,-1
 256 512 l 1,59,-1
 0 512 l 1,56,-1
256 512 m 1,60,-1
 256 768 l 1,61,-1
 512 768 l 1,62,-1
 512 512 l 1,63,-1
 256 512 l 1,60,-1
512 512 m 1,64,-1
 512 768 l 1,65,-1
 768 768 l 1,66,-1
 768 512 l 1,67,-1
 512 512 l 1,64,-1
768 512 m 1,68,-1
 768 768 l 1,69,-1
 1024 768 l 1,70,-1
 1024 512 l 1,71,-1
 768 512 l 1,68,-1
1024 512 m 1,72,-1
 1024 768 l 1,73,-1
 1280 768 l 1,74,-1
 1280 512 l 1,75,-1
 1024 512 l 1,72,-1
256 256 m 1,76,-1
 256 512 l 1,77,-1
 512 512 l 1,78,-1
 512 256 l 1,79,-1
 256 256 l 1,76,-1
512 256 m 1,80,-1
 512 512 l 1,81,-1
 768 512 l 1,82,-1
 768 256 l 1,83,-1
 512 256 l 1,80,-1
0 0 m 1,84,-1
 0 256 l 1,85,-1
 256 256 l 1,86,-1
 256 0 l 1,87,-1
 0 0 l 1,84,-1
256 0 m 1,88,-1
 256 256 l 1,89,-1
 512 256 l 1,90,-1
 512 0 l 1,91,-1
 256 0 l 1,88,-1
512 0 m 1,92,-1
 512 256 l 1,93,-1
 768 256 l 1,94,-1
 768 0 l 1,95,-1
 512 0 l 1,92,-1
768 0 m 1,96,-1
 768 256 l 1,97,-1
 1024 256 l 1,98,-1
 1024 0 l 1,99,-1
 768 0 l 1,96,-1
1024 0 m 1,100,-1
 1024 256 l 1,101,-1
 1280 256 l 1,102,-1
 1280 0 l 1,103,-1
 1024 0 l 1,100,-1
1280 0 m 1,104,-1
 1280 256 l 1,105,-1
 1536 256 l 1,106,-1
 1536 0 l 1,107,-1
 1280 0 l 1,104,-1
1536 0 m 1,108,-1
 1536 256 l 1,109,-1
 1792 256 l 1,110,-1
 1792 0 l 1,111,-1
 1536 0 l 1,108,-1
EndSplineSet
Validated: 3077
EndChar

StartChar: currency
Encoding: 164 164 106
Width: 2048
LayerCount: 2
Fore
SplineSet
256 1280 m 1,0,-1
 256 1536 l 1,1,-1
 512 1536 l 1,2,-1
 512 1280 l 1,3,-1
 256 1280 l 1,0,-1
1536 1280 m 1,4,-1
 1536 1536 l 1,5,-1
 1792 1536 l 1,6,-1
 1792 1280 l 1,7,-1
 1536 1280 l 1,4,-1
512 1024 m 1,8,-1
 512 1280 l 1,9,-1
 768 1280 l 1,10,-1
 768 1024 l 1,11,-1
 512 1024 l 1,8,-1
768 1024 m 1,12,-1
 768 1280 l 1,13,-1
 1024 1280 l 1,14,-1
 1024 1024 l 1,15,-1
 768 1024 l 1,12,-1
1024 1024 m 1,16,-1
 1024 1280 l 1,17,-1
 1280 1280 l 1,18,-1
 1280 1024 l 1,19,-1
 1024 1024 l 1,16,-1
1280 1024 m 1,20,-1
 1280 1280 l 1,21,-1
 1536 1280 l 1,22,-1
 1536 1024 l 1,23,-1
 1280 1024 l 1,20,-1
512 768 m 1,24,-1
 512 1024 l 1,25,-1
 768 1024 l 1,26,-1
 768 768 l 1,27,-1
 512 768 l 1,24,-1
1280 768 m 1,28,-1
 1280 1024 l 1,29,-1
 1536 1024 l 1,30,-1
 1536 768 l 1,31,-1
 1280 768 l 1,28,-1
512 512 m 1,32,-1
 512 768 l 1,33,-1
 768 768 l 1,34,-1
 768 512 l 1,35,-1
 512 512 l 1,32,-1
1280 512 m 1,36,-1
 1280 768 l 1,37,-1
 1536 768 l 1,38,-1
 1536 512 l 1,39,-1
 1280 512 l 1,36,-1
512 256 m 1,40,-1
 512 512 l 1,41,-1
 768 512 l 1,42,-1
 768 256 l 1,43,-1
 512 256 l 1,40,-1
768 256 m 1,44,-1
 768 512 l 1,45,-1
 1024 512 l 1,46,-1
 1024 256 l 1,47,-1
 768 256 l 1,44,-1
1024 256 m 1,48,-1
 1024 512 l 1,49,-1
 1280 512 l 1,50,-1
 1280 256 l 1,51,-1
 1024 256 l 1,48,-1
1280 256 m 1,52,-1
 1280 512 l 1,53,-1
 1536 512 l 1,54,-1
 1536 256 l 1,55,-1
 1280 256 l 1,52,-1
256 0 m 1,56,-1
 256 256 l 1,57,-1
 512 256 l 1,58,-1
 512 0 l 1,59,-1
 256 0 l 1,56,-1
1536 0 m 1,60,-1
 1536 256 l 1,61,-1
 1792 256 l 1,62,-1
 1792 0 l 1,63,-1
 1536 0 l 1,60,-1
EndSplineSet
Validated: 3077
EndChar

StartChar: section
Encoding: 167 167 107
Width: 2048
LayerCount: 2
Fore
SplineSet
768 1536 m 1,0,-1
 768 1792 l 1,1,-1
 1024 1792 l 1,2,-1
 1024 1536 l 1,3,-1
 768 1536 l 1,0,-1
1024 1536 m 1,4,-1
 1024 1792 l 1,5,-1
 1280 1792 l 1,6,-1
 1280 1536 l 1,7,-1
 1024 1536 l 1,4,-1
1280 1536 m 1,8,-1
 1280 1792 l 1,9,-1
 1536 1792 l 1,10,-1
 1536 1536 l 1,11,-1
 1280 1536 l 1,8,-1
1536 1536 m 1,12,-1
 1536 1792 l 1,13,-1
 1792 1792 l 1,14,-1
 1792 1536 l 1,15,-1
 1536 1536 l 1,12,-1
512 1280 m 1,16,-1
 512 1536 l 1,17,-1
 768 1536 l 1,18,-1
 768 1280 l 1,19,-1
 512 1280 l 1,16,-1
768 1280 m 1,20,-1
 768 1536 l 1,21,-1
 1024 1536 l 1,22,-1
 1024 1280 l 1,23,-1
 768 1280 l 1,20,-1
512 1024 m 1,24,-1
 512 1280 l 1,25,-1
 768 1280 l 1,26,-1
 768 1024 l 1,27,-1
 512 1024 l 1,24,-1
768 1024 m 1,28,-1
 768 1280 l 1,29,-1
 1024 1280 l 1,30,-1
 1024 1024 l 1,31,-1
 768 1024 l 1,28,-1
1024 1024 m 1,32,-1
 1024 1280 l 1,33,-1
 1280 1280 l 1,34,-1
 1280 1024 l 1,35,-1
 1024 1024 l 1,32,-1
512 768 m 1,36,-1
 512 1024 l 1,37,-1
 768 1024 l 1,38,-1
 768 768 l 1,39,-1
 512 768 l 1,36,-1
1280 768 m 1,40,-1
 1280 1024 l 1,41,-1
 1536 1024 l 1,42,-1
 1536 768 l 1,43,-1
 1280 768 l 1,40,-1
512 512 m 1,44,-1
 512 768 l 1,45,-1
 768 768 l 1,46,-1
 768 512 l 1,47,-1
 512 512 l 1,44,-1
1280 512 m 1,48,-1
 1280 768 l 1,49,-1
 1536 768 l 1,50,-1
 1536 512 l 1,51,-1
 1280 512 l 1,48,-1
768 256 m 1,52,-1
 768 512 l 1,53,-1
 1024 512 l 1,54,-1
 1024 256 l 1,55,-1
 768 256 l 1,52,-1
1024 256 m 1,56,-1
 1024 512 l 1,57,-1
 1280 512 l 1,58,-1
 1280 256 l 1,59,-1
 1024 256 l 1,56,-1
1280 256 m 1,60,-1
 1280 512 l 1,61,-1
 1536 512 l 1,62,-1
 1536 256 l 1,63,-1
 1280 256 l 1,60,-1
1024 0 m 1,64,-1
 1024 256 l 1,65,-1
 1280 256 l 1,66,-1
 1280 0 l 1,67,-1
 1024 0 l 1,64,-1
1280 0 m 1,68,-1
 1280 256 l 1,69,-1
 1536 256 l 1,70,-1
 1536 0 l 1,71,-1
 1280 0 l 1,68,-1
256 -256 m 1,72,-1
 256 0 l 1,73,-1
 512 0 l 1,74,-1
 512 -256 l 1,75,-1
 256 -256 l 1,72,-1
512 -256 m 1,76,-1
 512 0 l 1,77,-1
 768 0 l 1,78,-1
 768 -256 l 1,79,-1
 512 -256 l 1,76,-1
768 -256 m 1,80,-1
 768 0 l 1,81,-1
 1024 0 l 1,82,-1
 1024 -256 l 1,83,-1
 768 -256 l 1,80,-1
1024 -256 m 1,84,-1
 1024 0 l 1,85,-1
 1280 0 l 1,86,-1
 1280 -256 l 1,87,-1
 1024 -256 l 1,84,-1
EndSplineSet
Validated: 3077
EndChar

StartChar: dieresis
Encoding: 168 168 108
Width: 2048
LayerCount: 2
Fore
SplineSet
256 1536 m 1,0,-1
 256 1792 l 1,1,-1
 512 1792 l 1,2,-1
 512 1536 l 1,3,-1
 256 1536 l 1,0,-1
512 1536 m 1,4,-1
 512 1792 l 1,5,-1
 768 1792 l 1,6,-1
 768 1536 l 1,7,-1
 512 1536 l 1,4,-1
1280 1536 m 1,8,-1
 1280 1792 l 1,9,-1
 1536 1792 l 1,10,-1
 1536 1536 l 1,11,-1
 1280 1536 l 1,8,-1
1536 1536 m 1,12,-1
 1536 1792 l 1,13,-1
 1792 1792 l 1,14,-1
 1792 1536 l 1,15,-1
 1536 1536 l 1,12,-1
256 1280 m 1,16,-1
 256 1536 l 1,17,-1
 512 1536 l 1,18,-1
 512 1280 l 1,19,-1
 256 1280 l 1,16,-1
512 1280 m 1,20,-1
 512 1536 l 1,21,-1
 768 1536 l 1,22,-1
 768 1280 l 1,23,-1
 512 1280 l 1,20,-1
1280 1280 m 1,24,-1
 1280 1536 l 1,25,-1
 1536 1536 l 1,26,-1
 1536 1280 l 1,27,-1
 1280 1280 l 1,24,-1
1536 1280 m 1,28,-1
 1536 1536 l 1,29,-1
 1792 1536 l 1,30,-1
 1792 1280 l 1,31,-1
 1536 1280 l 1,28,-1
EndSplineSet
Validated: 5
EndChar

StartChar: copyright
Encoding: 169 169 109
Width: 2048
LayerCount: 2
Fore
SplineSet
512 1536 m 1,0,-1
 512 1792 l 1,1,-1
 768 1792 l 1,2,-1
 768 1536 l 1,3,-1
 512 1536 l 1,0,-1
768 1536 m 1,4,-1
 768 1792 l 1,5,-1
 1024 1792 l 1,6,-1
 1024 1536 l 1,7,-1
 768 1536 l 1,4,-1
1024 1536 m 1,8,-1
 1024 1792 l 1,9,-1
 1280 1792 l 1,10,-1
 1280 1536 l 1,11,-1
 1024 1536 l 1,8,-1
1280 1536 m 1,12,-1
 1280 1792 l 1,13,-1
 1536 1792 l 1,14,-1
 1536 1536 l 1,15,-1
 1280 1536 l 1,12,-1
256 1280 m 1,16,-1
 256 1536 l 1,17,-1
 512 1536 l 1,18,-1
 512 1280 l 1,19,-1
 256 1280 l 1,16,-1
1536 1280 m 1,20,-1
 1536 1536 l 1,21,-1
 1792 1536 l 1,22,-1
 1792 1280 l 1,23,-1
 1536 1280 l 1,20,-1
0 1024 m 1,24,-1
 0 1280 l 1,25,-1
 256 1280 l 1,26,-1
 256 1024 l 1,27,-1
 0 1024 l 1,24,-1
768 1024 m 1,28,-1
 768 1280 l 1,29,-1
 1024 1280 l 1,30,-1
 1024 1024 l 1,31,-1
 768 1024 l 1,28,-1
1024 1024 m 1,32,-1
 1024 1280 l 1,33,-1
 1280 1280 l 1,34,-1
 1280 1024 l 1,35,-1
 1024 1024 l 1,32,-1
1792 1024 m 1,36,-1
 1792 1280 l 1,37,-1
 2048 1280 l 1,38,-1
 2048 1024 l 1,39,-1
 1792 1024 l 1,36,-1
0 768 m 1,40,-1
 0 1024 l 1,41,-1
 256 1024 l 1,42,-1
 256 768 l 1,43,-1
 0 768 l 1,40,-1
512 768 m 1,44,-1
 512 1024 l 1,45,-1
 768 1024 l 1,46,-1
 768 768 l 1,47,-1
 512 768 l 1,44,-1
1792 768 m 1,48,-1
 1792 1024 l 1,49,-1
 2048 1024 l 1,50,-1
 2048 768 l 1,51,-1
 1792 768 l 1,48,-1
0 512 m 1,52,-1
 0 768 l 1,53,-1
 256 768 l 1,54,-1
 256 512 l 1,55,-1
 0 512 l 1,52,-1
512 512 m 1,56,-1
 512 768 l 1,57,-1
 768 768 l 1,58,-1
 768 512 l 1,59,-1
 512 512 l 1,56,-1
1792 512 m 1,60,-1
 1792 768 l 1,61,-1
 2048 768 l 1,62,-1
 2048 512 l 1,63,-1
 1792 512 l 1,60,-1
0 256 m 1,64,-1
 0 512 l 1,65,-1
 256 512 l 1,66,-1
 256 256 l 1,67,-1
 0 256 l 1,64,-1
768 256 m 1,68,-1
 768 512 l 1,69,-1
 1024 512 l 1,70,-1
 1024 256 l 1,71,-1
 768 256 l 1,68,-1
1024 256 m 1,72,-1
 1024 512 l 1,73,-1
 1280 512 l 1,74,-1
 1280 256 l 1,75,-1
 1024 256 l 1,72,-1
1792 256 m 1,76,-1
 1792 512 l 1,77,-1
 2048 512 l 1,78,-1
 2048 256 l 1,79,-1
 1792 256 l 1,76,-1
256 0 m 1,80,-1
 256 256 l 1,81,-1
 512 256 l 1,82,-1
 512 0 l 1,83,-1
 256 0 l 1,80,-1
1536 0 m 1,84,-1
 1536 256 l 1,85,-1
 1792 256 l 1,86,-1
 1792 0 l 1,87,-1
 1536 0 l 1,84,-1
512 -256 m 1,88,-1
 512 0 l 1,89,-1
 768 0 l 1,90,-1
 768 -256 l 1,91,-1
 512 -256 l 1,88,-1
768 -256 m 1,92,-1
 768 0 l 1,93,-1
 1024 0 l 1,94,-1
 1024 -256 l 1,95,-1
 768 -256 l 1,92,-1
1024 -256 m 1,96,-1
 1024 0 l 1,97,-1
 1280 0 l 1,98,-1
 1280 -256 l 1,99,-1
 1024 -256 l 1,96,-1
1280 -256 m 1,100,-1
 1280 0 l 1,101,-1
 1536 0 l 1,102,-1
 1536 -256 l 1,103,-1
 1280 -256 l 1,100,-1
EndSplineSet
Validated: 3077
EndChar

StartChar: ordfeminine
Encoding: 170 170 110
Width: 2048
LayerCount: 2
Fore
SplineSet
256 1536 m 1,0,-1
 256 1792 l 1,1,-1
 512 1792 l 1,2,-1
 512 1536 l 1,3,-1
 256 1536 l 1,0,-1
512 1536 m 1,4,-1
 512 1792 l 1,5,-1
 768 1792 l 1,6,-1
 768 1536 l 1,7,-1
 512 1536 l 1,4,-1
768 1536 m 1,8,-1
 768 1792 l 1,9,-1
 1024 1792 l 1,10,-1
 1024 1536 l 1,11,-1
 768 1536 l 1,8,-1
768 1280 m 1,12,-1
 768 1536 l 1,13,-1
 1024 1536 l 1,14,-1
 1024 1280 l 1,15,-1
 768 1280 l 1,12,-1
256 1024 m 1,16,-1
 256 1280 l 1,17,-1
 512 1280 l 1,18,-1
 512 1024 l 1,19,-1
 256 1024 l 1,16,-1
512 1024 m 1,20,-1
 512 1280 l 1,21,-1
 768 1280 l 1,22,-1
 768 1024 l 1,23,-1
 512 1024 l 1,20,-1
768 1024 m 1,24,-1
 768 1280 l 1,25,-1
 1024 1280 l 1,26,-1
 1024 1024 l 1,27,-1
 768 1024 l 1,24,-1
256 768 m 1,28,-1
 256 1024 l 1,29,-1
 512 1024 l 1,30,-1
 512 768 l 1,31,-1
 256 768 l 1,28,-1
768 768 m 1,32,-1
 768 1024 l 1,33,-1
 1024 1024 l 1,34,-1
 1024 768 l 1,35,-1
 768 768 l 1,32,-1
256 512 m 1,36,-1
 256 768 l 1,37,-1
 512 768 l 1,38,-1
 512 512 l 1,39,-1
 256 512 l 1,36,-1
512 512 m 1,40,-1
 512 768 l 1,41,-1
 768 768 l 1,42,-1
 768 512 l 1,43,-1
 512 512 l 1,40,-1
768 512 m 1,44,-1
 768 768 l 1,45,-1
 1024 768 l 1,46,-1
 1024 512 l 1,47,-1
 768 512 l 1,44,-1
0 0 m 1,48,-1
 0 256 l 1,49,-1
 256 256 l 1,50,-1
 256 0 l 1,51,-1
 0 0 l 1,48,-1
256 0 m 1,52,-1
 256 256 l 1,53,-1
 512 256 l 1,54,-1
 512 0 l 1,55,-1
 256 0 l 1,52,-1
512 0 m 1,56,-1
 512 256 l 1,57,-1
 768 256 l 1,58,-1
 768 0 l 1,59,-1
 512 0 l 1,56,-1
768 0 m 1,60,-1
 768 256 l 1,61,-1
 1024 256 l 1,62,-1
 1024 0 l 1,63,-1
 768 0 l 1,60,-1
1024 0 m 1,64,-1
 1024 256 l 1,65,-1
 1280 256 l 1,66,-1
 1280 0 l 1,67,-1
 1024 0 l 1,64,-1
EndSplineSet
Validated: 3077
EndChar

StartChar: guillemotleft
Encoding: 171 171 111
Width: 2048
LayerCount: 2
Fore
SplineSet
768 1280 m 1,0,-1
 768 1536 l 1,1,-1
 1024 1536 l 1,2,-1
 1024 1280 l 1,3,-1
 768 1280 l 1,0,-1
1536 1280 m 1,4,-1
 1536 1536 l 1,5,-1
 1792 1536 l 1,6,-1
 1792 1280 l 1,7,-1
 1536 1280 l 1,4,-1
512 1024 m 1,8,-1
 512 1280 l 1,9,-1
 768 1280 l 1,10,-1
 768 1024 l 1,11,-1
 512 1024 l 1,8,-1
768 1024 m 1,12,-1
 768 1280 l 1,13,-1
 1024 1280 l 1,14,-1
 1024 1024 l 1,15,-1
 768 1024 l 1,12,-1
1280 1024 m 1,16,-1
 1280 1280 l 1,17,-1
 1536 1280 l 1,18,-1
 1536 1024 l 1,19,-1
 1280 1024 l 1,16,-1
1536 1024 m 1,20,-1
 1536 1280 l 1,21,-1
 1792 1280 l 1,22,-1
 1792 1024 l 1,23,-1
 1536 1024 l 1,20,-1
256 768 m 1,24,-1
 256 1024 l 1,25,-1
 512 1024 l 1,26,-1
 512 768 l 1,27,-1
 256 768 l 1,24,-1
512 768 m 1,28,-1
 512 1024 l 1,29,-1
 768 1024 l 1,30,-1
 768 768 l 1,31,-1
 512 768 l 1,28,-1
1024 768 m 1,32,-1
 1024 1024 l 1,33,-1
 1280 1024 l 1,34,-1
 1280 768 l 1,35,-1
 1024 768 l 1,32,-1
1280 768 m 1,36,-1
 1280 1024 l 1,37,-1
 1536 1024 l 1,38,-1
 1536 768 l 1,39,-1
 1280 768 l 1,36,-1
0 512 m 1,40,-1
 0 768 l 1,41,-1
 256 768 l 1,42,-1
 256 512 l 1,43,-1
 0 512 l 1,40,-1
256 512 m 1,44,-1
 256 768 l 1,45,-1
 512 768 l 1,46,-1
 512 512 l 1,47,-1
 256 512 l 1,44,-1
768 512 m 1,48,-1
 768 768 l 1,49,-1
 1024 768 l 1,50,-1
 1024 512 l 1,51,-1
 768 512 l 1,48,-1
1024 512 m 1,52,-1
 1024 768 l 1,53,-1
 1280 768 l 1,54,-1
 1280 512 l 1,55,-1
 1024 512 l 1,52,-1
256 256 m 1,56,-1
 256 512 l 1,57,-1
 512 512 l 1,58,-1
 512 256 l 1,59,-1
 256 256 l 1,56,-1
512 256 m 1,60,-1
 512 512 l 1,61,-1
 768 512 l 1,62,-1
 768 256 l 1,63,-1
 512 256 l 1,60,-1
1024 256 m 1,64,-1
 1024 512 l 1,65,-1
 1280 512 l 1,66,-1
 1280 256 l 1,67,-1
 1024 256 l 1,64,-1
1280 256 m 1,68,-1
 1280 512 l 1,69,-1
 1536 512 l 1,70,-1
 1536 256 l 1,71,-1
 1280 256 l 1,68,-1
512 0 m 1,72,-1
 512 256 l 1,73,-1
 768 256 l 1,74,-1
 768 0 l 1,75,-1
 512 0 l 1,72,-1
768 0 m 1,76,-1
 768 256 l 1,77,-1
 1024 256 l 1,78,-1
 1024 0 l 1,79,-1
 768 0 l 1,76,-1
1280 0 m 1,80,-1
 1280 256 l 1,81,-1
 1536 256 l 1,82,-1
 1536 0 l 1,83,-1
 1280 0 l 1,80,-1
1536 0 m 1,84,-1
 1536 256 l 1,85,-1
 1792 256 l 1,86,-1
 1792 0 l 1,87,-1
 1536 0 l 1,84,-1
768 -256 m 1,88,-1
 768 0 l 1,89,-1
 1024 0 l 1,90,-1
 1024 -256 l 1,91,-1
 768 -256 l 1,88,-1
1536 -256 m 1,92,-1
 1536 0 l 1,93,-1
 1792 0 l 1,94,-1
 1792 -256 l 1,95,-1
 1536 -256 l 1,92,-1
EndSplineSet
Validated: 3077
EndChar

StartChar: logicalnot
Encoding: 172 172 112
Width: 2048
LayerCount: 2
Fore
SplineSet
0 768 m 1,0,-1
 0 1024 l 1,1,-1
 256 1024 l 1,2,-1
 256 768 l 1,3,-1
 0 768 l 1,0,-1
256 768 m 1,4,-1
 256 1024 l 1,5,-1
 512 1024 l 1,6,-1
 512 768 l 1,7,-1
 256 768 l 1,4,-1
512 768 m 1,8,-1
 512 1024 l 1,9,-1
 768 1024 l 1,10,-1
 768 768 l 1,11,-1
 512 768 l 1,8,-1
768 768 m 1,12,-1
 768 1024 l 1,13,-1
 1024 1024 l 1,14,-1
 1024 768 l 1,15,-1
 768 768 l 1,12,-1
1024 768 m 1,16,-1
 1024 1024 l 1,17,-1
 1280 1024 l 1,18,-1
 1280 768 l 1,19,-1
 1024 768 l 1,16,-1
1280 768 m 1,20,-1
 1280 1024 l 1,21,-1
 1536 1024 l 1,22,-1
 1536 768 l 1,23,-1
 1280 768 l 1,20,-1
1536 768 m 1,24,-1
 1536 1024 l 1,25,-1
 1792 1024 l 1,26,-1
 1792 768 l 1,27,-1
 1536 768 l 1,24,-1
1280 512 m 1,28,-1
 1280 768 l 1,29,-1
 1536 768 l 1,30,-1
 1536 512 l 1,31,-1
 1280 512 l 1,28,-1
1536 512 m 1,32,-1
 1536 768 l 1,33,-1
 1792 768 l 1,34,-1
 1792 512 l 1,35,-1
 1536 512 l 1,32,-1
1280 256 m 1,36,-1
 1280 512 l 1,37,-1
 1536 512 l 1,38,-1
 1536 256 l 1,39,-1
 1280 256 l 1,36,-1
1536 256 m 1,40,-1
 1536 512 l 1,41,-1
 1792 512 l 1,42,-1
 1792 256 l 1,43,-1
 1536 256 l 1,40,-1
EndSplineSet
Validated: 2053
EndChar

StartChar: registered
Encoding: 174 174 113
Width: 2048
LayerCount: 2
Fore
SplineSet
512 1536 m 1,0,-1
 512 1792 l 1,1,-1
 768 1792 l 1,2,-1
 768 1536 l 1,3,-1
 512 1536 l 1,0,-1
768 1536 m 1,4,-1
 768 1792 l 1,5,-1
 1024 1792 l 1,6,-1
 1024 1536 l 1,7,-1
 768 1536 l 1,4,-1
1024 1536 m 1,8,-1
 1024 1792 l 1,9,-1
 1280 1792 l 1,10,-1
 1280 1536 l 1,11,-1
 1024 1536 l 1,8,-1
1280 1536 m 1,12,-1
 1280 1792 l 1,13,-1
 1536 1792 l 1,14,-1
 1536 1536 l 1,15,-1
 1280 1536 l 1,12,-1
256 1280 m 1,16,-1
 256 1536 l 1,17,-1
 512 1536 l 1,18,-1
 512 1280 l 1,19,-1
 256 1280 l 1,16,-1
1536 1280 m 1,20,-1
 1536 1536 l 1,21,-1
 1792 1536 l 1,22,-1
 1792 1280 l 1,23,-1
 1536 1280 l 1,20,-1
0 1024 m 1,24,-1
 0 1280 l 1,25,-1
 256 1280 l 1,26,-1
 256 1024 l 1,27,-1
 0 1024 l 1,24,-1
512 1024 m 1,28,-1
 512 1280 l 1,29,-1
 768 1280 l 1,30,-1
 768 1024 l 1,31,-1
 512 1024 l 1,28,-1
768 1024 m 1,32,-1
 768 1280 l 1,33,-1
 1024 1280 l 1,34,-1
 1024 1024 l 1,35,-1
 768 1024 l 1,32,-1
1024 1024 m 1,36,-1
 1024 1280 l 1,37,-1
 1280 1280 l 1,38,-1
 1280 1024 l 1,39,-1
 1024 1024 l 1,36,-1
1280 1024 m 1,40,-1
 1280 1280 l 1,41,-1
 1536 1280 l 1,42,-1
 1536 1024 l 1,43,-1
 1280 1024 l 1,40,-1
1792 1024 m 1,44,-1
 1792 1280 l 1,45,-1
 2048 1280 l 1,46,-1
 2048 1024 l 1,47,-1
 1792 1024 l 1,44,-1
0 768 m 1,48,-1
 0 1024 l 1,49,-1
 256 1024 l 1,50,-1
 256 768 l 1,51,-1
 0 768 l 1,48,-1
512 768 m 1,52,-1
 512 1024 l 1,53,-1
 768 1024 l 1,54,-1
 768 768 l 1,55,-1
 512 768 l 1,52,-1
1280 768 m 1,56,-1
 1280 1024 l 1,57,-1
 1536 1024 l 1,58,-1
 1536 768 l 1,59,-1
 1280 768 l 1,56,-1
1792 768 m 1,60,-1
 1792 1024 l 1,61,-1
 2048 1024 l 1,62,-1
 2048 768 l 1,63,-1
 1792 768 l 1,60,-1
0 512 m 1,64,-1
 0 768 l 1,65,-1
 256 768 l 1,66,-1
 256 512 l 1,67,-1
 0 512 l 1,64,-1
512 512 m 1,68,-1
 512 768 l 1,69,-1
 768 768 l 1,70,-1
 768 512 l 1,71,-1
 512 512 l 1,68,-1
768 512 m 1,72,-1
 768 768 l 1,73,-1
 1024 768 l 1,74,-1
 1024 512 l 1,75,-1
 768 512 l 1,72,-1
1024 512 m 1,76,-1
 1024 768 l 1,77,-1
 1280 768 l 1,78,-1
 1280 512 l 1,79,-1
 1024 512 l 1,76,-1
1792 512 m 1,80,-1
 1792 768 l 1,81,-1
 2048 768 l 1,82,-1
 2048 512 l 1,83,-1
 1792 512 l 1,80,-1
0 256 m 1,84,-1
 0 512 l 1,85,-1
 256 512 l 1,86,-1
 256 256 l 1,87,-1
 0 256 l 1,84,-1
512 256 m 1,88,-1
 512 512 l 1,89,-1
 768 512 l 1,90,-1
 768 256 l 1,91,-1
 512 256 l 1,88,-1
1280 256 m 1,92,-1
 1280 512 l 1,93,-1
 1536 512 l 1,94,-1
 1536 256 l 1,95,-1
 1280 256 l 1,92,-1
1792 256 m 1,96,-1
 1792 512 l 1,97,-1
 2048 512 l 1,98,-1
 2048 256 l 1,99,-1
 1792 256 l 1,96,-1
256 0 m 1,100,-1
 256 256 l 1,101,-1
 512 256 l 1,102,-1
 512 0 l 1,103,-1
 256 0 l 1,100,-1
1536 0 m 1,104,-1
 1536 256 l 1,105,-1
 1792 256 l 1,106,-1
 1792 0 l 1,107,-1
 1536 0 l 1,104,-1
512 -256 m 1,108,-1
 512 0 l 1,109,-1
 768 0 l 1,110,-1
 768 -256 l 1,111,-1
 512 -256 l 1,108,-1
768 -256 m 1,112,-1
 768 0 l 1,113,-1
 1024 0 l 1,114,-1
 1024 -256 l 1,115,-1
 768 -256 l 1,112,-1
1024 -256 m 1,116,-1
 1024 0 l 1,117,-1
 1280 0 l 1,118,-1
 1280 -256 l 1,119,-1
 1024 -256 l 1,116,-1
1280 -256 m 1,120,-1
 1280 0 l 1,121,-1
 1536 0 l 1,122,-1
 1536 -256 l 1,123,-1
 1280 -256 l 1,120,-1
EndSplineSet
Validated: 3077
EndChar

StartChar: macron
Encoding: 175 175 114
Width: 2048
LayerCount: 2
Fore
SplineSet
0 1536 m 1,0,-1
 0 1792 l 1,1,-1
 256 1792 l 1,2,-1
 256 1536 l 1,3,-1
 0 1536 l 1,0,-1
256 1536 m 1,4,-1
 256 1792 l 1,5,-1
 512 1792 l 1,6,-1
 512 1536 l 1,7,-1
 256 1536 l 1,4,-1
512 1536 m 1,8,-1
 512 1792 l 1,9,-1
 768 1792 l 1,10,-1
 768 1536 l 1,11,-1
 512 1536 l 1,8,-1
768 1536 m 1,12,-1
 768 1792 l 1,13,-1
 1024 1792 l 1,14,-1
 1024 1536 l 1,15,-1
 768 1536 l 1,12,-1
1024 1536 m 1,16,-1
 1024 1792 l 1,17,-1
 1280 1792 l 1,18,-1
 1280 1536 l 1,19,-1
 1024 1536 l 1,16,-1
1280 1536 m 1,20,-1
 1280 1792 l 1,21,-1
 1536 1792 l 1,22,-1
 1536 1536 l 1,23,-1
 1280 1536 l 1,20,-1
1536 1536 m 1,24,-1
 1536 1792 l 1,25,-1
 1792 1792 l 1,26,-1
 1792 1536 l 1,27,-1
 1536 1536 l 1,24,-1
EndSplineSet
Validated: 5
EndChar

StartChar: degree
Encoding: 176 176 115
Width: 2048
LayerCount: 2
Fore
SplineSet
768 1536 m 1,0,-1
 768 1792 l 1,1,-1
 1024 1792 l 1,2,-1
 1024 1536 l 1,3,-1
 768 1536 l 1,0,-1
1024 1536 m 1,4,-1
 1024 1792 l 1,5,-1
 1280 1792 l 1,6,-1
 1280 1536 l 1,7,-1
 1024 1536 l 1,4,-1
512 1280 m 1,8,-1
 512 1536 l 1,9,-1
 768 1536 l 1,10,-1
 768 1280 l 1,11,-1
 512 1280 l 1,8,-1
1280 1280 m 1,12,-1
 1280 1536 l 1,13,-1
 1536 1536 l 1,14,-1
 1536 1280 l 1,15,-1
 1280 1280 l 1,12,-1
512 1024 m 1,16,-1
 512 1280 l 1,17,-1
 768 1280 l 1,18,-1
 768 1024 l 1,19,-1
 512 1024 l 1,16,-1
1280 1024 m 1,20,-1
 1280 1280 l 1,21,-1
 1536 1280 l 1,22,-1
 1536 1024 l 1,23,-1
 1280 1024 l 1,20,-1
768 768 m 1,24,-1
 768 1024 l 1,25,-1
 1024 1024 l 1,26,-1
 1024 768 l 1,27,-1
 768 768 l 1,24,-1
1024 768 m 1,28,-1
 1024 1024 l 1,29,-1
 1280 1024 l 1,30,-1
 1280 768 l 1,31,-1
 1024 768 l 1,28,-1
EndSplineSet
Validated: 5
EndChar

StartChar: plusminus
Encoding: 177 177 116
Width: 2048
LayerCount: 2
Fore
SplineSet
768 1536 m 1,0,-1
 768 1792 l 1,1,-1
 1024 1792 l 1,2,-1
 1024 1536 l 1,3,-1
 768 1536 l 1,0,-1
768 1280 m 1,4,-1
 768 1536 l 1,5,-1
 1024 1536 l 1,6,-1
 1024 1280 l 1,7,-1
 768 1280 l 1,4,-1
256 1024 m 1,8,-1
 256 1280 l 1,9,-1
 512 1280 l 1,10,-1
 512 1024 l 1,11,-1
 256 1024 l 1,8,-1
512 1024 m 1,12,-1
 512 1280 l 1,13,-1
 768 1280 l 1,14,-1
 768 1024 l 1,15,-1
 512 1024 l 1,12,-1
768 1024 m 1,16,-1
 768 1280 l 1,17,-1
 1024 1280 l 1,18,-1
 1024 1024 l 1,19,-1
 768 1024 l 1,16,-1
1024 1024 m 1,20,-1
 1024 1280 l 1,21,-1
 1280 1280 l 1,22,-1
 1280 1024 l 1,23,-1
 1024 1024 l 1,20,-1
1280 1024 m 1,24,-1
 1280 1280 l 1,25,-1
 1536 1280 l 1,26,-1
 1536 1024 l 1,27,-1
 1280 1024 l 1,24,-1
768 768 m 1,28,-1
 768 1024 l 1,29,-1
 1024 1024 l 1,30,-1
 1024 768 l 1,31,-1
 768 768 l 1,28,-1
768 512 m 1,32,-1
 768 768 l 1,33,-1
 1024 768 l 1,34,-1
 1024 512 l 1,35,-1
 768 512 l 1,32,-1
0 0 m 1,36,-1
 0 256 l 1,37,-1
 256 256 l 1,38,-1
 256 0 l 1,39,-1
 0 0 l 1,36,-1
256 0 m 1,40,-1
 256 256 l 1,41,-1
 512 256 l 1,42,-1
 512 0 l 1,43,-1
 256 0 l 1,40,-1
512 0 m 1,44,-1
 512 256 l 1,45,-1
 768 256 l 1,46,-1
 768 0 l 1,47,-1
 512 0 l 1,44,-1
768 0 m 1,48,-1
 768 256 l 1,49,-1
 1024 256 l 1,50,-1
 1024 0 l 1,51,-1
 768 0 l 1,48,-1
1024 0 m 1,52,-1
 1024 256 l 1,53,-1
 1280 256 l 1,54,-1
 1280 0 l 1,55,-1
 1024 0 l 1,52,-1
1280 0 m 1,56,-1
 1280 256 l 1,57,-1
 1536 256 l 1,58,-1
 1536 0 l 1,59,-1
 1280 0 l 1,56,-1
1536 0 m 1,60,-1
 1536 256 l 1,61,-1
 1792 256 l 1,62,-1
 1792 0 l 1,63,-1
 1536 0 l 1,60,-1
EndSplineSet
Validated: 3077
EndChar

StartChar: uni00B2
Encoding: 178 178 117
Width: 2048
LayerCount: 2
Fore
SplineSet
512 1536 m 1,0,-1
 512 1792 l 1,1,-1
 768 1792 l 1,2,-1
 768 1536 l 1,3,-1
 512 1536 l 1,0,-1
768 1536 m 1,4,-1
 768 1792 l 1,5,-1
 1024 1792 l 1,6,-1
 1024 1536 l 1,7,-1
 768 1536 l 1,4,-1
256 1280 m 1,8,-1
 256 1536 l 1,9,-1
 512 1536 l 1,10,-1
 512 1280 l 1,11,-1
 256 1280 l 1,8,-1
1024 1280 m 1,12,-1
 1024 1536 l 1,13,-1
 1280 1536 l 1,14,-1
 1280 1280 l 1,15,-1
 1024 1280 l 1,12,-1
768 1024 m 1,16,-1
 768 1280 l 1,17,-1
 1024 1280 l 1,18,-1
 1024 1024 l 1,19,-1
 768 1024 l 1,16,-1
512 768 m 1,20,-1
 512 1024 l 1,21,-1
 768 1024 l 1,22,-1
 768 768 l 1,23,-1
 512 768 l 1,20,-1
256 512 m 1,24,-1
 256 768 l 1,25,-1
 512 768 l 1,26,-1
 512 512 l 1,27,-1
 256 512 l 1,24,-1
512 512 m 1,28,-1
 512 768 l 1,29,-1
 768 768 l 1,30,-1
 768 512 l 1,31,-1
 512 512 l 1,28,-1
768 512 m 1,32,-1
 768 768 l 1,33,-1
 1024 768 l 1,34,-1
 1024 512 l 1,35,-1
 768 512 l 1,32,-1
1024 512 m 1,36,-1
 1024 768 l 1,37,-1
 1280 768 l 1,38,-1
 1280 512 l 1,39,-1
 1024 512 l 1,36,-1
EndSplineSet
Validated: 2053
EndChar

StartChar: uni00B3
Encoding: 179 179 118
Width: 2048
LayerCount: 2
Fore
SplineSet
512 1536 m 1,0,-1
 512 1792 l 1,1,-1
 768 1792 l 1,2,-1
 768 1536 l 1,3,-1
 512 1536 l 1,0,-1
768 1536 m 1,4,-1
 768 1792 l 1,5,-1
 1024 1792 l 1,6,-1
 1024 1536 l 1,7,-1
 768 1536 l 1,4,-1
256 1280 m 1,8,-1
 256 1536 l 1,9,-1
 512 1536 l 1,10,-1
 512 1280 l 1,11,-1
 256 1280 l 1,8,-1
1024 1280 m 1,12,-1
 1024 1536 l 1,13,-1
 1280 1536 l 1,14,-1
 1280 1280 l 1,15,-1
 1024 1280 l 1,12,-1
768 1024 m 1,16,-1
 768 1280 l 1,17,-1
 1024 1280 l 1,18,-1
 1024 1024 l 1,19,-1
 768 1024 l 1,16,-1
256 768 m 1,20,-1
 256 1024 l 1,21,-1
 512 1024 l 1,22,-1
 512 768 l 1,23,-1
 256 768 l 1,20,-1
1024 768 m 1,24,-1
 1024 1024 l 1,25,-1
 1280 1024 l 1,26,-1
 1280 768 l 1,27,-1
 1024 768 l 1,24,-1
512 512 m 1,28,-1
 512 768 l 1,29,-1
 768 768 l 1,30,-1
 768 512 l 1,31,-1
 512 512 l 1,28,-1
768 512 m 1,32,-1
 768 768 l 1,33,-1
 1024 768 l 1,34,-1
 1024 512 l 1,35,-1
 768 512 l 1,32,-1
EndSplineSet
Validated: 5
EndChar

StartChar: acute
Encoding: 180 180 119
Width: 2048
LayerCount: 2
Fore
SplineSet
1536 1536 m 1,0,-1
 1536 1792 l 1,1,-1
 1792 1792 l 1,2,-1
 1792 1536 l 1,3,-1
 1536 1536 l 1,0,-1
1280 1280 m 1,4,-1
 1280 1536 l 1,5,-1
 1536 1536 l 1,6,-1
 1536 1280 l 1,7,-1
 1280 1280 l 1,4,-1
1024 1024 m 1,8,-1
 1024 1280 l 1,9,-1
 1280 1280 l 1,10,-1
 1280 1024 l 1,11,-1
 1024 1024 l 1,8,-1
1280 1024 m 1,12,-1
 1280 1280 l 1,13,-1
 1536 1280 l 1,14,-1
 1536 1024 l 1,15,-1
 1280 1024 l 1,12,-1
1024 768 m 1,16,-1
 1024 1024 l 1,17,-1
 1280 1024 l 1,18,-1
 1280 768 l 1,19,-1
 1024 768 l 1,16,-1
1280 768 m 1,20,-1
 1280 1024 l 1,21,-1
 1536 1024 l 1,22,-1
 1536 768 l 1,23,-1
 1280 768 l 1,20,-1
EndSplineSet
Validated: 5
EndChar

StartChar: mu
Encoding: 181 181 120
Width: 2048
LayerCount: 2
Fore
SplineSet
256 1024 m 1,0,-1
 256 1280 l 1,1,-1
 512 1280 l 1,2,-1
 512 1024 l 1,3,-1
 256 1024 l 1,0,-1
512 1024 m 1,4,-1
 512 1280 l 1,5,-1
 768 1280 l 1,6,-1
 768 1024 l 1,7,-1
 512 1024 l 1,4,-1
1024 1024 m 1,8,-1
 1024 1280 l 1,9,-1
 1280 1280 l 1,10,-1
 1280 1024 l 1,11,-1
 1024 1024 l 1,8,-1
1280 1024 m 1,12,-1
 1280 1280 l 1,13,-1
 1536 1280 l 1,14,-1
 1536 1024 l 1,15,-1
 1280 1024 l 1,12,-1
256 768 m 1,16,-1
 256 1024 l 1,17,-1
 512 1024 l 1,18,-1
 512 768 l 1,19,-1
 256 768 l 1,16,-1
512 768 m 1,20,-1
 512 1024 l 1,21,-1
 768 1024 l 1,22,-1
 768 768 l 1,23,-1
 512 768 l 1,20,-1
1024 768 m 1,24,-1
 1024 1024 l 1,25,-1
 1280 1024 l 1,26,-1
 1280 768 l 1,27,-1
 1024 768 l 1,24,-1
1280 768 m 1,28,-1
 1280 1024 l 1,29,-1
 1536 1024 l 1,30,-1
 1536 768 l 1,31,-1
 1280 768 l 1,28,-1
256 512 m 1,32,-1
 256 768 l 1,33,-1
 512 768 l 1,34,-1
 512 512 l 1,35,-1
 256 512 l 1,32,-1
512 512 m 1,36,-1
 512 768 l 1,37,-1
 768 768 l 1,38,-1
 768 512 l 1,39,-1
 512 512 l 1,36,-1
768 512 m 1,40,-1
 768 768 l 1,41,-1
 1024 768 l 1,42,-1
 1024 512 l 1,43,-1
 768 512 l 1,40,-1
1024 512 m 1,44,-1
 1024 768 l 1,45,-1
 1280 768 l 1,46,-1
 1280 512 l 1,47,-1
 1024 512 l 1,44,-1
1280 512 m 1,48,-1
 1280 768 l 1,49,-1
 1536 768 l 1,50,-1
 1536 512 l 1,51,-1
 1280 512 l 1,48,-1
256 256 m 1,52,-1
 256 512 l 1,53,-1
 512 512 l 1,54,-1
 512 256 l 1,55,-1
 256 256 l 1,52,-1
512 256 m 1,56,-1
 512 512 l 1,57,-1
 768 512 l 1,58,-1
 768 256 l 1,59,-1
 512 256 l 1,56,-1
1280 256 m 1,60,-1
 1280 512 l 1,61,-1
 1536 512 l 1,62,-1
 1536 256 l 1,63,-1
 1280 256 l 1,60,-1
1536 256 m 1,64,-1
 1536 512 l 1,65,-1
 1792 512 l 1,66,-1
 1792 256 l 1,67,-1
 1536 256 l 1,64,-1
256 0 m 1,68,-1
 256 256 l 1,69,-1
 512 256 l 1,70,-1
 512 0 l 1,71,-1
 256 0 l 1,68,-1
512 0 m 1,72,-1
 512 256 l 1,73,-1
 768 256 l 1,74,-1
 768 0 l 1,75,-1
 512 0 l 1,72,-1
EndSplineSet
Validated: 3077
EndChar

StartChar: paragraph
Encoding: 182 182 121
Width: 2048
LayerCount: 2
Fore
SplineSet
256 1536 m 1,0,-1
 256 1792 l 1,1,-1
 512 1792 l 1,2,-1
 512 1536 l 1,3,-1
 256 1536 l 1,0,-1
512 1536 m 1,4,-1
 512 1792 l 1,5,-1
 768 1792 l 1,6,-1
 768 1536 l 1,7,-1
 512 1536 l 1,4,-1
768 1536 m 1,8,-1
 768 1792 l 1,9,-1
 1024 1792 l 1,10,-1
 1024 1536 l 1,11,-1
 768 1536 l 1,8,-1
1024 1536 m 1,12,-1
 1024 1792 l 1,13,-1
 1280 1792 l 1,14,-1
 1280 1536 l 1,15,-1
 1024 1536 l 1,12,-1
1280 1536 m 1,16,-1
 1280 1792 l 1,17,-1
 1536 1792 l 1,18,-1
 1536 1536 l 1,19,-1
 1280 1536 l 1,16,-1
1536 1536 m 1,20,-1
 1536 1792 l 1,21,-1
 1792 1792 l 1,22,-1
 1792 1536 l 1,23,-1
 1536 1536 l 1,20,-1
0 1280 m 1,24,-1
 0 1536 l 1,25,-1
 256 1536 l 1,26,-1
 256 1280 l 1,27,-1
 0 1280 l 1,24,-1
256 1280 m 1,28,-1
 256 1536 l 1,29,-1
 512 1536 l 1,30,-1
 512 1280 l 1,31,-1
 256 1280 l 1,28,-1
512 1280 m 1,32,-1
 512 1536 l 1,33,-1
 768 1536 l 1,34,-1
 768 1280 l 1,35,-1
 512 1280 l 1,32,-1
768 1280 m 1,36,-1
 768 1536 l 1,37,-1
 1024 1536 l 1,38,-1
 1024 1280 l 1,39,-1
 768 1280 l 1,36,-1
1280 1280 m 1,40,-1
 1280 1536 l 1,41,-1
 1536 1536 l 1,42,-1
 1536 1280 l 1,43,-1
 1280 1280 l 1,40,-1
1536 1280 m 1,44,-1
 1536 1536 l 1,45,-1
 1792 1536 l 1,46,-1
 1792 1280 l 1,47,-1
 1536 1280 l 1,44,-1
0 1024 m 1,48,-1
 0 1280 l 1,49,-1
 256 1280 l 1,50,-1
 256 1024 l 1,51,-1
 0 1024 l 1,48,-1
256 1024 m 1,52,-1
 256 1280 l 1,53,-1
 512 1280 l 1,54,-1
 512 1024 l 1,55,-1
 256 1024 l 1,52,-1
512 1024 m 1,56,-1
 512 1280 l 1,57,-1
 768 1280 l 1,58,-1
 768 1024 l 1,59,-1
 512 1024 l 1,56,-1
768 1024 m 1,60,-1
 768 1280 l 1,61,-1
 1024 1280 l 1,62,-1
 1024 1024 l 1,63,-1
 768 1024 l 1,60,-1
1280 1024 m 1,64,-1
 1280 1280 l 1,65,-1
 1536 1280 l 1,66,-1
 1536 1024 l 1,67,-1
 1280 1024 l 1,64,-1
1536 1024 m 1,68,-1
 1536 1280 l 1,69,-1
 1792 1280 l 1,70,-1
 1792 1024 l 1,71,-1
 1536 1024 l 1,68,-1
0 768 m 1,72,-1
 0 1024 l 1,73,-1
 256 1024 l 1,74,-1
 256 768 l 1,75,-1
 0 768 l 1,72,-1
256 768 m 1,76,-1
 256 1024 l 1,77,-1
 512 1024 l 1,78,-1
 512 768 l 1,79,-1
 256 768 l 1,76,-1
512 768 m 1,80,-1
 512 1024 l 1,81,-1
 768 1024 l 1,82,-1
 768 768 l 1,83,-1
 512 768 l 1,80,-1
768 768 m 1,84,-1
 768 1024 l 1,85,-1
 1024 1024 l 1,86,-1
 1024 768 l 1,87,-1
 768 768 l 1,84,-1
1280 768 m 1,88,-1
 1280 1024 l 1,89,-1
 1536 1024 l 1,90,-1
 1536 768 l 1,91,-1
 1280 768 l 1,88,-1
1536 768 m 1,92,-1
 1536 1024 l 1,93,-1
 1792 1024 l 1,94,-1
 1792 768 l 1,95,-1
 1536 768 l 1,92,-1
256 512 m 1,96,-1
 256 768 l 1,97,-1
 512 768 l 1,98,-1
 512 512 l 1,99,-1
 256 512 l 1,96,-1
512 512 m 1,100,-1
 512 768 l 1,101,-1
 768 768 l 1,102,-1
 768 512 l 1,103,-1
 512 512 l 1,100,-1
768 512 m 1,104,-1
 768 768 l 1,105,-1
 1024 768 l 1,106,-1
 1024 512 l 1,107,-1
 768 512 l 1,104,-1
1280 512 m 1,108,-1
 1280 768 l 1,109,-1
 1536 768 l 1,110,-1
 1536 512 l 1,111,-1
 1280 512 l 1,108,-1
1536 512 m 1,112,-1
 1536 768 l 1,113,-1
 1792 768 l 1,114,-1
 1792 512 l 1,115,-1
 1536 512 l 1,112,-1
768 256 m 1,116,-1
 768 512 l 1,117,-1
 1024 512 l 1,118,-1
 1024 256 l 1,119,-1
 768 256 l 1,116,-1
1280 256 m 1,120,-1
 1280 512 l 1,121,-1
 1536 512 l 1,122,-1
 1536 256 l 1,123,-1
 1280 256 l 1,120,-1
1536 256 m 1,124,-1
 1536 512 l 1,125,-1
 1792 512 l 1,126,-1
 1792 256 l 1,127,-1
 1536 256 l 1,124,-1
768 0 m 1,128,-1
 768 256 l 1,129,-1
 1024 256 l 1,130,-1
 1024 0 l 1,131,-1
 768 0 l 1,128,-1
1280 0 m 1,132,-1
 1280 256 l 1,133,-1
 1536 256 l 1,134,-1
 1536 0 l 1,135,-1
 1280 0 l 1,132,-1
1536 0 m 1,136,-1
 1536 256 l 1,137,-1
 1792 256 l 1,138,-1
 1792 0 l 1,139,-1
 1536 0 l 1,136,-1
EndSplineSet
Validated: 3077
EndChar

StartChar: periodcentered
Encoding: 183 183 122
Width: 2048
LayerCount: 2
Fore
SplineSet
768 768 m 1,0,-1
 768 1024 l 1,1,-1
 1024 1024 l 1,2,-1
 1024 768 l 1,3,-1
 768 768 l 1,0,-1
1024 768 m 1,4,-1
 1024 1024 l 1,5,-1
 1280 1024 l 1,6,-1
 1280 768 l 1,7,-1
 1024 768 l 1,4,-1
768 512 m 1,8,-1
 768 768 l 1,9,-1
 1024 768 l 1,10,-1
 1024 512 l 1,11,-1
 768 512 l 1,8,-1
1024 512 m 1,12,-1
 1024 768 l 1,13,-1
 1280 768 l 1,14,-1
 1280 512 l 1,15,-1
 1024 512 l 1,12,-1
EndSplineSet
Validated: 5
EndChar

StartChar: cedilla
Encoding: 184 184 123
Width: 2048
LayerCount: 2
Fore
SplineSet
1024 256 m 1,0,-1
 1024 512 l 1,1,-1
 1280 512 l 1,2,-1
 1280 256 l 1,3,-1
 1024 256 l 1,0,-1
1280 0 m 1,4,-1
 1280 256 l 1,5,-1
 1536 256 l 1,6,-1
 1536 0 l 1,7,-1
 1280 0 l 1,4,-1
768 -256 m 1,8,-1
 768 0 l 1,9,-1
 1024 0 l 1,10,-1
 1024 -256 l 1,11,-1
 768 -256 l 1,8,-1
1024 -256 m 1,12,-1
 1024 0 l 1,13,-1
 1280 0 l 1,14,-1
 1280 -256 l 1,15,-1
 1024 -256 l 1,12,-1
EndSplineSet
Validated: 5
EndChar

StartChar: uni00B9
Encoding: 185 185 124
Width: 2048
LayerCount: 2
Fore
SplineSet
512 1536 m 1,0,-1
 512 1792 l 1,1,-1
 768 1792 l 1,2,-1
 768 1536 l 1,3,-1
 512 1536 l 1,0,-1
256 1280 m 1,4,-1
 256 1536 l 1,5,-1
 512 1536 l 1,6,-1
 512 1280 l 1,7,-1
 256 1280 l 1,4,-1
512 1280 m 1,8,-1
 512 1536 l 1,9,-1
 768 1536 l 1,10,-1
 768 1280 l 1,11,-1
 512 1280 l 1,8,-1
512 1024 m 1,12,-1
 512 1280 l 1,13,-1
 768 1280 l 1,14,-1
 768 1024 l 1,15,-1
 512 1024 l 1,12,-1
512 768 m 1,16,-1
 512 1024 l 1,17,-1
 768 1024 l 1,18,-1
 768 768 l 1,19,-1
 512 768 l 1,16,-1
256 512 m 1,20,-1
 256 768 l 1,21,-1
 512 768 l 1,22,-1
 512 512 l 1,23,-1
 256 512 l 1,20,-1
512 512 m 1,24,-1
 512 768 l 1,25,-1
 768 768 l 1,26,-1
 768 512 l 1,27,-1
 512 512 l 1,24,-1
768 512 m 1,28,-1
 768 768 l 1,29,-1
 1024 768 l 1,30,-1
 1024 512 l 1,31,-1
 768 512 l 1,28,-1
EndSplineSet
Validated: 5
EndChar

StartChar: ordmasculine
Encoding: 186 186 125
Width: 2048
LayerCount: 2
Fore
SplineSet
256 1280 m 1,0,-1
 256 1536 l 1,1,-1
 512 1536 l 1,2,-1
 512 1280 l 1,3,-1
 256 1280 l 1,0,-1
512 1280 m 1,4,-1
 512 1536 l 1,5,-1
 768 1536 l 1,6,-1
 768 1280 l 1,7,-1
 512 1280 l 1,4,-1
768 1280 m 1,8,-1
 768 1536 l 1,9,-1
 1024 1536 l 1,10,-1
 1024 1280 l 1,11,-1
 768 1280 l 1,8,-1
256 1024 m 1,12,-1
 256 1280 l 1,13,-1
 512 1280 l 1,14,-1
 512 1024 l 1,15,-1
 256 1024 l 1,12,-1
768 1024 m 1,16,-1
 768 1280 l 1,17,-1
 1024 1280 l 1,18,-1
 1024 1024 l 1,19,-1
 768 1024 l 1,16,-1
256 768 m 1,20,-1
 256 1024 l 1,21,-1
 512 1024 l 1,22,-1
 512 768 l 1,23,-1
 256 768 l 1,20,-1
512 768 m 1,24,-1
 512 1024 l 1,25,-1
 768 1024 l 1,26,-1
 768 768 l 1,27,-1
 512 768 l 1,24,-1
768 768 m 1,28,-1
 768 1024 l 1,29,-1
 1024 1024 l 1,30,-1
 1024 768 l 1,31,-1
 768 768 l 1,28,-1
0 0 m 1,32,-1
 0 256 l 1,33,-1
 256 256 l 1,34,-1
 256 0 l 1,35,-1
 0 0 l 1,32,-1
256 0 m 1,36,-1
 256 256 l 1,37,-1
 512 256 l 1,38,-1
 512 0 l 1,39,-1
 256 0 l 1,36,-1
512 0 m 1,40,-1
 512 256 l 1,41,-1
 768 256 l 1,42,-1
 768 0 l 1,43,-1
 512 0 l 1,40,-1
768 0 m 1,44,-1
 768 256 l 1,45,-1
 1024 256 l 1,46,-1
 1024 0 l 1,47,-1
 768 0 l 1,44,-1
1024 0 m 1,48,-1
 1024 256 l 1,49,-1
 1280 256 l 1,50,-1
 1280 0 l 1,51,-1
 1024 0 l 1,48,-1
EndSplineSet
Validated: 3077
EndChar

StartChar: guillemotright
Encoding: 187 187 126
Width: 2048
LayerCount: 2
Fore
SplineSet
256 1280 m 1,0,-1
 256 1536 l 1,1,-1
 512 1536 l 1,2,-1
 512 1280 l 1,3,-1
 256 1280 l 1,0,-1
1024 1280 m 1,4,-1
 1024 1536 l 1,5,-1
 1280 1536 l 1,6,-1
 1280 1280 l 1,7,-1
 1024 1280 l 1,4,-1
256 1024 m 1,8,-1
 256 1280 l 1,9,-1
 512 1280 l 1,10,-1
 512 1024 l 1,11,-1
 256 1024 l 1,8,-1
512 1024 m 1,12,-1
 512 1280 l 1,13,-1
 768 1280 l 1,14,-1
 768 1024 l 1,15,-1
 512 1024 l 1,12,-1
1024 1024 m 1,16,-1
 1024 1280 l 1,17,-1
 1280 1280 l 1,18,-1
 1280 1024 l 1,19,-1
 1024 1024 l 1,16,-1
1280 1024 m 1,20,-1
 1280 1280 l 1,21,-1
 1536 1280 l 1,22,-1
 1536 1024 l 1,23,-1
 1280 1024 l 1,20,-1
512 768 m 1,24,-1
 512 1024 l 1,25,-1
 768 1024 l 1,26,-1
 768 768 l 1,27,-1
 512 768 l 1,24,-1
768 768 m 1,28,-1
 768 1024 l 1,29,-1
 1024 1024 l 1,30,-1
 1024 768 l 1,31,-1
 768 768 l 1,28,-1
1280 768 m 1,32,-1
 1280 1024 l 1,33,-1
 1536 1024 l 1,34,-1
 1536 768 l 1,35,-1
 1280 768 l 1,32,-1
1536 768 m 1,36,-1
 1536 1024 l 1,37,-1
 1792 1024 l 1,38,-1
 1792 768 l 1,39,-1
 1536 768 l 1,36,-1
768 512 m 1,40,-1
 768 768 l 1,41,-1
 1024 768 l 1,42,-1
 1024 512 l 1,43,-1
 768 512 l 1,40,-1
1024 512 m 1,44,-1
 1024 768 l 1,45,-1
 1280 768 l 1,46,-1
 1280 512 l 1,47,-1
 1024 512 l 1,44,-1
1536 512 m 1,48,-1
 1536 768 l 1,49,-1
 1792 768 l 1,50,-1
 1792 512 l 1,51,-1
 1536 512 l 1,48,-1
1792 512 m 1,52,-1
 1792 768 l 1,53,-1
 2048 768 l 1,54,-1
 2048 512 l 1,55,-1
 1792 512 l 1,52,-1
512 256 m 1,56,-1
 512 512 l 1,57,-1
 768 512 l 1,58,-1
 768 256 l 1,59,-1
 512 256 l 1,56,-1
768 256 m 1,60,-1
 768 512 l 1,61,-1
 1024 512 l 1,62,-1
 1024 256 l 1,63,-1
 768 256 l 1,60,-1
1280 256 m 1,64,-1
 1280 512 l 1,65,-1
 1536 512 l 1,66,-1
 1536 256 l 1,67,-1
 1280 256 l 1,64,-1
1536 256 m 1,68,-1
 1536 512 l 1,69,-1
 1792 512 l 1,70,-1
 1792 256 l 1,71,-1
 1536 256 l 1,68,-1
256 0 m 1,72,-1
 256 256 l 1,73,-1
 512 256 l 1,74,-1
 512 0 l 1,75,-1
 256 0 l 1,72,-1
512 0 m 1,76,-1
 512 256 l 1,77,-1
 768 256 l 1,78,-1
 768 0 l 1,79,-1
 512 0 l 1,76,-1
1024 0 m 1,80,-1
 1024 256 l 1,81,-1
 1280 256 l 1,82,-1
 1280 0 l 1,83,-1
 1024 0 l 1,80,-1
1280 0 m 1,84,-1
 1280 256 l 1,85,-1
 1536 256 l 1,86,-1
 1536 0 l 1,87,-1
 1280 0 l 1,84,-1
256 -256 m 1,88,-1
 256 0 l 1,89,-1
 512 0 l 1,90,-1
 512 -256 l 1,91,-1
 256 -256 l 1,88,-1
1024 -256 m 1,92,-1
 1024 0 l 1,93,-1
 1280 0 l 1,94,-1
 1280 -256 l 1,95,-1
 1024 -256 l 1,92,-1
EndSplineSet
Validated: 3077
EndChar

StartChar: onequarter
Encoding: 188 188 127
Width: 2048
LayerCount: 2
Fore
SplineSet
256 1536 m 1,0,-1
 256 1792 l 1,1,-1
 512 1792 l 1,2,-1
 512 1536 l 1,3,-1
 256 1536 l 1,0,-1
1280 1536 m 1,4,-1
 1280 1792 l 1,5,-1
 1536 1792 l 1,6,-1
 1536 1536 l 1,7,-1
 1280 1536 l 1,4,-1
1536 1536 m 1,8,-1
 1536 1792 l 1,9,-1
 1792 1792 l 1,10,-1
 1792 1536 l 1,11,-1
 1536 1536 l 1,8,-1
0 1280 m 1,12,-1
 0 1536 l 1,13,-1
 256 1536 l 1,14,-1
 256 1280 l 1,15,-1
 0 1280 l 1,12,-1
256 1280 m 1,16,-1
 256 1536 l 1,17,-1
 512 1536 l 1,18,-1
 512 1280 l 1,19,-1
 256 1280 l 1,16,-1
1024 1280 m 1,20,-1
 1024 1536 l 1,21,-1
 1280 1536 l 1,22,-1
 1280 1280 l 1,23,-1
 1024 1280 l 1,20,-1
1280 1280 m 1,24,-1
 1280 1536 l 1,25,-1
 1536 1536 l 1,26,-1
 1536 1280 l 1,27,-1
 1280 1280 l 1,24,-1
256 1024 m 1,28,-1
 256 1280 l 1,29,-1
 512 1280 l 1,30,-1
 512 1024 l 1,31,-1
 256 1024 l 1,28,-1
1024 1024 m 1,32,-1
 1024 1280 l 1,33,-1
 1280 1280 l 1,34,-1
 1280 1024 l 1,35,-1
 1024 1024 l 1,32,-1
1280 1024 m 1,36,-1
 1280 1280 l 1,37,-1
 1536 1280 l 1,38,-1
 1536 1024 l 1,39,-1
 1280 1024 l 1,36,-1
0 768 m 1,40,-1
 0 1024 l 1,41,-1
 256 1024 l 1,42,-1
 256 768 l 1,43,-1
 0 768 l 1,40,-1
256 768 m 1,44,-1
 256 1024 l 1,45,-1
 512 1024 l 1,46,-1
 512 768 l 1,47,-1
 256 768 l 1,44,-1
512 768 m 1,48,-1
 512 1024 l 1,49,-1
 768 1024 l 1,50,-1
 768 768 l 1,51,-1
 512 768 l 1,48,-1
768 768 m 1,52,-1
 768 1024 l 1,53,-1
 1024 1024 l 1,54,-1
 1024 768 l 1,55,-1
 768 768 l 1,52,-1
1024 768 m 1,56,-1
 1024 1024 l 1,57,-1
 1280 1024 l 1,58,-1
 1280 768 l 1,59,-1
 1024 768 l 1,56,-1
768 512 m 1,60,-1
 768 768 l 1,61,-1
 1024 768 l 1,62,-1
 1024 512 l 1,63,-1
 768 512 l 1,60,-1
1024 512 m 1,64,-1
 1024 768 l 1,65,-1
 1280 768 l 1,66,-1
 1280 512 l 1,67,-1
 1024 512 l 1,64,-1
1536 512 m 1,68,-1
 1536 768 l 1,69,-1
 1792 768 l 1,70,-1
 1792 512 l 1,71,-1
 1536 512 l 1,68,-1
1792 512 m 1,72,-1
 1792 768 l 1,73,-1
 2048 768 l 1,74,-1
 2048 512 l 1,75,-1
 1792 512 l 1,72,-1
512 256 m 1,76,-1
 512 512 l 1,77,-1
 768 512 l 1,78,-1
 768 256 l 1,79,-1
 512 256 l 1,76,-1
768 256 m 1,80,-1
 768 512 l 1,81,-1
 1024 512 l 1,82,-1
 1024 256 l 1,83,-1
 768 256 l 1,80,-1
1280 256 m 1,84,-1
 1280 512 l 1,85,-1
 1536 512 l 1,86,-1
 1536 256 l 1,87,-1
 1280 256 l 1,84,-1
1792 256 m 1,88,-1
 1792 512 l 1,89,-1
 2048 512 l 1,90,-1
 2048 256 l 1,91,-1
 1792 256 l 1,88,-1
512 0 m 1,92,-1
 512 256 l 1,93,-1
 768 256 l 1,94,-1
 768 0 l 1,95,-1
 512 0 l 1,92,-1
768 0 m 1,96,-1
 768 256 l 1,97,-1
 1024 256 l 1,98,-1
 1024 0 l 1,99,-1
 768 0 l 1,96,-1
1280 0 m 1,100,-1
 1280 256 l 1,101,-1
 1536 256 l 1,102,-1
 1536 0 l 1,103,-1
 1280 0 l 1,100,-1
1536 0 m 1,104,-1
 1536 256 l 1,105,-1
 1792 256 l 1,106,-1
 1792 0 l 1,107,-1
 1536 0 l 1,104,-1
1792 0 m 1,108,-1
 1792 256 l 1,109,-1
 2048 256 l 1,110,-1
 2048 0 l 1,111,-1
 1792 0 l 1,108,-1
256 -256 m 1,112,-1
 256 0 l 1,113,-1
 512 0 l 1,114,-1
 512 -256 l 1,115,-1
 256 -256 l 1,112,-1
512 -256 m 1,116,-1
 512 0 l 1,117,-1
 768 0 l 1,118,-1
 768 -256 l 1,119,-1
 512 -256 l 1,116,-1
1792 -256 m 1,120,-1
 1792 0 l 1,121,-1
 2048 0 l 1,122,-1
 2048 -256 l 1,123,-1
 1792 -256 l 1,120,-1
EndSplineSet
Validated: 3077
EndChar

StartChar: onehalf
Encoding: 189 189 128
Width: 2048
LayerCount: 2
Fore
SplineSet
256 1536 m 1,0,-1
 256 1792 l 1,1,-1
 512 1792 l 1,2,-1
 512 1536 l 1,3,-1
 256 1536 l 1,0,-1
1280 1536 m 1,4,-1
 1280 1792 l 1,5,-1
 1536 1792 l 1,6,-1
 1536 1536 l 1,7,-1
 1280 1536 l 1,4,-1
1536 1536 m 1,8,-1
 1536 1792 l 1,9,-1
 1792 1792 l 1,10,-1
 1792 1536 l 1,11,-1
 1536 1536 l 1,8,-1
0 1280 m 1,12,-1
 0 1536 l 1,13,-1
 256 1536 l 1,14,-1
 256 1280 l 1,15,-1
 0 1280 l 1,12,-1
256 1280 m 1,16,-1
 256 1536 l 1,17,-1
 512 1536 l 1,18,-1
 512 1280 l 1,19,-1
 256 1280 l 1,16,-1
1024 1280 m 1,20,-1
 1024 1536 l 1,21,-1
 1280 1536 l 1,22,-1
 1280 1280 l 1,23,-1
 1024 1280 l 1,20,-1
1280 1280 m 1,24,-1
 1280 1536 l 1,25,-1
 1536 1536 l 1,26,-1
 1536 1280 l 1,27,-1
 1280 1280 l 1,24,-1
256 1024 m 1,28,-1
 256 1280 l 1,29,-1
 512 1280 l 1,30,-1
 512 1024 l 1,31,-1
 256 1024 l 1,28,-1
1024 1024 m 1,32,-1
 1024 1280 l 1,33,-1
 1280 1280 l 1,34,-1
 1280 1024 l 1,35,-1
 1024 1024 l 1,32,-1
1280 1024 m 1,36,-1
 1280 1280 l 1,37,-1
 1536 1280 l 1,38,-1
 1536 1024 l 1,39,-1
 1280 1024 l 1,36,-1
0 768 m 1,40,-1
 0 1024 l 1,41,-1
 256 1024 l 1,42,-1
 256 768 l 1,43,-1
 0 768 l 1,40,-1
256 768 m 1,44,-1
 256 1024 l 1,45,-1
 512 1024 l 1,46,-1
 512 768 l 1,47,-1
 256 768 l 1,44,-1
512 768 m 1,48,-1
 512 1024 l 1,49,-1
 768 1024 l 1,50,-1
 768 768 l 1,51,-1
 512 768 l 1,48,-1
768 768 m 1,52,-1
 768 1024 l 1,53,-1
 1024 1024 l 1,54,-1
 1024 768 l 1,55,-1
 768 768 l 1,52,-1
1024 768 m 1,56,-1
 1024 1024 l 1,57,-1
 1280 1024 l 1,58,-1
 1280 768 l 1,59,-1
 1024 768 l 1,56,-1
768 512 m 1,60,-1
 768 768 l 1,61,-1
 1024 768 l 1,62,-1
 1024 512 l 1,63,-1
 768 512 l 1,60,-1
1024 512 m 1,64,-1
 1024 768 l 1,65,-1
 1280 768 l 1,66,-1
 1280 512 l 1,67,-1
 1024 512 l 1,64,-1
1280 512 m 1,68,-1
 1280 768 l 1,69,-1
 1536 768 l 1,70,-1
 1536 512 l 1,71,-1
 1280 512 l 1,68,-1
1536 512 m 1,72,-1
 1536 768 l 1,73,-1
 1792 768 l 1,74,-1
 1792 512 l 1,75,-1
 1536 512 l 1,72,-1
512 256 m 1,76,-1
 512 512 l 1,77,-1
 768 512 l 1,78,-1
 768 256 l 1,79,-1
 512 256 l 1,76,-1
768 256 m 1,80,-1
 768 512 l 1,81,-1
 1024 512 l 1,82,-1
 1024 256 l 1,83,-1
 768 256 l 1,80,-1
1792 256 m 1,84,-1
 1792 512 l 1,85,-1
 2048 512 l 1,86,-1
 2048 256 l 1,87,-1
 1792 256 l 1,84,-1
512 0 m 1,88,-1
 512 256 l 1,89,-1
 768 256 l 1,90,-1
 768 0 l 1,91,-1
 512 0 l 1,88,-1
768 0 m 1,92,-1
 768 256 l 1,93,-1
 1024 256 l 1,94,-1
 1024 0 l 1,95,-1
 768 0 l 1,92,-1
1536 0 m 1,96,-1
 1536 256 l 1,97,-1
 1792 256 l 1,98,-1
 1792 0 l 1,99,-1
 1536 0 l 1,96,-1
256 -256 m 1,100,-1
 256 0 l 1,101,-1
 512 0 l 1,102,-1
 512 -256 l 1,103,-1
 256 -256 l 1,100,-1
512 -256 m 1,104,-1
 512 0 l 1,105,-1
 768 0 l 1,106,-1
 768 -256 l 1,107,-1
 512 -256 l 1,104,-1
1280 -256 m 1,108,-1
 1280 0 l 1,109,-1
 1536 0 l 1,110,-1
 1536 -256 l 1,111,-1
 1280 -256 l 1,108,-1
1536 -256 m 1,112,-1
 1536 0 l 1,113,-1
 1792 0 l 1,114,-1
 1792 -256 l 1,115,-1
 1536 -256 l 1,112,-1
1792 -256 m 1,116,-1
 1792 0 l 1,117,-1
 2048 0 l 1,118,-1
 2048 -256 l 1,119,-1
 1792 -256 l 1,116,-1
EndSplineSet
Validated: 3077
EndChar

StartChar: threequarters
Encoding: 190 190 129
Width: 2048
LayerCount: 2
Fore
SplineSet
0 1536 m 1,0,-1
 0 1792 l 1,1,-1
 256 1792 l 1,2,-1
 256 1536 l 1,3,-1
 0 1536 l 1,0,-1
256 1536 m 1,4,-1
 256 1792 l 1,5,-1
 512 1792 l 1,6,-1
 512 1536 l 1,7,-1
 256 1536 l 1,4,-1
1280 1536 m 1,8,-1
 1280 1792 l 1,9,-1
 1536 1792 l 1,10,-1
 1536 1536 l 1,11,-1
 1280 1536 l 1,8,-1
1536 1536 m 1,12,-1
 1536 1792 l 1,13,-1
 1792 1792 l 1,14,-1
 1792 1536 l 1,15,-1
 1536 1536 l 1,12,-1
512 1280 m 1,16,-1
 512 1536 l 1,17,-1
 768 1536 l 1,18,-1
 768 1280 l 1,19,-1
 512 1280 l 1,16,-1
1024 1280 m 1,20,-1
 1024 1536 l 1,21,-1
 1280 1536 l 1,22,-1
 1280 1280 l 1,23,-1
 1024 1280 l 1,20,-1
1280 1280 m 1,24,-1
 1280 1536 l 1,25,-1
 1536 1536 l 1,26,-1
 1536 1280 l 1,27,-1
 1280 1280 l 1,24,-1
256 1024 m 1,28,-1
 256 1280 l 1,29,-1
 512 1280 l 1,30,-1
 512 1024 l 1,31,-1
 256 1024 l 1,28,-1
512 1024 m 1,32,-1
 512 1280 l 1,33,-1
 768 1280 l 1,34,-1
 768 1024 l 1,35,-1
 512 1024 l 1,32,-1
1024 1024 m 1,36,-1
 1024 1280 l 1,37,-1
 1280 1280 l 1,38,-1
 1280 1024 l 1,39,-1
 1024 1024 l 1,36,-1
1280 1024 m 1,40,-1
 1280 1280 l 1,41,-1
 1536 1280 l 1,42,-1
 1536 1024 l 1,43,-1
 1280 1024 l 1,40,-1
512 768 m 1,44,-1
 512 1024 l 1,45,-1
 768 1024 l 1,46,-1
 768 768 l 1,47,-1
 512 768 l 1,44,-1
768 768 m 1,48,-1
 768 1024 l 1,49,-1
 1024 1024 l 1,50,-1
 1024 768 l 1,51,-1
 768 768 l 1,48,-1
1024 768 m 1,52,-1
 1024 1024 l 1,53,-1
 1280 1024 l 1,54,-1
 1280 768 l 1,55,-1
 1024 768 l 1,52,-1
0 512 m 1,56,-1
 0 768 l 1,57,-1
 256 768 l 1,58,-1
 256 512 l 1,59,-1
 0 512 l 1,56,-1
256 512 m 1,60,-1
 256 768 l 1,61,-1
 512 768 l 1,62,-1
 512 512 l 1,63,-1
 256 512 l 1,60,-1
768 512 m 1,64,-1
 768 768 l 1,65,-1
 1024 768 l 1,66,-1
 1024 512 l 1,67,-1
 768 512 l 1,64,-1
1024 512 m 1,68,-1
 1024 768 l 1,69,-1
 1280 768 l 1,70,-1
 1280 512 l 1,71,-1
 1024 512 l 1,68,-1
1536 512 m 1,72,-1
 1536 768 l 1,73,-1
 1792 768 l 1,74,-1
 1792 512 l 1,75,-1
 1536 512 l 1,72,-1
1792 512 m 1,76,-1
 1792 768 l 1,77,-1
 2048 768 l 1,78,-1
 2048 512 l 1,79,-1
 1792 512 l 1,76,-1
512 256 m 1,80,-1
 512 512 l 1,81,-1
 768 512 l 1,82,-1
 768 256 l 1,83,-1
 512 256 l 1,80,-1
768 256 m 1,84,-1
 768 512 l 1,85,-1
 1024 512 l 1,86,-1
 1024 256 l 1,87,-1
 768 256 l 1,84,-1
1280 256 m 1,88,-1
 1280 512 l 1,89,-1
 1536 512 l 1,90,-1
 1536 256 l 1,91,-1
 1280 256 l 1,88,-1
1792 256 m 1,92,-1
 1792 512 l 1,93,-1
 2048 512 l 1,94,-1
 2048 256 l 1,95,-1
 1792 256 l 1,92,-1
512 0 m 1,96,-1
 512 256 l 1,97,-1
 768 256 l 1,98,-1
 768 0 l 1,99,-1
 512 0 l 1,96,-1
768 0 m 1,100,-1
 768 256 l 1,101,-1
 1024 256 l 1,102,-1
 1024 0 l 1,103,-1
 768 0 l 1,100,-1
1280 0 m 1,104,-1
 1280 256 l 1,105,-1
 1536 256 l 1,106,-1
 1536 0 l 1,107,-1
 1280 0 l 1,104,-1
1536 0 m 1,108,-1
 1536 256 l 1,109,-1
 1792 256 l 1,110,-1
 1792 0 l 1,111,-1
 1536 0 l 1,108,-1
1792 0 m 1,112,-1
 1792 256 l 1,113,-1
 2048 256 l 1,114,-1
 2048 0 l 1,115,-1
 1792 0 l 1,112,-1
256 -256 m 1,116,-1
 256 0 l 1,117,-1
 512 0 l 1,118,-1
 512 -256 l 1,119,-1
 256 -256 l 1,116,-1
512 -256 m 1,120,-1
 512 0 l 1,121,-1
 768 0 l 1,122,-1
 768 -256 l 1,123,-1
 512 -256 l 1,120,-1
1792 -256 m 1,124,-1
 1792 0 l 1,125,-1
 2048 0 l 1,126,-1
 2048 -256 l 1,127,-1
 1792 -256 l 1,124,-1
EndSplineSet
Validated: 3077
EndChar

StartChar: questiondown
Encoding: 191 191 130
Width: 2048
LayerCount: 2
Fore
SplineSet
1024 1280 m 1,0,-1
 1024 1536 l 1,1,-1
 1280 1536 l 1,2,-1
 1280 1280 l 1,3,-1
 1024 1280 l 1,0,-1
1280 1280 m 1,4,-1
 1280 1536 l 1,5,-1
 1536 1536 l 1,6,-1
 1536 1280 l 1,7,-1
 1280 1280 l 1,4,-1
1024 768 m 1,8,-1
 1024 1024 l 1,9,-1
 1280 1024 l 1,10,-1
 1280 768 l 1,11,-1
 1024 768 l 1,8,-1
1280 768 m 1,12,-1
 1280 1024 l 1,13,-1
 1536 1024 l 1,14,-1
 1536 768 l 1,15,-1
 1280 768 l 1,12,-1
512 512 m 1,16,-1
 512 768 l 1,17,-1
 768 768 l 1,18,-1
 768 512 l 1,19,-1
 512 512 l 1,16,-1
768 512 m 1,20,-1
 768 768 l 1,21,-1
 1024 768 l 1,22,-1
 1024 512 l 1,23,-1
 768 512 l 1,20,-1
1024 512 m 1,24,-1
 1024 768 l 1,25,-1
 1280 768 l 1,26,-1
 1280 512 l 1,27,-1
 1024 512 l 1,24,-1
1280 512 m 1,28,-1
 1280 768 l 1,29,-1
 1536 768 l 1,30,-1
 1536 512 l 1,31,-1
 1280 512 l 1,28,-1
256 256 m 1,32,-1
 256 512 l 1,33,-1
 512 512 l 1,34,-1
 512 256 l 1,35,-1
 256 256 l 1,32,-1
512 256 m 1,36,-1
 512 512 l 1,37,-1
 768 512 l 1,38,-1
 768 256 l 1,39,-1
 512 256 l 1,36,-1
1536 256 m 1,40,-1
 1536 512 l 1,41,-1
 1792 512 l 1,42,-1
 1792 256 l 1,43,-1
 1536 256 l 1,40,-1
1792 256 m 1,44,-1
 1792 512 l 1,45,-1
 2048 512 l 1,46,-1
 2048 256 l 1,47,-1
 1792 256 l 1,44,-1
256 0 m 1,48,-1
 256 256 l 1,49,-1
 512 256 l 1,50,-1
 512 0 l 1,51,-1
 256 0 l 1,48,-1
512 0 m 1,52,-1
 512 256 l 1,53,-1
 768 256 l 1,54,-1
 768 0 l 1,55,-1
 512 0 l 1,52,-1
1536 0 m 1,56,-1
 1536 256 l 1,57,-1
 1792 256 l 1,58,-1
 1792 0 l 1,59,-1
 1536 0 l 1,56,-1
1792 0 m 1,60,-1
 1792 256 l 1,61,-1
 2048 256 l 1,62,-1
 2048 0 l 1,63,-1
 1792 0 l 1,60,-1
512 -256 m 1,64,-1
 512 0 l 1,65,-1
 768 0 l 1,66,-1
 768 -256 l 1,67,-1
 512 -256 l 1,64,-1
768 -256 m 1,68,-1
 768 0 l 1,69,-1
 1024 0 l 1,70,-1
 1024 -256 l 1,71,-1
 768 -256 l 1,68,-1
1024 -256 m 1,72,-1
 1024 0 l 1,73,-1
 1280 0 l 1,74,-1
 1280 -256 l 1,75,-1
 1024 -256 l 1,72,-1
1280 -256 m 1,76,-1
 1280 0 l 1,77,-1
 1536 0 l 1,78,-1
 1536 -256 l 1,79,-1
 1280 -256 l 1,76,-1
1536 -256 m 1,80,-1
 1536 0 l 1,81,-1
 1792 0 l 1,82,-1
 1792 -256 l 1,83,-1
 1536 -256 l 1,80,-1
EndSplineSet
Validated: 3077
EndChar

StartChar: divide
Encoding: 247 247 131
Width: 2048
LayerCount: 2
Fore
SplineSet
768 1536 m 1,0,-1
 768 1792 l 1,1,-1
 1024 1792 l 1,2,-1
 1024 1536 l 1,3,-1
 768 1536 l 1,0,-1
1024 1536 m 1,4,-1
 1024 1792 l 1,5,-1
 1280 1792 l 1,6,-1
 1280 1536 l 1,7,-1
 1024 1536 l 1,4,-1
768 1280 m 1,8,-1
 768 1536 l 1,9,-1
 1024 1536 l 1,10,-1
 1024 1280 l 1,11,-1
 768 1280 l 1,8,-1
1024 1280 m 1,12,-1
 1024 1536 l 1,13,-1
 1280 1536 l 1,14,-1
 1280 1280 l 1,15,-1
 1024 1280 l 1,12,-1
256 768 m 1,16,-1
 256 1024 l 1,17,-1
 512 1024 l 1,18,-1
 512 768 l 1,19,-1
 256 768 l 1,16,-1
512 768 m 1,20,-1
 512 1024 l 1,21,-1
 768 1024 l 1,22,-1
 768 768 l 1,23,-1
 512 768 l 1,20,-1
768 768 m 1,24,-1
 768 1024 l 1,25,-1
 1024 1024 l 1,26,-1
 1024 768 l 1,27,-1
 768 768 l 1,24,-1
1024 768 m 1,28,-1
 1024 1024 l 1,29,-1
 1280 1024 l 1,30,-1
 1280 768 l 1,31,-1
 1024 768 l 1,28,-1
1280 768 m 1,32,-1
 1280 1024 l 1,33,-1
 1536 1024 l 1,34,-1
 1536 768 l 1,35,-1
 1280 768 l 1,32,-1
1536 768 m 1,36,-1
 1536 1024 l 1,37,-1
 1792 1024 l 1,38,-1
 1792 768 l 1,39,-1
 1536 768 l 1,36,-1
768 256 m 1,40,-1
 768 512 l 1,41,-1
 1024 512 l 1,42,-1
 1024 256 l 1,43,-1
 768 256 l 1,40,-1
1024 256 m 1,44,-1
 1024 512 l 1,45,-1
 1280 512 l 1,46,-1
 1280 256 l 1,47,-1
 1024 256 l 1,44,-1
768 0 m 1,48,-1
 768 256 l 1,49,-1
 1024 256 l 1,50,-1
 1024 0 l 1,51,-1
 768 0 l 1,48,-1
1024 0 m 1,52,-1
 1024 256 l 1,53,-1
 1280 256 l 1,54,-1
 1280 0 l 1,55,-1
 1024 0 l 1,52,-1
EndSplineSet
Validated: 3077
EndChar

StartChar: multiply
Encoding: 215 215 132
Width: 2048
LayerCount: 2
Fore
SplineSet
256 1280 m 1,0,-1
 256 1536 l 1,1,-1
 512 1536 l 1,2,-1
 512 1280 l 1,3,-1
 256 1280 l 1,0,-1
1280 1280 m 1,4,-1
 1280 1536 l 1,5,-1
 1536 1536 l 1,6,-1
 1536 1280 l 1,7,-1
 1280 1280 l 1,4,-1
512 1024 m 1,8,-1
 512 1280 l 1,9,-1
 768 1280 l 1,10,-1
 768 1024 l 1,11,-1
 512 1024 l 1,8,-1
1024 1024 m 1,12,-1
 1024 1280 l 1,13,-1
 1280 1280 l 1,14,-1
 1280 1024 l 1,15,-1
 1024 1024 l 1,12,-1
768 768 m 1,16,-1
 768 1024 l 1,17,-1
 1024 1024 l 1,18,-1
 1024 768 l 1,19,-1
 768 768 l 1,16,-1
512 512 m 1,20,-1
 512 768 l 1,21,-1
 768 768 l 1,22,-1
 768 512 l 1,23,-1
 512 512 l 1,20,-1
1024 512 m 1,24,-1
 1024 768 l 1,25,-1
 1280 768 l 1,26,-1
 1280 512 l 1,27,-1
 1024 512 l 1,24,-1
256 256 m 1,28,-1
 256 512 l 1,29,-1
 512 512 l 1,30,-1
 512 256 l 1,31,-1
 256 256 l 1,28,-1
1280 256 m 1,32,-1
 1280 512 l 1,33,-1
 1536 512 l 1,34,-1
 1536 256 l 1,35,-1
 1280 256 l 1,32,-1
EndSplineSet
Validated: 5
EndChar

StartChar: Agrave
Encoding: 192 192 133
Width: 2048
LayerCount: 2
Fore
SplineSet
256 1536 m 1,0,-1
 256 1792 l 1,1,-1
 512 1792 l 1,2,-1
 512 1536 l 1,3,-1
 256 1536 l 1,0,-1
512 1536 m 1,4,-1
 512 1792 l 1,5,-1
 768 1792 l 1,6,-1
 768 1536 l 1,7,-1
 512 1536 l 1,4,-1
768 1536 m 1,8,-1
 768 1792 l 1,9,-1
 1024 1792 l 1,10,-1
 1024 1536 l 1,11,-1
 768 1536 l 1,8,-1
512 1024 m 1,12,-1
 512 1280 l 1,13,-1
 768 1280 l 1,14,-1
 768 1024 l 1,15,-1
 512 1024 l 1,12,-1
768 1024 m 1,16,-1
 768 1280 l 1,17,-1
 1024 1280 l 1,18,-1
 1024 1024 l 1,19,-1
 768 1024 l 1,16,-1
1024 1024 m 1,20,-1
 1024 1280 l 1,21,-1
 1280 1280 l 1,22,-1
 1280 1024 l 1,23,-1
 1024 1024 l 1,20,-1
256 768 m 1,24,-1
 256 1024 l 1,25,-1
 512 1024 l 1,26,-1
 512 768 l 1,27,-1
 256 768 l 1,24,-1
512 768 m 1,28,-1
 512 1024 l 1,29,-1
 768 1024 l 1,30,-1
 768 768 l 1,31,-1
 512 768 l 1,28,-1
1024 768 m 1,32,-1
 1024 1024 l 1,33,-1
 1280 1024 l 1,34,-1
 1280 768 l 1,35,-1
 1024 768 l 1,32,-1
1280 768 m 1,36,-1
 1280 1024 l 1,37,-1
 1536 1024 l 1,38,-1
 1536 768 l 1,39,-1
 1280 768 l 1,36,-1
0 512 m 1,40,-1
 0 768 l 1,41,-1
 256 768 l 1,42,-1
 256 512 l 1,43,-1
 0 512 l 1,40,-1
256 512 m 1,44,-1
 256 768 l 1,45,-1
 512 768 l 1,46,-1
 512 512 l 1,47,-1
 256 512 l 1,44,-1
1280 512 m 1,48,-1
 1280 768 l 1,49,-1
 1536 768 l 1,50,-1
 1536 512 l 1,51,-1
 1280 512 l 1,48,-1
1536 512 m 1,52,-1
 1536 768 l 1,53,-1
 1792 768 l 1,54,-1
 1792 512 l 1,55,-1
 1536 512 l 1,52,-1
0 256 m 1,56,-1
 0 512 l 1,57,-1
 256 512 l 1,58,-1
 256 256 l 1,59,-1
 0 256 l 1,56,-1
256 256 m 1,60,-1
 256 512 l 1,61,-1
 512 512 l 1,62,-1
 512 256 l 1,63,-1
 256 256 l 1,60,-1
512 256 m 1,64,-1
 512 512 l 1,65,-1
 768 512 l 1,66,-1
 768 256 l 1,67,-1
 512 256 l 1,64,-1
768 256 m 1,68,-1
 768 512 l 1,69,-1
 1024 512 l 1,70,-1
 1024 256 l 1,71,-1
 768 256 l 1,68,-1
1024 256 m 1,72,-1
 1024 512 l 1,73,-1
 1280 512 l 1,74,-1
 1280 256 l 1,75,-1
 1024 256 l 1,72,-1
1280 256 m 1,76,-1
 1280 512 l 1,77,-1
 1536 512 l 1,78,-1
 1536 256 l 1,79,-1
 1280 256 l 1,76,-1
1536 256 m 1,80,-1
 1536 512 l 1,81,-1
 1792 512 l 1,82,-1
 1792 256 l 1,83,-1
 1536 256 l 1,80,-1
0 0 m 1,84,-1
 0 256 l 1,85,-1
 256 256 l 1,86,-1
 256 0 l 1,87,-1
 0 0 l 1,84,-1
256 0 m 1,88,-1
 256 256 l 1,89,-1
 512 256 l 1,90,-1
 512 0 l 1,91,-1
 256 0 l 1,88,-1
1280 0 m 1,92,-1
 1280 256 l 1,93,-1
 1536 256 l 1,94,-1
 1536 0 l 1,95,-1
 1280 0 l 1,92,-1
1536 0 m 1,96,-1
 1536 256 l 1,97,-1
 1792 256 l 1,98,-1
 1792 0 l 1,99,-1
 1536 0 l 1,96,-1
EndSplineSet
Validated: 3077
EndChar

StartChar: Aacute
Encoding: 193 193 134
Width: 2048
LayerCount: 2
Fore
SplineSet
768 1536 m 1,0,-1
 768 1792 l 1,1,-1
 1024 1792 l 1,2,-1
 1024 1536 l 1,3,-1
 768 1536 l 1,0,-1
1024 1536 m 1,4,-1
 1024 1792 l 1,5,-1
 1280 1792 l 1,6,-1
 1280 1536 l 1,7,-1
 1024 1536 l 1,4,-1
1280 1536 m 1,8,-1
 1280 1792 l 1,9,-1
 1536 1792 l 1,10,-1
 1536 1536 l 1,11,-1
 1280 1536 l 1,8,-1
512 1024 m 1,12,-1
 512 1280 l 1,13,-1
 768 1280 l 1,14,-1
 768 1024 l 1,15,-1
 512 1024 l 1,12,-1
768 1024 m 1,16,-1
 768 1280 l 1,17,-1
 1024 1280 l 1,18,-1
 1024 1024 l 1,19,-1
 768 1024 l 1,16,-1
1024 1024 m 1,20,-1
 1024 1280 l 1,21,-1
 1280 1280 l 1,22,-1
 1280 1024 l 1,23,-1
 1024 1024 l 1,20,-1
256 768 m 1,24,-1
 256 1024 l 1,25,-1
 512 1024 l 1,26,-1
 512 768 l 1,27,-1
 256 768 l 1,24,-1
512 768 m 1,28,-1
 512 1024 l 1,29,-1
 768 1024 l 1,30,-1
 768 768 l 1,31,-1
 512 768 l 1,28,-1
1024 768 m 1,32,-1
 1024 1024 l 1,33,-1
 1280 1024 l 1,34,-1
 1280 768 l 1,35,-1
 1024 768 l 1,32,-1
1280 768 m 1,36,-1
 1280 1024 l 1,37,-1
 1536 1024 l 1,38,-1
 1536 768 l 1,39,-1
 1280 768 l 1,36,-1
0 512 m 1,40,-1
 0 768 l 1,41,-1
 256 768 l 1,42,-1
 256 512 l 1,43,-1
 0 512 l 1,40,-1
256 512 m 1,44,-1
 256 768 l 1,45,-1
 512 768 l 1,46,-1
 512 512 l 1,47,-1
 256 512 l 1,44,-1
1280 512 m 1,48,-1
 1280 768 l 1,49,-1
 1536 768 l 1,50,-1
 1536 512 l 1,51,-1
 1280 512 l 1,48,-1
1536 512 m 1,52,-1
 1536 768 l 1,53,-1
 1792 768 l 1,54,-1
 1792 512 l 1,55,-1
 1536 512 l 1,52,-1
0 256 m 1,56,-1
 0 512 l 1,57,-1
 256 512 l 1,58,-1
 256 256 l 1,59,-1
 0 256 l 1,56,-1
256 256 m 1,60,-1
 256 512 l 1,61,-1
 512 512 l 1,62,-1
 512 256 l 1,63,-1
 256 256 l 1,60,-1
512 256 m 1,64,-1
 512 512 l 1,65,-1
 768 512 l 1,66,-1
 768 256 l 1,67,-1
 512 256 l 1,64,-1
768 256 m 1,68,-1
 768 512 l 1,69,-1
 1024 512 l 1,70,-1
 1024 256 l 1,71,-1
 768 256 l 1,68,-1
1024 256 m 1,72,-1
 1024 512 l 1,73,-1
 1280 512 l 1,74,-1
 1280 256 l 1,75,-1
 1024 256 l 1,72,-1
1280 256 m 1,76,-1
 1280 512 l 1,77,-1
 1536 512 l 1,78,-1
 1536 256 l 1,79,-1
 1280 256 l 1,76,-1
1536 256 m 1,80,-1
 1536 512 l 1,81,-1
 1792 512 l 1,82,-1
 1792 256 l 1,83,-1
 1536 256 l 1,80,-1
0 0 m 1,84,-1
 0 256 l 1,85,-1
 256 256 l 1,86,-1
 256 0 l 1,87,-1
 0 0 l 1,84,-1
256 0 m 1,88,-1
 256 256 l 1,89,-1
 512 256 l 1,90,-1
 512 0 l 1,91,-1
 256 0 l 1,88,-1
1280 0 m 1,92,-1
 1280 256 l 1,93,-1
 1536 256 l 1,94,-1
 1536 0 l 1,95,-1
 1280 0 l 1,92,-1
1536 0 m 1,96,-1
 1536 256 l 1,97,-1
 1792 256 l 1,98,-1
 1792 0 l 1,99,-1
 1536 0 l 1,96,-1
EndSplineSet
Validated: 3077
EndChar

StartChar: Acircumflex
Encoding: 194 194 135
Width: 2048
LayerCount: 2
Fore
SplineSet
512 1536 m 1,0,-1
 512 1792 l 1,1,-1
 768 1792 l 1,2,-1
 768 1536 l 1,3,-1
 512 1536 l 1,0,-1
768 1536 m 1,4,-1
 768 1792 l 1,5,-1
 1024 1792 l 1,6,-1
 1024 1536 l 1,7,-1
 768 1536 l 1,4,-1
1024 1536 m 1,8,-1
 1024 1792 l 1,9,-1
 1280 1792 l 1,10,-1
 1280 1536 l 1,11,-1
 1024 1536 l 1,8,-1
256 1280 m 1,12,-1
 256 1536 l 1,13,-1
 512 1536 l 1,14,-1
 512 1280 l 1,15,-1
 256 1280 l 1,12,-1
1280 1280 m 1,16,-1
 1280 1536 l 1,17,-1
 1536 1536 l 1,18,-1
 1536 1280 l 1,19,-1
 1280 1280 l 1,16,-1
512 768 m 1,20,-1
 512 1024 l 1,21,-1
 768 1024 l 1,22,-1
 768 768 l 1,23,-1
 512 768 l 1,20,-1
768 768 m 1,24,-1
 768 1024 l 1,25,-1
 1024 1024 l 1,26,-1
 1024 768 l 1,27,-1
 768 768 l 1,24,-1
1024 768 m 1,28,-1
 1024 1024 l 1,29,-1
 1280 1024 l 1,30,-1
 1280 768 l 1,31,-1
 1024 768 l 1,28,-1
256 512 m 1,32,-1
 256 768 l 1,33,-1
 512 768 l 1,34,-1
 512 512 l 1,35,-1
 256 512 l 1,32,-1
512 512 m 1,36,-1
 512 768 l 1,37,-1
 768 768 l 1,38,-1
 768 512 l 1,39,-1
 512 512 l 1,36,-1
1024 512 m 1,40,-1
 1024 768 l 1,41,-1
 1280 768 l 1,42,-1
 1280 512 l 1,43,-1
 1024 512 l 1,40,-1
1280 512 m 1,44,-1
 1280 768 l 1,45,-1
 1536 768 l 1,46,-1
 1536 512 l 1,47,-1
 1280 512 l 1,44,-1
0 256 m 1,48,-1
 0 512 l 1,49,-1
 256 512 l 1,50,-1
 256 256 l 1,51,-1
 0 256 l 1,48,-1
256 256 m 1,52,-1
 256 512 l 1,53,-1
 512 512 l 1,54,-1
 512 256 l 1,55,-1
 256 256 l 1,52,-1
512 256 m 1,56,-1
 512 512 l 1,57,-1
 768 512 l 1,58,-1
 768 256 l 1,59,-1
 512 256 l 1,56,-1
768 256 m 1,60,-1
 768 512 l 1,61,-1
 1024 512 l 1,62,-1
 1024 256 l 1,63,-1
 768 256 l 1,60,-1
1024 256 m 1,64,-1
 1024 512 l 1,65,-1
 1280 512 l 1,66,-1
 1280 256 l 1,67,-1
 1024 256 l 1,64,-1
1280 256 m 1,68,-1
 1280 512 l 1,69,-1
 1536 512 l 1,70,-1
 1536 256 l 1,71,-1
 1280 256 l 1,68,-1
1536 256 m 1,72,-1
 1536 512 l 1,73,-1
 1792 512 l 1,74,-1
 1792 256 l 1,75,-1
 1536 256 l 1,72,-1
0 0 m 1,76,-1
 0 256 l 1,77,-1
 256 256 l 1,78,-1
 256 0 l 1,79,-1
 0 0 l 1,76,-1
256 0 m 1,80,-1
 256 256 l 1,81,-1
 512 256 l 1,82,-1
 512 0 l 1,83,-1
 256 0 l 1,80,-1
1280 0 m 1,84,-1
 1280 256 l 1,85,-1
 1536 256 l 1,86,-1
 1536 0 l 1,87,-1
 1280 0 l 1,84,-1
1536 0 m 1,88,-1
 1536 256 l 1,89,-1
 1792 256 l 1,90,-1
 1792 0 l 1,91,-1
 1536 0 l 1,88,-1
EndSplineSet
Validated: 3077
EndChar

StartChar: Atilde
Encoding: 195 195 136
Width: 2048
LayerCount: 2
Fore
SplineSet
512 1536 m 1,0,-1
 512 1792 l 1,1,-1
 768 1792 l 1,2,-1
 768 1536 l 1,3,-1
 512 1536 l 1,0,-1
768 1536 m 1,4,-1
 768 1792 l 1,5,-1
 1024 1792 l 1,6,-1
 1024 1536 l 1,7,-1
 768 1536 l 1,4,-1
1536 1536 m 1,8,-1
 1536 1792 l 1,9,-1
 1792 1792 l 1,10,-1
 1792 1536 l 1,11,-1
 1536 1536 l 1,8,-1
256 1280 m 1,12,-1
 256 1536 l 1,13,-1
 512 1536 l 1,14,-1
 512 1280 l 1,15,-1
 256 1280 l 1,12,-1
1024 1280 m 1,16,-1
 1024 1536 l 1,17,-1
 1280 1536 l 1,18,-1
 1280 1280 l 1,19,-1
 1024 1280 l 1,16,-1
1280 1280 m 1,20,-1
 1280 1536 l 1,21,-1
 1536 1536 l 1,22,-1
 1536 1280 l 1,23,-1
 1280 1280 l 1,20,-1
512 1024 m 1,24,-1
 512 1280 l 1,25,-1
 768 1280 l 1,26,-1
 768 1024 l 1,27,-1
 512 1024 l 1,24,-1
768 1024 m 1,28,-1
 768 1280 l 1,29,-1
 1024 1280 l 1,30,-1
 1024 1024 l 1,31,-1
 768 1024 l 1,28,-1
1024 1024 m 1,32,-1
 1024 1280 l 1,33,-1
 1280 1280 l 1,34,-1
 1280 1024 l 1,35,-1
 1024 1024 l 1,32,-1
256 768 m 1,36,-1
 256 1024 l 1,37,-1
 512 1024 l 1,38,-1
 512 768 l 1,39,-1
 256 768 l 1,36,-1
512 768 m 1,40,-1
 512 1024 l 1,41,-1
 768 1024 l 1,42,-1
 768 768 l 1,43,-1
 512 768 l 1,40,-1
1024 768 m 1,44,-1
 1024 1024 l 1,45,-1
 1280 1024 l 1,46,-1
 1280 768 l 1,47,-1
 1024 768 l 1,44,-1
1280 768 m 1,48,-1
 1280 1024 l 1,49,-1
 1536 1024 l 1,50,-1
 1536 768 l 1,51,-1
 1280 768 l 1,48,-1
0 512 m 1,52,-1
 0 768 l 1,53,-1
 256 768 l 1,54,-1
 256 512 l 1,55,-1
 0 512 l 1,52,-1
256 512 m 1,56,-1
 256 768 l 1,57,-1
 512 768 l 1,58,-1
 512 512 l 1,59,-1
 256 512 l 1,56,-1
1280 512 m 1,60,-1
 1280 768 l 1,61,-1
 1536 768 l 1,62,-1
 1536 512 l 1,63,-1
 1280 512 l 1,60,-1
1536 512 m 1,64,-1
 1536 768 l 1,65,-1
 1792 768 l 1,66,-1
 1792 512 l 1,67,-1
 1536 512 l 1,64,-1
0 256 m 1,68,-1
 0 512 l 1,69,-1
 256 512 l 1,70,-1
 256 256 l 1,71,-1
 0 256 l 1,68,-1
256 256 m 1,72,-1
 256 512 l 1,73,-1
 512 512 l 1,74,-1
 512 256 l 1,75,-1
 256 256 l 1,72,-1
512 256 m 1,76,-1
 512 512 l 1,77,-1
 768 512 l 1,78,-1
 768 256 l 1,79,-1
 512 256 l 1,76,-1
768 256 m 1,80,-1
 768 512 l 1,81,-1
 1024 512 l 1,82,-1
 1024 256 l 1,83,-1
 768 256 l 1,80,-1
1024 256 m 1,84,-1
 1024 512 l 1,85,-1
 1280 512 l 1,86,-1
 1280 256 l 1,87,-1
 1024 256 l 1,84,-1
1280 256 m 1,88,-1
 1280 512 l 1,89,-1
 1536 512 l 1,90,-1
 1536 256 l 1,91,-1
 1280 256 l 1,88,-1
1536 256 m 1,92,-1
 1536 512 l 1,93,-1
 1792 512 l 1,94,-1
 1792 256 l 1,95,-1
 1536 256 l 1,92,-1
0 0 m 1,96,-1
 0 256 l 1,97,-1
 256 256 l 1,98,-1
 256 0 l 1,99,-1
 0 0 l 1,96,-1
256 0 m 1,100,-1
 256 256 l 1,101,-1
 512 256 l 1,102,-1
 512 0 l 1,103,-1
 256 0 l 1,100,-1
1280 0 m 1,104,-1
 1280 256 l 1,105,-1
 1536 256 l 1,106,-1
 1536 0 l 1,107,-1
 1280 0 l 1,104,-1
1536 0 m 1,108,-1
 1536 256 l 1,109,-1
 1792 256 l 1,110,-1
 1792 0 l 1,111,-1
 1536 0 l 1,108,-1
EndSplineSet
Validated: 3077
EndChar

StartChar: Adieresis
Encoding: 196 196 137
Width: 2048
LayerCount: 2
Fore
SplineSet
256 1536 m 1,0,-1
 256 1792 l 1,1,-1
 512 1792 l 1,2,-1
 512 1536 l 1,3,-1
 256 1536 l 1,0,-1
512 1536 m 1,4,-1
 512 1792 l 1,5,-1
 768 1792 l 1,6,-1
 768 1536 l 1,7,-1
 512 1536 l 1,4,-1
1024 1536 m 1,8,-1
 1024 1792 l 1,9,-1
 1280 1792 l 1,10,-1
 1280 1536 l 1,11,-1
 1024 1536 l 1,8,-1
1280 1536 m 1,12,-1
 1280 1792 l 1,13,-1
 1536 1792 l 1,14,-1
 1536 1536 l 1,15,-1
 1280 1536 l 1,12,-1
512 1024 m 1,16,-1
 512 1280 l 1,17,-1
 768 1280 l 1,18,-1
 768 1024 l 1,19,-1
 512 1024 l 1,16,-1
768 1024 m 1,20,-1
 768 1280 l 1,21,-1
 1024 1280 l 1,22,-1
 1024 1024 l 1,23,-1
 768 1024 l 1,20,-1
1024 1024 m 1,24,-1
 1024 1280 l 1,25,-1
 1280 1280 l 1,26,-1
 1280 1024 l 1,27,-1
 1024 1024 l 1,24,-1
256 768 m 1,28,-1
 256 1024 l 1,29,-1
 512 1024 l 1,30,-1
 512 768 l 1,31,-1
 256 768 l 1,28,-1
512 768 m 1,32,-1
 512 1024 l 1,33,-1
 768 1024 l 1,34,-1
 768 768 l 1,35,-1
 512 768 l 1,32,-1
1024 768 m 1,36,-1
 1024 1024 l 1,37,-1
 1280 1024 l 1,38,-1
 1280 768 l 1,39,-1
 1024 768 l 1,36,-1
1280 768 m 1,40,-1
 1280 1024 l 1,41,-1
 1536 1024 l 1,42,-1
 1536 768 l 1,43,-1
 1280 768 l 1,40,-1
0 512 m 1,44,-1
 0 768 l 1,45,-1
 256 768 l 1,46,-1
 256 512 l 1,47,-1
 0 512 l 1,44,-1
256 512 m 1,48,-1
 256 768 l 1,49,-1
 512 768 l 1,50,-1
 512 512 l 1,51,-1
 256 512 l 1,48,-1
1280 512 m 1,52,-1
 1280 768 l 1,53,-1
 1536 768 l 1,54,-1
 1536 512 l 1,55,-1
 1280 512 l 1,52,-1
1536 512 m 1,56,-1
 1536 768 l 1,57,-1
 1792 768 l 1,58,-1
 1792 512 l 1,59,-1
 1536 512 l 1,56,-1
0 256 m 1,60,-1
 0 512 l 1,61,-1
 256 512 l 1,62,-1
 256 256 l 1,63,-1
 0 256 l 1,60,-1
256 256 m 1,64,-1
 256 512 l 1,65,-1
 512 512 l 1,66,-1
 512 256 l 1,67,-1
 256 256 l 1,64,-1
512 256 m 1,68,-1
 512 512 l 1,69,-1
 768 512 l 1,70,-1
 768 256 l 1,71,-1
 512 256 l 1,68,-1
768 256 m 1,72,-1
 768 512 l 1,73,-1
 1024 512 l 1,74,-1
 1024 256 l 1,75,-1
 768 256 l 1,72,-1
1024 256 m 1,76,-1
 1024 512 l 1,77,-1
 1280 512 l 1,78,-1
 1280 256 l 1,79,-1
 1024 256 l 1,76,-1
1280 256 m 1,80,-1
 1280 512 l 1,81,-1
 1536 512 l 1,82,-1
 1536 256 l 1,83,-1
 1280 256 l 1,80,-1
1536 256 m 1,84,-1
 1536 512 l 1,85,-1
 1792 512 l 1,86,-1
 1792 256 l 1,87,-1
 1536 256 l 1,84,-1
0 0 m 1,88,-1
 0 256 l 1,89,-1
 256 256 l 1,90,-1
 256 0 l 1,91,-1
 0 0 l 1,88,-1
256 0 m 1,92,-1
 256 256 l 1,93,-1
 512 256 l 1,94,-1
 512 0 l 1,95,-1
 256 0 l 1,92,-1
1280 0 m 1,96,-1
 1280 256 l 1,97,-1
 1536 256 l 1,98,-1
 1536 0 l 1,99,-1
 1280 0 l 1,96,-1
1536 0 m 1,100,-1
 1536 256 l 1,101,-1
 1792 256 l 1,102,-1
 1792 0 l 1,103,-1
 1536 0 l 1,100,-1
EndSplineSet
Validated: 3077
EndChar

StartChar: Aring
Encoding: 197 197 138
Width: 2048
LayerCount: 2
Fore
SplineSet
768 1536 m 1,0,-1
 768 1792 l 1,1,-1
 1024 1792 l 1,2,-1
 1024 1536 l 1,3,-1
 768 1536 l 1,0,-1
512 1280 m 1,4,-1
 512 1536 l 1,5,-1
 768 1536 l 1,6,-1
 768 1280 l 1,7,-1
 512 1280 l 1,4,-1
1024 1280 m 1,8,-1
 1024 1536 l 1,9,-1
 1280 1536 l 1,10,-1
 1280 1280 l 1,11,-1
 1024 1280 l 1,8,-1
768 1024 m 1,12,-1
 768 1280 l 1,13,-1
 1024 1280 l 1,14,-1
 1024 1024 l 1,15,-1
 768 1024 l 1,12,-1
512 768 m 1,16,-1
 512 1024 l 1,17,-1
 768 1024 l 1,18,-1
 768 768 l 1,19,-1
 512 768 l 1,16,-1
768 768 m 1,20,-1
 768 1024 l 1,21,-1
 1024 1024 l 1,22,-1
 1024 768 l 1,23,-1
 768 768 l 1,20,-1
1024 768 m 1,24,-1
 1024 1024 l 1,25,-1
 1280 1024 l 1,26,-1
 1280 768 l 1,27,-1
 1024 768 l 1,24,-1
256 512 m 1,28,-1
 256 768 l 1,29,-1
 512 768 l 1,30,-1
 512 512 l 1,31,-1
 256 512 l 1,28,-1
512 512 m 1,32,-1
 512 768 l 1,33,-1
 768 768 l 1,34,-1
 768 512 l 1,35,-1
 512 512 l 1,32,-1
1024 512 m 1,36,-1
 1024 768 l 1,37,-1
 1280 768 l 1,38,-1
 1280 512 l 1,39,-1
 1024 512 l 1,36,-1
1280 512 m 1,40,-1
 1280 768 l 1,41,-1
 1536 768 l 1,42,-1
 1536 512 l 1,43,-1
 1280 512 l 1,40,-1
0 256 m 1,44,-1
 0 512 l 1,45,-1
 256 512 l 1,46,-1
 256 256 l 1,47,-1
 0 256 l 1,44,-1
256 256 m 1,48,-1
 256 512 l 1,49,-1
 512 512 l 1,50,-1
 512 256 l 1,51,-1
 256 256 l 1,48,-1
512 256 m 1,52,-1
 512 512 l 1,53,-1
 768 512 l 1,54,-1
 768 256 l 1,55,-1
 512 256 l 1,52,-1
768 256 m 1,56,-1
 768 512 l 1,57,-1
 1024 512 l 1,58,-1
 1024 256 l 1,59,-1
 768 256 l 1,56,-1
1024 256 m 1,60,-1
 1024 512 l 1,61,-1
 1280 512 l 1,62,-1
 1280 256 l 1,63,-1
 1024 256 l 1,60,-1
1280 256 m 1,64,-1
 1280 512 l 1,65,-1
 1536 512 l 1,66,-1
 1536 256 l 1,67,-1
 1280 256 l 1,64,-1
1536 256 m 1,68,-1
 1536 512 l 1,69,-1
 1792 512 l 1,70,-1
 1792 256 l 1,71,-1
 1536 256 l 1,68,-1
0 0 m 1,72,-1
 0 256 l 1,73,-1
 256 256 l 1,74,-1
 256 0 l 1,75,-1
 0 0 l 1,72,-1
256 0 m 1,76,-1
 256 256 l 1,77,-1
 512 256 l 1,78,-1
 512 0 l 1,79,-1
 256 0 l 1,76,-1
1280 0 m 1,80,-1
 1280 256 l 1,81,-1
 1536 256 l 1,82,-1
 1536 0 l 1,83,-1
 1280 0 l 1,80,-1
1536 0 m 1,84,-1
 1536 256 l 1,85,-1
 1792 256 l 1,86,-1
 1792 0 l 1,87,-1
 1536 0 l 1,84,-1
EndSplineSet
Validated: 3077
EndChar

StartChar: AE
Encoding: 198 198 139
Width: 2048
LayerCount: 2
Fore
SplineSet
512 1536 m 1,0,-1
 512 1792 l 1,1,-1
 768 1792 l 1,2,-1
 768 1536 l 1,3,-1
 512 1536 l 1,0,-1
768 1536 m 1,4,-1
 768 1792 l 1,5,-1
 1024 1792 l 1,6,-1
 1024 1536 l 1,7,-1
 768 1536 l 1,4,-1
1024 1536 m 1,8,-1
 1024 1792 l 1,9,-1
 1280 1792 l 1,10,-1
 1280 1536 l 1,11,-1
 1024 1536 l 1,8,-1
1280 1536 m 1,12,-1
 1280 1792 l 1,13,-1
 1536 1792 l 1,14,-1
 1536 1536 l 1,15,-1
 1280 1536 l 1,12,-1
1536 1536 m 1,16,-1
 1536 1792 l 1,17,-1
 1792 1792 l 1,18,-1
 1792 1536 l 1,19,-1
 1536 1536 l 1,16,-1
1792 1536 m 1,20,-1
 1792 1792 l 1,21,-1
 2048 1792 l 1,22,-1
 2048 1536 l 1,23,-1
 1792 1536 l 1,20,-1
256 1280 m 1,24,-1
 256 1536 l 1,25,-1
 512 1536 l 1,26,-1
 512 1280 l 1,27,-1
 256 1280 l 1,24,-1
512 1280 m 1,28,-1
 512 1536 l 1,29,-1
 768 1536 l 1,30,-1
 768 1280 l 1,31,-1
 512 1280 l 1,28,-1
1024 1280 m 1,32,-1
 1024 1536 l 1,33,-1
 1280 1536 l 1,34,-1
 1280 1280 l 1,35,-1
 1024 1280 l 1,32,-1
1280 1280 m 1,36,-1
 1280 1536 l 1,37,-1
 1536 1536 l 1,38,-1
 1536 1280 l 1,39,-1
 1280 1280 l 1,36,-1
0 1024 m 1,40,-1
 0 1280 l 1,41,-1
 256 1280 l 1,42,-1
 256 1024 l 1,43,-1
 0 1024 l 1,40,-1
256 1024 m 1,44,-1
 256 1280 l 1,45,-1
 512 1280 l 1,46,-1
 512 1024 l 1,47,-1
 256 1024 l 1,44,-1
1024 1024 m 1,48,-1
 1024 1280 l 1,49,-1
 1280 1280 l 1,50,-1
 1280 1024 l 1,51,-1
 1024 1024 l 1,48,-1
1280 1024 m 1,52,-1
 1280 1280 l 1,53,-1
 1536 1280 l 1,54,-1
 1536 1024 l 1,55,-1
 1280 1024 l 1,52,-1
0 768 m 1,56,-1
 0 1024 l 1,57,-1
 256 1024 l 1,58,-1
 256 768 l 1,59,-1
 0 768 l 1,56,-1
256 768 m 1,60,-1
 256 1024 l 1,61,-1
 512 1024 l 1,62,-1
 512 768 l 1,63,-1
 256 768 l 1,60,-1
1024 768 m 1,64,-1
 1024 1024 l 1,65,-1
 1280 1024 l 1,66,-1
 1280 768 l 1,67,-1
 1024 768 l 1,64,-1
1280 768 m 1,68,-1
 1280 1024 l 1,69,-1
 1536 1024 l 1,70,-1
 1536 768 l 1,71,-1
 1280 768 l 1,68,-1
1536 768 m 1,72,-1
 1536 1024 l 1,73,-1
 1792 1024 l 1,74,-1
 1792 768 l 1,75,-1
 1536 768 l 1,72,-1
0 512 m 1,76,-1
 0 768 l 1,77,-1
 256 768 l 1,78,-1
 256 512 l 1,79,-1
 0 512 l 1,76,-1
256 512 m 1,80,-1
 256 768 l 1,81,-1
 512 768 l 1,82,-1
 512 512 l 1,83,-1
 256 512 l 1,80,-1
512 512 m 1,84,-1
 512 768 l 1,85,-1
 768 768 l 1,86,-1
 768 512 l 1,87,-1
 512 512 l 1,84,-1
768 512 m 1,88,-1
 768 768 l 1,89,-1
 1024 768 l 1,90,-1
 1024 512 l 1,91,-1
 768 512 l 1,88,-1
1024 512 m 1,92,-1
 1024 768 l 1,93,-1
 1280 768 l 1,94,-1
 1280 512 l 1,95,-1
 1024 512 l 1,92,-1
1280 512 m 1,96,-1
 1280 768 l 1,97,-1
 1536 768 l 1,98,-1
 1536 512 l 1,99,-1
 1280 512 l 1,96,-1
0 256 m 1,100,-1
 0 512 l 1,101,-1
 256 512 l 1,102,-1
 256 256 l 1,103,-1
 0 256 l 1,100,-1
256 256 m 1,104,-1
 256 512 l 1,105,-1
 512 512 l 1,106,-1
 512 256 l 1,107,-1
 256 256 l 1,104,-1
1024 256 m 1,108,-1
 1024 512 l 1,109,-1
 1280 512 l 1,110,-1
 1280 256 l 1,111,-1
 1024 256 l 1,108,-1
1280 256 m 1,112,-1
 1280 512 l 1,113,-1
 1536 512 l 1,114,-1
 1536 256 l 1,115,-1
 1280 256 l 1,112,-1
0 0 m 1,116,-1
 0 256 l 1,117,-1
 256 256 l 1,118,-1
 256 0 l 1,119,-1
 0 0 l 1,116,-1
256 0 m 1,120,-1
 256 256 l 1,121,-1
 512 256 l 1,122,-1
 512 0 l 1,123,-1
 256 0 l 1,120,-1
1024 0 m 1,124,-1
 1024 256 l 1,125,-1
 1280 256 l 1,126,-1
 1280 0 l 1,127,-1
 1024 0 l 1,124,-1
1280 0 m 1,128,-1
 1280 256 l 1,129,-1
 1536 256 l 1,130,-1
 1536 0 l 1,131,-1
 1280 0 l 1,128,-1
1536 0 m 1,132,-1
 1536 256 l 1,133,-1
 1792 256 l 1,134,-1
 1792 0 l 1,135,-1
 1536 0 l 1,132,-1
1792 0 m 1,136,-1
 1792 256 l 1,137,-1
 2048 256 l 1,138,-1
 2048 0 l 1,139,-1
 1792 0 l 1,136,-1
EndSplineSet
Validated: 3077
EndChar

StartChar: Ccedilla
Encoding: 199 199 140
Width: 2048
LayerCount: 2
Fore
SplineSet
256 1536 m 1,0,-1
 256 1792 l 1,1,-1
 512 1792 l 1,2,-1
 512 1536 l 1,3,-1
 256 1536 l 1,0,-1
512 1536 m 1,4,-1
 512 1792 l 1,5,-1
 768 1792 l 1,6,-1
 768 1536 l 1,7,-1
 512 1536 l 1,4,-1
768 1536 m 1,8,-1
 768 1792 l 1,9,-1
 1024 1792 l 1,10,-1
 1024 1536 l 1,11,-1
 768 1536 l 1,8,-1
1024 1536 m 1,12,-1
 1024 1792 l 1,13,-1
 1280 1792 l 1,14,-1
 1280 1536 l 1,15,-1
 1024 1536 l 1,12,-1
1280 1536 m 1,16,-1
 1280 1792 l 1,17,-1
 1536 1792 l 1,18,-1
 1536 1536 l 1,19,-1
 1280 1536 l 1,16,-1
0 1280 m 1,20,-1
 0 1536 l 1,21,-1
 256 1536 l 1,22,-1
 256 1280 l 1,23,-1
 0 1280 l 1,20,-1
256 1280 m 1,24,-1
 256 1536 l 1,25,-1
 512 1536 l 1,26,-1
 512 1280 l 1,27,-1
 256 1280 l 1,24,-1
1280 1280 m 1,28,-1
 1280 1536 l 1,29,-1
 1536 1536 l 1,30,-1
 1536 1280 l 1,31,-1
 1280 1280 l 1,28,-1
1536 1280 m 1,32,-1
 1536 1536 l 1,33,-1
 1792 1536 l 1,34,-1
 1792 1280 l 1,35,-1
 1536 1280 l 1,32,-1
0 1024 m 1,36,-1
 0 1280 l 1,37,-1
 256 1280 l 1,38,-1
 256 1024 l 1,39,-1
 0 1024 l 1,36,-1
256 1024 m 1,40,-1
 256 1280 l 1,41,-1
 512 1280 l 1,42,-1
 512 1024 l 1,43,-1
 256 1024 l 1,40,-1
0 768 m 1,44,-1
 0 1024 l 1,45,-1
 256 1024 l 1,46,-1
 256 768 l 1,47,-1
 0 768 l 1,44,-1
256 768 m 1,48,-1
 256 1024 l 1,49,-1
 512 1024 l 1,50,-1
 512 768 l 1,51,-1
 256 768 l 1,48,-1
0 512 m 1,52,-1
 0 768 l 1,53,-1
 256 768 l 1,54,-1
 256 512 l 1,55,-1
 0 512 l 1,52,-1
256 512 m 1,56,-1
 256 768 l 1,57,-1
 512 768 l 1,58,-1
 512 512 l 1,59,-1
 256 512 l 1,56,-1
1280 512 m 1,60,-1
 1280 768 l 1,61,-1
 1536 768 l 1,62,-1
 1536 512 l 1,63,-1
 1280 512 l 1,60,-1
1536 512 m 1,64,-1
 1536 768 l 1,65,-1
 1792 768 l 1,66,-1
 1792 512 l 1,67,-1
 1536 512 l 1,64,-1
256 256 m 1,68,-1
 256 512 l 1,69,-1
 512 512 l 1,70,-1
 512 256 l 1,71,-1
 256 256 l 1,68,-1
512 256 m 1,72,-1
 512 512 l 1,73,-1
 768 512 l 1,74,-1
 768 256 l 1,75,-1
 512 256 l 1,72,-1
768 256 m 1,76,-1
 768 512 l 1,77,-1
 1024 512 l 1,78,-1
 1024 256 l 1,79,-1
 768 256 l 1,76,-1
1024 256 m 1,80,-1
 1024 512 l 1,81,-1
 1280 512 l 1,82,-1
 1280 256 l 1,83,-1
 1024 256 l 1,80,-1
1280 256 m 1,84,-1
 1280 512 l 1,85,-1
 1536 512 l 1,86,-1
 1536 256 l 1,87,-1
 1280 256 l 1,84,-1
768 0 m 1,88,-1
 768 256 l 1,89,-1
 1024 256 l 1,90,-1
 1024 0 l 1,91,-1
 768 0 l 1,88,-1
512 -256 m 1,92,-1
 512 0 l 1,93,-1
 768 0 l 1,94,-1
 768 -256 l 1,95,-1
 512 -256 l 1,92,-1
768 -256 m 1,96,-1
 768 0 l 1,97,-1
 1024 0 l 1,98,-1
 1024 -256 l 1,99,-1
 768 -256 l 1,96,-1
EndSplineSet
Validated: 3077
EndChar

StartChar: Egrave
Encoding: 200 200 141
Width: 2048
LayerCount: 2
Fore
SplineSet
256 1536 m 1,0,-1
 256 1792 l 1,1,-1
 512 1792 l 1,2,-1
 512 1536 l 1,3,-1
 256 1536 l 1,0,-1
512 1536 m 1,4,-1
 512 1792 l 1,5,-1
 768 1792 l 1,6,-1
 768 1536 l 1,7,-1
 512 1536 l 1,4,-1
768 1536 m 1,8,-1
 768 1792 l 1,9,-1
 1024 1792 l 1,10,-1
 1024 1536 l 1,11,-1
 768 1536 l 1,8,-1
0 1024 m 1,12,-1
 0 1280 l 1,13,-1
 256 1280 l 1,14,-1
 256 1024 l 1,15,-1
 0 1024 l 1,12,-1
256 1024 m 1,16,-1
 256 1280 l 1,17,-1
 512 1280 l 1,18,-1
 512 1024 l 1,19,-1
 256 1024 l 1,16,-1
512 1024 m 1,20,-1
 512 1280 l 1,21,-1
 768 1280 l 1,22,-1
 768 1024 l 1,23,-1
 512 1024 l 1,20,-1
768 1024 m 1,24,-1
 768 1280 l 1,25,-1
 1024 1280 l 1,26,-1
 1024 1024 l 1,27,-1
 768 1024 l 1,24,-1
1024 1024 m 1,28,-1
 1024 1280 l 1,29,-1
 1280 1280 l 1,30,-1
 1280 1024 l 1,31,-1
 1024 1024 l 1,28,-1
1280 1024 m 1,32,-1
 1280 1280 l 1,33,-1
 1536 1280 l 1,34,-1
 1536 1024 l 1,35,-1
 1280 1024 l 1,32,-1
1536 1024 m 1,36,-1
 1536 1280 l 1,37,-1
 1792 1280 l 1,38,-1
 1792 1024 l 1,39,-1
 1536 1024 l 1,36,-1
0 768 m 1,40,-1
 0 1024 l 1,41,-1
 256 1024 l 1,42,-1
 256 768 l 1,43,-1
 0 768 l 1,40,-1
256 768 m 1,44,-1
 256 1024 l 1,45,-1
 512 1024 l 1,46,-1
 512 768 l 1,47,-1
 256 768 l 1,44,-1
0 512 m 1,48,-1
 0 768 l 1,49,-1
 256 768 l 1,50,-1
 256 512 l 1,51,-1
 0 512 l 1,48,-1
256 512 m 1,52,-1
 256 768 l 1,53,-1
 512 768 l 1,54,-1
 512 512 l 1,55,-1
 256 512 l 1,52,-1
512 512 m 1,56,-1
 512 768 l 1,57,-1
 768 768 l 1,58,-1
 768 512 l 1,59,-1
 512 512 l 1,56,-1
768 512 m 1,60,-1
 768 768 l 1,61,-1
 1024 768 l 1,62,-1
 1024 512 l 1,63,-1
 768 512 l 1,60,-1
1024 512 m 1,64,-1
 1024 768 l 1,65,-1
 1280 768 l 1,66,-1
 1280 512 l 1,67,-1
 1024 512 l 1,64,-1
1280 512 m 1,68,-1
 1280 768 l 1,69,-1
 1536 768 l 1,70,-1
 1536 512 l 1,71,-1
 1280 512 l 1,68,-1
0 256 m 1,72,-1
 0 512 l 1,73,-1
 256 512 l 1,74,-1
 256 256 l 1,75,-1
 0 256 l 1,72,-1
256 256 m 1,76,-1
 256 512 l 1,77,-1
 512 512 l 1,78,-1
 512 256 l 1,79,-1
 256 256 l 1,76,-1
0 0 m 1,80,-1
 0 256 l 1,81,-1
 256 256 l 1,82,-1
 256 0 l 1,83,-1
 0 0 l 1,80,-1
256 0 m 1,84,-1
 256 256 l 1,85,-1
 512 256 l 1,86,-1
 512 0 l 1,87,-1
 256 0 l 1,84,-1
512 0 m 1,88,-1
 512 256 l 1,89,-1
 768 256 l 1,90,-1
 768 0 l 1,91,-1
 512 0 l 1,88,-1
768 0 m 1,92,-1
 768 256 l 1,93,-1
 1024 256 l 1,94,-1
 1024 0 l 1,95,-1
 768 0 l 1,92,-1
1024 0 m 1,96,-1
 1024 256 l 1,97,-1
 1280 256 l 1,98,-1
 1280 0 l 1,99,-1
 1024 0 l 1,96,-1
1280 0 m 1,100,-1
 1280 256 l 1,101,-1
 1536 256 l 1,102,-1
 1536 0 l 1,103,-1
 1280 0 l 1,100,-1
1536 0 m 1,104,-1
 1536 256 l 1,105,-1
 1792 256 l 1,106,-1
 1792 0 l 1,107,-1
 1536 0 l 1,104,-1
EndSplineSet
Validated: 3077
EndChar

StartChar: Eacute
Encoding: 201 201 142
Width: 2048
LayerCount: 2
Fore
SplineSet
768 1536 m 1,0,-1
 768 1792 l 1,1,-1
 1024 1792 l 1,2,-1
 1024 1536 l 1,3,-1
 768 1536 l 1,0,-1
1024 1536 m 1,4,-1
 1024 1792 l 1,5,-1
 1280 1792 l 1,6,-1
 1280 1536 l 1,7,-1
 1024 1536 l 1,4,-1
1280 1536 m 1,8,-1
 1280 1792 l 1,9,-1
 1536 1792 l 1,10,-1
 1536 1536 l 1,11,-1
 1280 1536 l 1,8,-1
0 1024 m 1,12,-1
 0 1280 l 1,13,-1
 256 1280 l 1,14,-1
 256 1024 l 1,15,-1
 0 1024 l 1,12,-1
256 1024 m 1,16,-1
 256 1280 l 1,17,-1
 512 1280 l 1,18,-1
 512 1024 l 1,19,-1
 256 1024 l 1,16,-1
512 1024 m 1,20,-1
 512 1280 l 1,21,-1
 768 1280 l 1,22,-1
 768 1024 l 1,23,-1
 512 1024 l 1,20,-1
768 1024 m 1,24,-1
 768 1280 l 1,25,-1
 1024 1280 l 1,26,-1
 1024 1024 l 1,27,-1
 768 1024 l 1,24,-1
1024 1024 m 1,28,-1
 1024 1280 l 1,29,-1
 1280 1280 l 1,30,-1
 1280 1024 l 1,31,-1
 1024 1024 l 1,28,-1
1280 1024 m 1,32,-1
 1280 1280 l 1,33,-1
 1536 1280 l 1,34,-1
 1536 1024 l 1,35,-1
 1280 1024 l 1,32,-1
1536 1024 m 1,36,-1
 1536 1280 l 1,37,-1
 1792 1280 l 1,38,-1
 1792 1024 l 1,39,-1
 1536 1024 l 1,36,-1
0 768 m 1,40,-1
 0 1024 l 1,41,-1
 256 1024 l 1,42,-1
 256 768 l 1,43,-1
 0 768 l 1,40,-1
256 768 m 1,44,-1
 256 1024 l 1,45,-1
 512 1024 l 1,46,-1
 512 768 l 1,47,-1
 256 768 l 1,44,-1
0 512 m 1,48,-1
 0 768 l 1,49,-1
 256 768 l 1,50,-1
 256 512 l 1,51,-1
 0 512 l 1,48,-1
256 512 m 1,52,-1
 256 768 l 1,53,-1
 512 768 l 1,54,-1
 512 512 l 1,55,-1
 256 512 l 1,52,-1
512 512 m 1,56,-1
 512 768 l 1,57,-1
 768 768 l 1,58,-1
 768 512 l 1,59,-1
 512 512 l 1,56,-1
768 512 m 1,60,-1
 768 768 l 1,61,-1
 1024 768 l 1,62,-1
 1024 512 l 1,63,-1
 768 512 l 1,60,-1
1024 512 m 1,64,-1
 1024 768 l 1,65,-1
 1280 768 l 1,66,-1
 1280 512 l 1,67,-1
 1024 512 l 1,64,-1
1280 512 m 1,68,-1
 1280 768 l 1,69,-1
 1536 768 l 1,70,-1
 1536 512 l 1,71,-1
 1280 512 l 1,68,-1
0 256 m 1,72,-1
 0 512 l 1,73,-1
 256 512 l 1,74,-1
 256 256 l 1,75,-1
 0 256 l 1,72,-1
256 256 m 1,76,-1
 256 512 l 1,77,-1
 512 512 l 1,78,-1
 512 256 l 1,79,-1
 256 256 l 1,76,-1
0 0 m 1,80,-1
 0 256 l 1,81,-1
 256 256 l 1,82,-1
 256 0 l 1,83,-1
 0 0 l 1,80,-1
256 0 m 1,84,-1
 256 256 l 1,85,-1
 512 256 l 1,86,-1
 512 0 l 1,87,-1
 256 0 l 1,84,-1
512 0 m 1,88,-1
 512 256 l 1,89,-1
 768 256 l 1,90,-1
 768 0 l 1,91,-1
 512 0 l 1,88,-1
768 0 m 1,92,-1
 768 256 l 1,93,-1
 1024 256 l 1,94,-1
 1024 0 l 1,95,-1
 768 0 l 1,92,-1
1024 0 m 1,96,-1
 1024 256 l 1,97,-1
 1280 256 l 1,98,-1
 1280 0 l 1,99,-1
 1024 0 l 1,96,-1
1280 0 m 1,100,-1
 1280 256 l 1,101,-1
 1536 256 l 1,102,-1
 1536 0 l 1,103,-1
 1280 0 l 1,100,-1
1536 0 m 1,104,-1
 1536 256 l 1,105,-1
 1792 256 l 1,106,-1
 1792 0 l 1,107,-1
 1536 0 l 1,104,-1
EndSplineSet
Validated: 3077
EndChar

StartChar: Ecircumflex
Encoding: 202 202 143
Width: 2048
LayerCount: 2
Fore
SplineSet
512 1536 m 1,0,-1
 512 1792 l 1,1,-1
 768 1792 l 1,2,-1
 768 1536 l 1,3,-1
 512 1536 l 1,0,-1
768 1536 m 1,4,-1
 768 1792 l 1,5,-1
 1024 1792 l 1,6,-1
 1024 1536 l 1,7,-1
 768 1536 l 1,4,-1
1024 1536 m 1,8,-1
 1024 1792 l 1,9,-1
 1280 1792 l 1,10,-1
 1280 1536 l 1,11,-1
 1024 1536 l 1,8,-1
256 1280 m 1,12,-1
 256 1536 l 1,13,-1
 512 1536 l 1,14,-1
 512 1280 l 1,15,-1
 256 1280 l 1,12,-1
1280 1280 m 1,16,-1
 1280 1536 l 1,17,-1
 1536 1536 l 1,18,-1
 1536 1280 l 1,19,-1
 1280 1280 l 1,16,-1
0 1024 m 1,20,-1
 0 1280 l 1,21,-1
 256 1280 l 1,22,-1
 256 1024 l 1,23,-1
 0 1024 l 1,20,-1
256 1024 m 1,24,-1
 256 1280 l 1,25,-1
 512 1280 l 1,26,-1
 512 1024 l 1,27,-1
 256 1024 l 1,24,-1
512 1024 m 1,28,-1
 512 1280 l 1,29,-1
 768 1280 l 1,30,-1
 768 1024 l 1,31,-1
 512 1024 l 1,28,-1
768 1024 m 1,32,-1
 768 1280 l 1,33,-1
 1024 1280 l 1,34,-1
 1024 1024 l 1,35,-1
 768 1024 l 1,32,-1
1024 1024 m 1,36,-1
 1024 1280 l 1,37,-1
 1280 1280 l 1,38,-1
 1280 1024 l 1,39,-1
 1024 1024 l 1,36,-1
1280 1024 m 1,40,-1
 1280 1280 l 1,41,-1
 1536 1280 l 1,42,-1
 1536 1024 l 1,43,-1
 1280 1024 l 1,40,-1
1536 1024 m 1,44,-1
 1536 1280 l 1,45,-1
 1792 1280 l 1,46,-1
 1792 1024 l 1,47,-1
 1536 1024 l 1,44,-1
0 768 m 1,48,-1
 0 1024 l 1,49,-1
 256 1024 l 1,50,-1
 256 768 l 1,51,-1
 0 768 l 1,48,-1
256 768 m 1,52,-1
 256 1024 l 1,53,-1
 512 1024 l 1,54,-1
 512 768 l 1,55,-1
 256 768 l 1,52,-1
0 512 m 1,56,-1
 0 768 l 1,57,-1
 256 768 l 1,58,-1
 256 512 l 1,59,-1
 0 512 l 1,56,-1
256 512 m 1,60,-1
 256 768 l 1,61,-1
 512 768 l 1,62,-1
 512 512 l 1,63,-1
 256 512 l 1,60,-1
512 512 m 1,64,-1
 512 768 l 1,65,-1
 768 768 l 1,66,-1
 768 512 l 1,67,-1
 512 512 l 1,64,-1
768 512 m 1,68,-1
 768 768 l 1,69,-1
 1024 768 l 1,70,-1
 1024 512 l 1,71,-1
 768 512 l 1,68,-1
1024 512 m 1,72,-1
 1024 768 l 1,73,-1
 1280 768 l 1,74,-1
 1280 512 l 1,75,-1
 1024 512 l 1,72,-1
1280 512 m 1,76,-1
 1280 768 l 1,77,-1
 1536 768 l 1,78,-1
 1536 512 l 1,79,-1
 1280 512 l 1,76,-1
0 256 m 1,80,-1
 0 512 l 1,81,-1
 256 512 l 1,82,-1
 256 256 l 1,83,-1
 0 256 l 1,80,-1
256 256 m 1,84,-1
 256 512 l 1,85,-1
 512 512 l 1,86,-1
 512 256 l 1,87,-1
 256 256 l 1,84,-1
0 0 m 1,88,-1
 0 256 l 1,89,-1
 256 256 l 1,90,-1
 256 0 l 1,91,-1
 0 0 l 1,88,-1
256 0 m 1,92,-1
 256 256 l 1,93,-1
 512 256 l 1,94,-1
 512 0 l 1,95,-1
 256 0 l 1,92,-1
512 0 m 1,96,-1
 512 256 l 1,97,-1
 768 256 l 1,98,-1
 768 0 l 1,99,-1
 512 0 l 1,96,-1
768 0 m 1,100,-1
 768 256 l 1,101,-1
 1024 256 l 1,102,-1
 1024 0 l 1,103,-1
 768 0 l 1,100,-1
1024 0 m 1,104,-1
 1024 256 l 1,105,-1
 1280 256 l 1,106,-1
 1280 0 l 1,107,-1
 1024 0 l 1,104,-1
1280 0 m 1,108,-1
 1280 256 l 1,109,-1
 1536 256 l 1,110,-1
 1536 0 l 1,111,-1
 1280 0 l 1,108,-1
1536 0 m 1,112,-1
 1536 256 l 1,113,-1
 1792 256 l 1,114,-1
 1792 0 l 1,115,-1
 1536 0 l 1,112,-1
EndSplineSet
Validated: 3077
EndChar

StartChar: Edieresis
Encoding: 203 203 144
Width: 2048
LayerCount: 2
Fore
SplineSet
256 1536 m 1,0,-1
 256 1792 l 1,1,-1
 512 1792 l 1,2,-1
 512 1536 l 1,3,-1
 256 1536 l 1,0,-1
512 1536 m 1,4,-1
 512 1792 l 1,5,-1
 768 1792 l 1,6,-1
 768 1536 l 1,7,-1
 512 1536 l 1,4,-1
1024 1536 m 1,8,-1
 1024 1792 l 1,9,-1
 1280 1792 l 1,10,-1
 1280 1536 l 1,11,-1
 1024 1536 l 1,8,-1
1280 1536 m 1,12,-1
 1280 1792 l 1,13,-1
 1536 1792 l 1,14,-1
 1536 1536 l 1,15,-1
 1280 1536 l 1,12,-1
0 1024 m 1,16,-1
 0 1280 l 1,17,-1
 256 1280 l 1,18,-1
 256 1024 l 1,19,-1
 0 1024 l 1,16,-1
256 1024 m 1,20,-1
 256 1280 l 1,21,-1
 512 1280 l 1,22,-1
 512 1024 l 1,23,-1
 256 1024 l 1,20,-1
512 1024 m 1,24,-1
 512 1280 l 1,25,-1
 768 1280 l 1,26,-1
 768 1024 l 1,27,-1
 512 1024 l 1,24,-1
768 1024 m 1,28,-1
 768 1280 l 1,29,-1
 1024 1280 l 1,30,-1
 1024 1024 l 1,31,-1
 768 1024 l 1,28,-1
1024 1024 m 1,32,-1
 1024 1280 l 1,33,-1
 1280 1280 l 1,34,-1
 1280 1024 l 1,35,-1
 1024 1024 l 1,32,-1
1280 1024 m 1,36,-1
 1280 1280 l 1,37,-1
 1536 1280 l 1,38,-1
 1536 1024 l 1,39,-1
 1280 1024 l 1,36,-1
1536 1024 m 1,40,-1
 1536 1280 l 1,41,-1
 1792 1280 l 1,42,-1
 1792 1024 l 1,43,-1
 1536 1024 l 1,40,-1
0 768 m 1,44,-1
 0 1024 l 1,45,-1
 256 1024 l 1,46,-1
 256 768 l 1,47,-1
 0 768 l 1,44,-1
256 768 m 1,48,-1
 256 1024 l 1,49,-1
 512 1024 l 1,50,-1
 512 768 l 1,51,-1
 256 768 l 1,48,-1
0 512 m 1,52,-1
 0 768 l 1,53,-1
 256 768 l 1,54,-1
 256 512 l 1,55,-1
 0 512 l 1,52,-1
256 512 m 1,56,-1
 256 768 l 1,57,-1
 512 768 l 1,58,-1
 512 512 l 1,59,-1
 256 512 l 1,56,-1
512 512 m 1,60,-1
 512 768 l 1,61,-1
 768 768 l 1,62,-1
 768 512 l 1,63,-1
 512 512 l 1,60,-1
768 512 m 1,64,-1
 768 768 l 1,65,-1
 1024 768 l 1,66,-1
 1024 512 l 1,67,-1
 768 512 l 1,64,-1
1024 512 m 1,68,-1
 1024 768 l 1,69,-1
 1280 768 l 1,70,-1
 1280 512 l 1,71,-1
 1024 512 l 1,68,-1
1280 512 m 1,72,-1
 1280 768 l 1,73,-1
 1536 768 l 1,74,-1
 1536 512 l 1,75,-1
 1280 512 l 1,72,-1
0 256 m 1,76,-1
 0 512 l 1,77,-1
 256 512 l 1,78,-1
 256 256 l 1,79,-1
 0 256 l 1,76,-1
256 256 m 1,80,-1
 256 512 l 1,81,-1
 512 512 l 1,82,-1
 512 256 l 1,83,-1
 256 256 l 1,80,-1
0 0 m 1,84,-1
 0 256 l 1,85,-1
 256 256 l 1,86,-1
 256 0 l 1,87,-1
 0 0 l 1,84,-1
256 0 m 1,88,-1
 256 256 l 1,89,-1
 512 256 l 1,90,-1
 512 0 l 1,91,-1
 256 0 l 1,88,-1
512 0 m 1,92,-1
 512 256 l 1,93,-1
 768 256 l 1,94,-1
 768 0 l 1,95,-1
 512 0 l 1,92,-1
768 0 m 1,96,-1
 768 256 l 1,97,-1
 1024 256 l 1,98,-1
 1024 0 l 1,99,-1
 768 0 l 1,96,-1
1024 0 m 1,100,-1
 1024 256 l 1,101,-1
 1280 256 l 1,102,-1
 1280 0 l 1,103,-1
 1024 0 l 1,100,-1
1280 0 m 1,104,-1
 1280 256 l 1,105,-1
 1536 256 l 1,106,-1
 1536 0 l 1,107,-1
 1280 0 l 1,104,-1
1536 0 m 1,108,-1
 1536 256 l 1,109,-1
 1792 256 l 1,110,-1
 1792 0 l 1,111,-1
 1536 0 l 1,108,-1
EndSplineSet
Validated: 3077
EndChar

StartChar: Igrave
Encoding: 204 204 145
Width: 2048
LayerCount: 2
Fore
SplineSet
256 1536 m 1,0,-1
 256 1792 l 1,1,-1
 512 1792 l 1,2,-1
 512 1536 l 1,3,-1
 256 1536 l 1,0,-1
512 1536 m 1,4,-1
 512 1792 l 1,5,-1
 768 1792 l 1,6,-1
 768 1536 l 1,7,-1
 512 1536 l 1,4,-1
768 1536 m 1,8,-1
 768 1792 l 1,9,-1
 1024 1792 l 1,10,-1
 1024 1536 l 1,11,-1
 768 1536 l 1,8,-1
256 1024 m 1,12,-1
 256 1280 l 1,13,-1
 512 1280 l 1,14,-1
 512 1024 l 1,15,-1
 256 1024 l 1,12,-1
512 1024 m 1,16,-1
 512 1280 l 1,17,-1
 768 1280 l 1,18,-1
 768 1024 l 1,19,-1
 512 1024 l 1,16,-1
768 1024 m 1,20,-1
 768 1280 l 1,21,-1
 1024 1280 l 1,22,-1
 1024 1024 l 1,23,-1
 768 1024 l 1,20,-1
1024 1024 m 1,24,-1
 1024 1280 l 1,25,-1
 1280 1280 l 1,26,-1
 1280 1024 l 1,27,-1
 1024 1024 l 1,24,-1
1280 1024 m 1,28,-1
 1280 1280 l 1,29,-1
 1536 1280 l 1,30,-1
 1536 1024 l 1,31,-1
 1280 1024 l 1,28,-1
1536 1024 m 1,32,-1
 1536 1280 l 1,33,-1
 1792 1280 l 1,34,-1
 1792 1024 l 1,35,-1
 1536 1024 l 1,32,-1
768 768 m 1,36,-1
 768 1024 l 1,37,-1
 1024 1024 l 1,38,-1
 1024 768 l 1,39,-1
 768 768 l 1,36,-1
1024 768 m 1,40,-1
 1024 1024 l 1,41,-1
 1280 1024 l 1,42,-1
 1280 768 l 1,43,-1
 1024 768 l 1,40,-1
768 512 m 1,44,-1
 768 768 l 1,45,-1
 1024 768 l 1,46,-1
 1024 512 l 1,47,-1
 768 512 l 1,44,-1
1024 512 m 1,48,-1
 1024 768 l 1,49,-1
 1280 768 l 1,50,-1
 1280 512 l 1,51,-1
 1024 512 l 1,48,-1
768 256 m 1,52,-1
 768 512 l 1,53,-1
 1024 512 l 1,54,-1
 1024 256 l 1,55,-1
 768 256 l 1,52,-1
1024 256 m 1,56,-1
 1024 512 l 1,57,-1
 1280 512 l 1,58,-1
 1280 256 l 1,59,-1
 1024 256 l 1,56,-1
256 0 m 1,60,-1
 256 256 l 1,61,-1
 512 256 l 1,62,-1
 512 0 l 1,63,-1
 256 0 l 1,60,-1
512 0 m 1,64,-1
 512 256 l 1,65,-1
 768 256 l 1,66,-1
 768 0 l 1,67,-1
 512 0 l 1,64,-1
768 0 m 1,68,-1
 768 256 l 1,69,-1
 1024 256 l 1,70,-1
 1024 0 l 1,71,-1
 768 0 l 1,68,-1
1024 0 m 1,72,-1
 1024 256 l 1,73,-1
 1280 256 l 1,74,-1
 1280 0 l 1,75,-1
 1024 0 l 1,72,-1
1280 0 m 1,76,-1
 1280 256 l 1,77,-1
 1536 256 l 1,78,-1
 1536 0 l 1,79,-1
 1280 0 l 1,76,-1
1536 0 m 1,80,-1
 1536 256 l 1,81,-1
 1792 256 l 1,82,-1
 1792 0 l 1,83,-1
 1536 0 l 1,80,-1
EndSplineSet
Validated: 3077
EndChar

StartChar: Iacute
Encoding: 205 205 146
Width: 2048
LayerCount: 2
Fore
SplineSet
1024 1536 m 1,0,-1
 1024 1792 l 1,1,-1
 1280 1792 l 1,2,-1
 1280 1536 l 1,3,-1
 1024 1536 l 1,0,-1
1280 1536 m 1,4,-1
 1280 1792 l 1,5,-1
 1536 1792 l 1,6,-1
 1536 1536 l 1,7,-1
 1280 1536 l 1,4,-1
1536 1536 m 1,8,-1
 1536 1792 l 1,9,-1
 1792 1792 l 1,10,-1
 1792 1536 l 1,11,-1
 1536 1536 l 1,8,-1
256 1024 m 1,12,-1
 256 1280 l 1,13,-1
 512 1280 l 1,14,-1
 512 1024 l 1,15,-1
 256 1024 l 1,12,-1
512 1024 m 1,16,-1
 512 1280 l 1,17,-1
 768 1280 l 1,18,-1
 768 1024 l 1,19,-1
 512 1024 l 1,16,-1
768 1024 m 1,20,-1
 768 1280 l 1,21,-1
 1024 1280 l 1,22,-1
 1024 1024 l 1,23,-1
 768 1024 l 1,20,-1
1024 1024 m 1,24,-1
 1024 1280 l 1,25,-1
 1280 1280 l 1,26,-1
 1280 1024 l 1,27,-1
 1024 1024 l 1,24,-1
1280 1024 m 1,28,-1
 1280 1280 l 1,29,-1
 1536 1280 l 1,30,-1
 1536 1024 l 1,31,-1
 1280 1024 l 1,28,-1
1536 1024 m 1,32,-1
 1536 1280 l 1,33,-1
 1792 1280 l 1,34,-1
 1792 1024 l 1,35,-1
 1536 1024 l 1,32,-1
768 768 m 1,36,-1
 768 1024 l 1,37,-1
 1024 1024 l 1,38,-1
 1024 768 l 1,39,-1
 768 768 l 1,36,-1
1024 768 m 1,40,-1
 1024 1024 l 1,41,-1
 1280 1024 l 1,42,-1
 1280 768 l 1,43,-1
 1024 768 l 1,40,-1
768 512 m 1,44,-1
 768 768 l 1,45,-1
 1024 768 l 1,46,-1
 1024 512 l 1,47,-1
 768 512 l 1,44,-1
1024 512 m 1,48,-1
 1024 768 l 1,49,-1
 1280 768 l 1,50,-1
 1280 512 l 1,51,-1
 1024 512 l 1,48,-1
768 256 m 1,52,-1
 768 512 l 1,53,-1
 1024 512 l 1,54,-1
 1024 256 l 1,55,-1
 768 256 l 1,52,-1
1024 256 m 1,56,-1
 1024 512 l 1,57,-1
 1280 512 l 1,58,-1
 1280 256 l 1,59,-1
 1024 256 l 1,56,-1
256 0 m 1,60,-1
 256 256 l 1,61,-1
 512 256 l 1,62,-1
 512 0 l 1,63,-1
 256 0 l 1,60,-1
512 0 m 1,64,-1
 512 256 l 1,65,-1
 768 256 l 1,66,-1
 768 0 l 1,67,-1
 512 0 l 1,64,-1
768 0 m 1,68,-1
 768 256 l 1,69,-1
 1024 256 l 1,70,-1
 1024 0 l 1,71,-1
 768 0 l 1,68,-1
1024 0 m 1,72,-1
 1024 256 l 1,73,-1
 1280 256 l 1,74,-1
 1280 0 l 1,75,-1
 1024 0 l 1,72,-1
1280 0 m 1,76,-1
 1280 256 l 1,77,-1
 1536 256 l 1,78,-1
 1536 0 l 1,79,-1
 1280 0 l 1,76,-1
1536 0 m 1,80,-1
 1536 256 l 1,81,-1
 1792 256 l 1,82,-1
 1792 0 l 1,83,-1
 1536 0 l 1,80,-1
EndSplineSet
Validated: 3077
EndChar

StartChar: Icircumflex
Encoding: 206 206 147
Width: 2048
LayerCount: 2
Fore
SplineSet
768 1536 m 1,0,-1
 768 1792 l 1,1,-1
 1024 1792 l 1,2,-1
 1024 1536 l 1,3,-1
 768 1536 l 1,0,-1
1024 1536 m 1,4,-1
 1024 1792 l 1,5,-1
 1280 1792 l 1,6,-1
 1280 1536 l 1,7,-1
 1024 1536 l 1,4,-1
512 1280 m 1,8,-1
 512 1536 l 1,9,-1
 768 1536 l 1,10,-1
 768 1280 l 1,11,-1
 512 1280 l 1,8,-1
1280 1280 m 1,12,-1
 1280 1536 l 1,13,-1
 1536 1536 l 1,14,-1
 1536 1280 l 1,15,-1
 1280 1280 l 1,12,-1
256 768 m 1,16,-1
 256 1024 l 1,17,-1
 512 1024 l 1,18,-1
 512 768 l 1,19,-1
 256 768 l 1,16,-1
512 768 m 1,20,-1
 512 1024 l 1,21,-1
 768 1024 l 1,22,-1
 768 768 l 1,23,-1
 512 768 l 1,20,-1
768 768 m 1,24,-1
 768 1024 l 1,25,-1
 1024 1024 l 1,26,-1
 1024 768 l 1,27,-1
 768 768 l 1,24,-1
1024 768 m 1,28,-1
 1024 1024 l 1,29,-1
 1280 1024 l 1,30,-1
 1280 768 l 1,31,-1
 1024 768 l 1,28,-1
1280 768 m 1,32,-1
 1280 1024 l 1,33,-1
 1536 1024 l 1,34,-1
 1536 768 l 1,35,-1
 1280 768 l 1,32,-1
1536 768 m 1,36,-1
 1536 1024 l 1,37,-1
 1792 1024 l 1,38,-1
 1792 768 l 1,39,-1
 1536 768 l 1,36,-1
768 512 m 1,40,-1
 768 768 l 1,41,-1
 1024 768 l 1,42,-1
 1024 512 l 1,43,-1
 768 512 l 1,40,-1
1024 512 m 1,44,-1
 1024 768 l 1,45,-1
 1280 768 l 1,46,-1
 1280 512 l 1,47,-1
 1024 512 l 1,44,-1
768 256 m 1,48,-1
 768 512 l 1,49,-1
 1024 512 l 1,50,-1
 1024 256 l 1,51,-1
 768 256 l 1,48,-1
1024 256 m 1,52,-1
 1024 512 l 1,53,-1
 1280 512 l 1,54,-1
 1280 256 l 1,55,-1
 1024 256 l 1,52,-1
256 0 m 1,56,-1
 256 256 l 1,57,-1
 512 256 l 1,58,-1
 512 0 l 1,59,-1
 256 0 l 1,56,-1
512 0 m 1,60,-1
 512 256 l 1,61,-1
 768 256 l 1,62,-1
 768 0 l 1,63,-1
 512 0 l 1,60,-1
768 0 m 1,64,-1
 768 256 l 1,65,-1
 1024 256 l 1,66,-1
 1024 0 l 1,67,-1
 768 0 l 1,64,-1
1024 0 m 1,68,-1
 1024 256 l 1,69,-1
 1280 256 l 1,70,-1
 1280 0 l 1,71,-1
 1024 0 l 1,68,-1
1280 0 m 1,72,-1
 1280 256 l 1,73,-1
 1536 256 l 1,74,-1
 1536 0 l 1,75,-1
 1280 0 l 1,72,-1
1536 0 m 1,76,-1
 1536 256 l 1,77,-1
 1792 256 l 1,78,-1
 1792 0 l 1,79,-1
 1536 0 l 1,76,-1
EndSplineSet
Validated: 3077
EndChar

StartChar: Idieresis
Encoding: 207 207 148
Width: 2048
LayerCount: 2
Fore
SplineSet
256 1536 m 1,0,-1
 256 1792 l 1,1,-1
 512 1792 l 1,2,-1
 512 1536 l 1,3,-1
 256 1536 l 1,0,-1
512 1536 m 1,4,-1
 512 1792 l 1,5,-1
 768 1792 l 1,6,-1
 768 1536 l 1,7,-1
 512 1536 l 1,4,-1
1280 1536 m 1,8,-1
 1280 1792 l 1,9,-1
 1536 1792 l 1,10,-1
 1536 1536 l 1,11,-1
 1280 1536 l 1,8,-1
1536 1536 m 1,12,-1
 1536 1792 l 1,13,-1
 1792 1792 l 1,14,-1
 1792 1536 l 1,15,-1
 1536 1536 l 1,12,-1
256 1024 m 1,16,-1
 256 1280 l 1,17,-1
 512 1280 l 1,18,-1
 512 1024 l 1,19,-1
 256 1024 l 1,16,-1
512 1024 m 1,20,-1
 512 1280 l 1,21,-1
 768 1280 l 1,22,-1
 768 1024 l 1,23,-1
 512 1024 l 1,20,-1
768 1024 m 1,24,-1
 768 1280 l 1,25,-1
 1024 1280 l 1,26,-1
 1024 1024 l 1,27,-1
 768 1024 l 1,24,-1
1024 1024 m 1,28,-1
 1024 1280 l 1,29,-1
 1280 1280 l 1,30,-1
 1280 1024 l 1,31,-1
 1024 1024 l 1,28,-1
1280 1024 m 1,32,-1
 1280 1280 l 1,33,-1
 1536 1280 l 1,34,-1
 1536 1024 l 1,35,-1
 1280 1024 l 1,32,-1
1536 1024 m 1,36,-1
 1536 1280 l 1,37,-1
 1792 1280 l 1,38,-1
 1792 1024 l 1,39,-1
 1536 1024 l 1,36,-1
768 768 m 1,40,-1
 768 1024 l 1,41,-1
 1024 1024 l 1,42,-1
 1024 768 l 1,43,-1
 768 768 l 1,40,-1
1024 768 m 1,44,-1
 1024 1024 l 1,45,-1
 1280 1024 l 1,46,-1
 1280 768 l 1,47,-1
 1024 768 l 1,44,-1
768 512 m 1,48,-1
 768 768 l 1,49,-1
 1024 768 l 1,50,-1
 1024 512 l 1,51,-1
 768 512 l 1,48,-1
1024 512 m 1,52,-1
 1024 768 l 1,53,-1
 1280 768 l 1,54,-1
 1280 512 l 1,55,-1
 1024 512 l 1,52,-1
768 256 m 1,56,-1
 768 512 l 1,57,-1
 1024 512 l 1,58,-1
 1024 256 l 1,59,-1
 768 256 l 1,56,-1
1024 256 m 1,60,-1
 1024 512 l 1,61,-1
 1280 512 l 1,62,-1
 1280 256 l 1,63,-1
 1024 256 l 1,60,-1
256 0 m 1,64,-1
 256 256 l 1,65,-1
 512 256 l 1,66,-1
 512 0 l 1,67,-1
 256 0 l 1,64,-1
512 0 m 1,68,-1
 512 256 l 1,69,-1
 768 256 l 1,70,-1
 768 0 l 1,71,-1
 512 0 l 1,68,-1
768 0 m 1,72,-1
 768 256 l 1,73,-1
 1024 256 l 1,74,-1
 1024 0 l 1,75,-1
 768 0 l 1,72,-1
1024 0 m 1,76,-1
 1024 256 l 1,77,-1
 1280 256 l 1,78,-1
 1280 0 l 1,79,-1
 1024 0 l 1,76,-1
1280 0 m 1,80,-1
 1280 256 l 1,81,-1
 1536 256 l 1,82,-1
 1536 0 l 1,83,-1
 1280 0 l 1,80,-1
1536 0 m 1,84,-1
 1536 256 l 1,85,-1
 1792 256 l 1,86,-1
 1792 0 l 1,87,-1
 1536 0 l 1,84,-1
EndSplineSet
Validated: 3077
EndChar

StartChar: Eth
Encoding: 208 208 149
Width: 2048
LayerCount: 2
Fore
SplineSet
256 1536 m 1,0,-1
 256 1792 l 1,1,-1
 512 1792 l 1,2,-1
 512 1536 l 1,3,-1
 256 1536 l 1,0,-1
512 1536 m 1,4,-1
 512 1792 l 1,5,-1
 768 1792 l 1,6,-1
 768 1536 l 1,7,-1
 512 1536 l 1,4,-1
768 1536 m 1,8,-1
 768 1792 l 1,9,-1
 1024 1792 l 1,10,-1
 1024 1536 l 1,11,-1
 768 1536 l 1,8,-1
1024 1536 m 1,12,-1
 1024 1792 l 1,13,-1
 1280 1792 l 1,14,-1
 1280 1536 l 1,15,-1
 1024 1536 l 1,12,-1
1280 1536 m 1,16,-1
 1280 1792 l 1,17,-1
 1536 1792 l 1,18,-1
 1536 1536 l 1,19,-1
 1280 1536 l 1,16,-1
256 1280 m 1,20,-1
 256 1536 l 1,21,-1
 512 1536 l 1,22,-1
 512 1280 l 1,23,-1
 256 1280 l 1,20,-1
512 1280 m 1,24,-1
 512 1536 l 1,25,-1
 768 1536 l 1,26,-1
 768 1280 l 1,27,-1
 512 1280 l 1,24,-1
1280 1280 m 1,28,-1
 1280 1536 l 1,29,-1
 1536 1536 l 1,30,-1
 1536 1280 l 1,31,-1
 1280 1280 l 1,28,-1
1536 1280 m 1,32,-1
 1536 1536 l 1,33,-1
 1792 1536 l 1,34,-1
 1792 1280 l 1,35,-1
 1536 1280 l 1,32,-1
256 1024 m 1,36,-1
 256 1280 l 1,37,-1
 512 1280 l 1,38,-1
 512 1024 l 1,39,-1
 256 1024 l 1,36,-1
512 1024 m 1,40,-1
 512 1280 l 1,41,-1
 768 1280 l 1,42,-1
 768 1024 l 1,43,-1
 512 1024 l 1,40,-1
1280 1024 m 1,44,-1
 1280 1280 l 1,45,-1
 1536 1280 l 1,46,-1
 1536 1024 l 1,47,-1
 1280 1024 l 1,44,-1
1536 1024 m 1,48,-1
 1536 1280 l 1,49,-1
 1792 1280 l 1,50,-1
 1792 1024 l 1,51,-1
 1536 1024 l 1,48,-1
0 768 m 1,52,-1
 0 1024 l 1,53,-1
 256 1024 l 1,54,-1
 256 768 l 1,55,-1
 0 768 l 1,52,-1
256 768 m 1,56,-1
 256 1024 l 1,57,-1
 512 1024 l 1,58,-1
 512 768 l 1,59,-1
 256 768 l 1,56,-1
512 768 m 1,60,-1
 512 1024 l 1,61,-1
 768 1024 l 1,62,-1
 768 768 l 1,63,-1
 512 768 l 1,60,-1
768 768 m 1,64,-1
 768 1024 l 1,65,-1
 1024 1024 l 1,66,-1
 1024 768 l 1,67,-1
 768 768 l 1,64,-1
1280 768 m 1,68,-1
 1280 1024 l 1,69,-1
 1536 1024 l 1,70,-1
 1536 768 l 1,71,-1
 1280 768 l 1,68,-1
1536 768 m 1,72,-1
 1536 1024 l 1,73,-1
 1792 1024 l 1,74,-1
 1792 768 l 1,75,-1
 1536 768 l 1,72,-1
256 512 m 1,76,-1
 256 768 l 1,77,-1
 512 768 l 1,78,-1
 512 512 l 1,79,-1
 256 512 l 1,76,-1
512 512 m 1,80,-1
 512 768 l 1,81,-1
 768 768 l 1,82,-1
 768 512 l 1,83,-1
 512 512 l 1,80,-1
1280 512 m 1,84,-1
 1280 768 l 1,85,-1
 1536 768 l 1,86,-1
 1536 512 l 1,87,-1
 1280 512 l 1,84,-1
1536 512 m 1,88,-1
 1536 768 l 1,89,-1
 1792 768 l 1,90,-1
 1792 512 l 1,91,-1
 1536 512 l 1,88,-1
256 256 m 1,92,-1
 256 512 l 1,93,-1
 512 512 l 1,94,-1
 512 256 l 1,95,-1
 256 256 l 1,92,-1
512 256 m 1,96,-1
 512 512 l 1,97,-1
 768 512 l 1,98,-1
 768 256 l 1,99,-1
 512 256 l 1,96,-1
1280 256 m 1,100,-1
 1280 512 l 1,101,-1
 1536 512 l 1,102,-1
 1536 256 l 1,103,-1
 1280 256 l 1,100,-1
1536 256 m 1,104,-1
 1536 512 l 1,105,-1
 1792 512 l 1,106,-1
 1792 256 l 1,107,-1
 1536 256 l 1,104,-1
256 0 m 1,108,-1
 256 256 l 1,109,-1
 512 256 l 1,110,-1
 512 0 l 1,111,-1
 256 0 l 1,108,-1
512 0 m 1,112,-1
 512 256 l 1,113,-1
 768 256 l 1,114,-1
 768 0 l 1,115,-1
 512 0 l 1,112,-1
768 0 m 1,116,-1
 768 256 l 1,117,-1
 1024 256 l 1,118,-1
 1024 0 l 1,119,-1
 768 0 l 1,116,-1
1024 0 m 1,120,-1
 1024 256 l 1,121,-1
 1280 256 l 1,122,-1
 1280 0 l 1,123,-1
 1024 0 l 1,120,-1
1280 0 m 1,124,-1
 1280 256 l 1,125,-1
 1536 256 l 1,126,-1
 1536 0 l 1,127,-1
 1280 0 l 1,124,-1
EndSplineSet
Validated: 3077
EndChar

StartChar: Ntilde
Encoding: 209 209 150
Width: 2048
LayerCount: 2
Fore
SplineSet
512 1536 m 1,0,-1
 512 1792 l 1,1,-1
 768 1792 l 1,2,-1
 768 1536 l 1,3,-1
 512 1536 l 1,0,-1
768 1536 m 1,4,-1
 768 1792 l 1,5,-1
 1024 1792 l 1,6,-1
 1024 1536 l 1,7,-1
 768 1536 l 1,4,-1
1536 1536 m 1,8,-1
 1536 1792 l 1,9,-1
 1792 1792 l 1,10,-1
 1792 1536 l 1,11,-1
 1536 1536 l 1,8,-1
256 1280 m 1,12,-1
 256 1536 l 1,13,-1
 512 1536 l 1,14,-1
 512 1280 l 1,15,-1
 256 1280 l 1,12,-1
1024 1280 m 1,16,-1
 1024 1536 l 1,17,-1
 1280 1536 l 1,18,-1
 1280 1280 l 1,19,-1
 1024 1280 l 1,16,-1
1280 1280 m 1,20,-1
 1280 1536 l 1,21,-1
 1536 1536 l 1,22,-1
 1536 1280 l 1,23,-1
 1280 1280 l 1,20,-1
0 1024 m 1,24,-1
 0 1280 l 1,25,-1
 256 1280 l 1,26,-1
 256 1024 l 1,27,-1
 0 1024 l 1,24,-1
256 1024 m 1,28,-1
 256 1280 l 1,29,-1
 512 1280 l 1,30,-1
 512 1024 l 1,31,-1
 256 1024 l 1,28,-1
1280 1024 m 1,32,-1
 1280 1280 l 1,33,-1
 1536 1280 l 1,34,-1
 1536 1024 l 1,35,-1
 1280 1024 l 1,32,-1
1536 1024 m 1,36,-1
 1536 1280 l 1,37,-1
 1792 1280 l 1,38,-1
 1792 1024 l 1,39,-1
 1536 1024 l 1,36,-1
0 768 m 1,40,-1
 0 1024 l 1,41,-1
 256 1024 l 1,42,-1
 256 768 l 1,43,-1
 0 768 l 1,40,-1
256 768 m 1,44,-1
 256 1024 l 1,45,-1
 512 1024 l 1,46,-1
 512 768 l 1,47,-1
 256 768 l 1,44,-1
512 768 m 1,48,-1
 512 1024 l 1,49,-1
 768 1024 l 1,50,-1
 768 768 l 1,51,-1
 512 768 l 1,48,-1
1280 768 m 1,52,-1
 1280 1024 l 1,53,-1
 1536 1024 l 1,54,-1
 1536 768 l 1,55,-1
 1280 768 l 1,52,-1
1536 768 m 1,56,-1
 1536 1024 l 1,57,-1
 1792 1024 l 1,58,-1
 1792 768 l 1,59,-1
 1536 768 l 1,56,-1
0 512 m 1,60,-1
 0 768 l 1,61,-1
 256 768 l 1,62,-1
 256 512 l 1,63,-1
 0 512 l 1,60,-1
256 512 m 1,64,-1
 256 768 l 1,65,-1
 512 768 l 1,66,-1
 512 512 l 1,67,-1
 256 512 l 1,64,-1
768 512 m 1,68,-1
 768 768 l 1,69,-1
 1024 768 l 1,70,-1
 1024 512 l 1,71,-1
 768 512 l 1,68,-1
1280 512 m 1,72,-1
 1280 768 l 1,73,-1
 1536 768 l 1,74,-1
 1536 512 l 1,75,-1
 1280 512 l 1,72,-1
1536 512 m 1,76,-1
 1536 768 l 1,77,-1
 1792 768 l 1,78,-1
 1792 512 l 1,79,-1
 1536 512 l 1,76,-1
0 256 m 1,80,-1
 0 512 l 1,81,-1
 256 512 l 1,82,-1
 256 256 l 1,83,-1
 0 256 l 1,80,-1
256 256 m 1,84,-1
 256 512 l 1,85,-1
 512 512 l 1,86,-1
 512 256 l 1,87,-1
 256 256 l 1,84,-1
1024 256 m 1,88,-1
 1024 512 l 1,89,-1
 1280 512 l 1,90,-1
 1280 256 l 1,91,-1
 1024 256 l 1,88,-1
1280 256 m 1,92,-1
 1280 512 l 1,93,-1
 1536 512 l 1,94,-1
 1536 256 l 1,95,-1
 1280 256 l 1,92,-1
1536 256 m 1,96,-1
 1536 512 l 1,97,-1
 1792 512 l 1,98,-1
 1792 256 l 1,99,-1
 1536 256 l 1,96,-1
0 0 m 1,100,-1
 0 256 l 1,101,-1
 256 256 l 1,102,-1
 256 0 l 1,103,-1
 0 0 l 1,100,-1
256 0 m 1,104,-1
 256 256 l 1,105,-1
 512 256 l 1,106,-1
 512 0 l 1,107,-1
 256 0 l 1,104,-1
1280 0 m 1,108,-1
 1280 256 l 1,109,-1
 1536 256 l 1,110,-1
 1536 0 l 1,111,-1
 1280 0 l 1,108,-1
1536 0 m 1,112,-1
 1536 256 l 1,113,-1
 1792 256 l 1,114,-1
 1792 0 l 1,115,-1
 1536 0 l 1,112,-1
EndSplineSet
Validated: 3077
EndChar

StartChar: Ograve
Encoding: 210 210 151
Width: 2048
LayerCount: 2
Fore
SplineSet
256 1536 m 1,0,-1
 256 1792 l 1,1,-1
 512 1792 l 1,2,-1
 512 1536 l 1,3,-1
 256 1536 l 1,0,-1
512 1536 m 1,4,-1
 512 1792 l 1,5,-1
 768 1792 l 1,6,-1
 768 1536 l 1,7,-1
 512 1536 l 1,4,-1
768 1536 m 1,8,-1
 768 1792 l 1,9,-1
 1024 1792 l 1,10,-1
 1024 1536 l 1,11,-1
 768 1536 l 1,8,-1
256 1024 m 1,12,-1
 256 1280 l 1,13,-1
 512 1280 l 1,14,-1
 512 1024 l 1,15,-1
 256 1024 l 1,12,-1
512 1024 m 1,16,-1
 512 1280 l 1,17,-1
 768 1280 l 1,18,-1
 768 1024 l 1,19,-1
 512 1024 l 1,16,-1
768 1024 m 1,20,-1
 768 1280 l 1,21,-1
 1024 1280 l 1,22,-1
 1024 1024 l 1,23,-1
 768 1024 l 1,20,-1
1024 1024 m 1,24,-1
 1024 1280 l 1,25,-1
 1280 1280 l 1,26,-1
 1280 1024 l 1,27,-1
 1024 1024 l 1,24,-1
1280 1024 m 1,28,-1
 1280 1280 l 1,29,-1
 1536 1280 l 1,30,-1
 1536 1024 l 1,31,-1
 1280 1024 l 1,28,-1
0 768 m 1,32,-1
 0 1024 l 1,33,-1
 256 1024 l 1,34,-1
 256 768 l 1,35,-1
 0 768 l 1,32,-1
256 768 m 1,36,-1
 256 1024 l 1,37,-1
 512 1024 l 1,38,-1
 512 768 l 1,39,-1
 256 768 l 1,36,-1
1280 768 m 1,40,-1
 1280 1024 l 1,41,-1
 1536 1024 l 1,42,-1
 1536 768 l 1,43,-1
 1280 768 l 1,40,-1
1536 768 m 1,44,-1
 1536 1024 l 1,45,-1
 1792 1024 l 1,46,-1
 1792 768 l 1,47,-1
 1536 768 l 1,44,-1
0 512 m 1,48,-1
 0 768 l 1,49,-1
 256 768 l 1,50,-1
 256 512 l 1,51,-1
 0 512 l 1,48,-1
256 512 m 1,52,-1
 256 768 l 1,53,-1
 512 768 l 1,54,-1
 512 512 l 1,55,-1
 256 512 l 1,52,-1
1280 512 m 1,56,-1
 1280 768 l 1,57,-1
 1536 768 l 1,58,-1
 1536 512 l 1,59,-1
 1280 512 l 1,56,-1
1536 512 m 1,60,-1
 1536 768 l 1,61,-1
 1792 768 l 1,62,-1
 1792 512 l 1,63,-1
 1536 512 l 1,60,-1
0 256 m 1,64,-1
 0 512 l 1,65,-1
 256 512 l 1,66,-1
 256 256 l 1,67,-1
 0 256 l 1,64,-1
256 256 m 1,68,-1
 256 512 l 1,69,-1
 512 512 l 1,70,-1
 512 256 l 1,71,-1
 256 256 l 1,68,-1
1280 256 m 1,72,-1
 1280 512 l 1,73,-1
 1536 512 l 1,74,-1
 1536 256 l 1,75,-1
 1280 256 l 1,72,-1
1536 256 m 1,76,-1
 1536 512 l 1,77,-1
 1792 512 l 1,78,-1
 1792 256 l 1,79,-1
 1536 256 l 1,76,-1
256 0 m 1,80,-1
 256 256 l 1,81,-1
 512 256 l 1,82,-1
 512 0 l 1,83,-1
 256 0 l 1,80,-1
512 0 m 1,84,-1
 512 256 l 1,85,-1
 768 256 l 1,86,-1
 768 0 l 1,87,-1
 512 0 l 1,84,-1
768 0 m 1,88,-1
 768 256 l 1,89,-1
 1024 256 l 1,90,-1
 1024 0 l 1,91,-1
 768 0 l 1,88,-1
1024 0 m 1,92,-1
 1024 256 l 1,93,-1
 1280 256 l 1,94,-1
 1280 0 l 1,95,-1
 1024 0 l 1,92,-1
1280 0 m 1,96,-1
 1280 256 l 1,97,-1
 1536 256 l 1,98,-1
 1536 0 l 1,99,-1
 1280 0 l 1,96,-1
EndSplineSet
Validated: 3077
EndChar

StartChar: Oacute
Encoding: 211 211 152
Width: 2048
LayerCount: 2
Fore
SplineSet
768 1536 m 1,0,-1
 768 1792 l 1,1,-1
 1024 1792 l 1,2,-1
 1024 1536 l 1,3,-1
 768 1536 l 1,0,-1
1024 1536 m 1,4,-1
 1024 1792 l 1,5,-1
 1280 1792 l 1,6,-1
 1280 1536 l 1,7,-1
 1024 1536 l 1,4,-1
1280 1536 m 1,8,-1
 1280 1792 l 1,9,-1
 1536 1792 l 1,10,-1
 1536 1536 l 1,11,-1
 1280 1536 l 1,8,-1
256 1024 m 1,12,-1
 256 1280 l 1,13,-1
 512 1280 l 1,14,-1
 512 1024 l 1,15,-1
 256 1024 l 1,12,-1
512 1024 m 1,16,-1
 512 1280 l 1,17,-1
 768 1280 l 1,18,-1
 768 1024 l 1,19,-1
 512 1024 l 1,16,-1
768 1024 m 1,20,-1
 768 1280 l 1,21,-1
 1024 1280 l 1,22,-1
 1024 1024 l 1,23,-1
 768 1024 l 1,20,-1
1024 1024 m 1,24,-1
 1024 1280 l 1,25,-1
 1280 1280 l 1,26,-1
 1280 1024 l 1,27,-1
 1024 1024 l 1,24,-1
1280 1024 m 1,28,-1
 1280 1280 l 1,29,-1
 1536 1280 l 1,30,-1
 1536 1024 l 1,31,-1
 1280 1024 l 1,28,-1
0 768 m 1,32,-1
 0 1024 l 1,33,-1
 256 1024 l 1,34,-1
 256 768 l 1,35,-1
 0 768 l 1,32,-1
256 768 m 1,36,-1
 256 1024 l 1,37,-1
 512 1024 l 1,38,-1
 512 768 l 1,39,-1
 256 768 l 1,36,-1
1280 768 m 1,40,-1
 1280 1024 l 1,41,-1
 1536 1024 l 1,42,-1
 1536 768 l 1,43,-1
 1280 768 l 1,40,-1
1536 768 m 1,44,-1
 1536 1024 l 1,45,-1
 1792 1024 l 1,46,-1
 1792 768 l 1,47,-1
 1536 768 l 1,44,-1
0 512 m 1,48,-1
 0 768 l 1,49,-1
 256 768 l 1,50,-1
 256 512 l 1,51,-1
 0 512 l 1,48,-1
256 512 m 1,52,-1
 256 768 l 1,53,-1
 512 768 l 1,54,-1
 512 512 l 1,55,-1
 256 512 l 1,52,-1
1280 512 m 1,56,-1
 1280 768 l 1,57,-1
 1536 768 l 1,58,-1
 1536 512 l 1,59,-1
 1280 512 l 1,56,-1
1536 512 m 1,60,-1
 1536 768 l 1,61,-1
 1792 768 l 1,62,-1
 1792 512 l 1,63,-1
 1536 512 l 1,60,-1
0 256 m 1,64,-1
 0 512 l 1,65,-1
 256 512 l 1,66,-1
 256 256 l 1,67,-1
 0 256 l 1,64,-1
256 256 m 1,68,-1
 256 512 l 1,69,-1
 512 512 l 1,70,-1
 512 256 l 1,71,-1
 256 256 l 1,68,-1
1280 256 m 1,72,-1
 1280 512 l 1,73,-1
 1536 512 l 1,74,-1
 1536 256 l 1,75,-1
 1280 256 l 1,72,-1
1536 256 m 1,76,-1
 1536 512 l 1,77,-1
 1792 512 l 1,78,-1
 1792 256 l 1,79,-1
 1536 256 l 1,76,-1
256 0 m 1,80,-1
 256 256 l 1,81,-1
 512 256 l 1,82,-1
 512 0 l 1,83,-1
 256 0 l 1,80,-1
512 0 m 1,84,-1
 512 256 l 1,85,-1
 768 256 l 1,86,-1
 768 0 l 1,87,-1
 512 0 l 1,84,-1
768 0 m 1,88,-1
 768 256 l 1,89,-1
 1024 256 l 1,90,-1
 1024 0 l 1,91,-1
 768 0 l 1,88,-1
1024 0 m 1,92,-1
 1024 256 l 1,93,-1
 1280 256 l 1,94,-1
 1280 0 l 1,95,-1
 1024 0 l 1,92,-1
1280 0 m 1,96,-1
 1280 256 l 1,97,-1
 1536 256 l 1,98,-1
 1536 0 l 1,99,-1
 1280 0 l 1,96,-1
EndSplineSet
Validated: 3077
EndChar

